<?xml version="1.0" encoding="utf-8"?>
<!-- Generator: Adobe Illustrator 18.1.1, SVG Export Plug-In . SVG Version: 6.00 Build 0)  -->
<svg version="1.1" id="Layer_1" xmlns="http://www.w3.org/2000/svg" xmlns:xlink="http://www.w3.org/1999/xlink" x="0px" y="0px"
	 viewBox="0 0 144.1 77.9" enable-background="new 0 0 144.1 77.9" xml:space="preserve">
<g>
	<path fill="#62C5DC" d="M32.5,64c-6.7,0-12.2-5.6-12.2-12.4c0-6.9,5.5-12.5,12.2-12.5c6.7,0,12.2,5.6,12.2,12.5
		C44.7,58.4,39.2,64,32.5,64z M32.5,42.1c-5.1,0-9.2,4.2-9.2,9.5c0,5.2,4.1,9.4,9.2,9.4c5.1,0,9.2-4.2,9.2-9.4
		C41.7,46.3,37.6,42.1,32.5,42.1z"/>
</g>
<g>
	<path fill="#62C5DC" d="M118.1,64c-6.7,0-12.2-5.6-12.2-12.4c0-6.9,5.5-12.5,12.2-12.5s12.2,5.6,12.2,12.5
		C130.4,58.4,124.9,64,118.1,64z M118.1,42.1c-5.1,0-9.2,4.2-9.2,9.5c0,5.2,4.1,9.4,9.2,9.4s9.2-4.2,9.2-9.4
		C127.4,46.3,123.2,42.1,118.1,42.1z"/>
</g>
<g>
	<path fill="#62C5DC" d="M137,58h-7.3l0.8-2c0,0,1.7-4.5-0.4-9.6c-1.8-4.5-6.9-7.8-12.1-7.8l-0.2,0c-5.4,0.1-9.6,3-11.7,8.3
		c-2,4.7-0.5,9.2-0.5,9.2l0.7,2l-2.1,0H44.9l0.4-1.8c0-0.1,1.5-7.7-3.4-13.6c-2-2.4-5.8-3.9-9.7-3.9c-3.9,0-7.3,1.5-9.3,4.1
		c-5.4,7.2-2.6,13.1-2.6,13.1l1.1,2.2H4.8l-0.4-0.6c-1.1-1.4-4.5-6.3-4.3-8.9c0.1-2.3,2.1-6.1,2.8-7.3v-3.8c-0.2-0.5-0.4-1.4-0.6-3
		l0-0.1c-0.1-3,2.4-6.4,5-9.6c1.8-2.1,3.8-4.4,4.6-5.3v-4.2l1.2-0.2c0.4-0.1,11.6-2.2,48.3-1.9l0,1.4l0.1-1.4l0.2,0
		c6.1,0.3,26.7,1.7,35.9,6.2c3.5,1.6,15.9,9,17.6,10c0.2,0,0.4,0.1,0.8,0.2c2.4,0.5,7.9,1.6,12.9,3.4c4.9,1.8,9,4.4,10.1,5.3
		c1.7,1.5,2.7,4.1,3.1,5.5c0.6,0.3,1.3,0.9,1.5,1.8c0.1,0.6,0.3,2,0.3,2.3c0.6,3,0.3,3.7,0.2,3.9c-0.3,0.8-0.9,1.2-1.3,1.5
		c0,0,0,0,0,0c0,0.1,0,0.1,0,0.2l0.5,0.1l0,1.1c0,0.7-0.2,1.3-0.8,1.8C141,57.8,137.9,58,137,58L137,58z M133.9,55h3.1
		c1,0,2-0.2,2.7-0.4c-0.1-0.2-0.1-0.4-0.1-0.6l0-0.2l0-0.2c0.1-0.4,0.2-1.4,0.4-1.8c0.2-0.6,0.7-1,1-1.2c0.1,0,0.1-0.1,0.2-0.1
		c0-0.5-0.2-1.4-0.3-2.3l0-0.1c0-0.4-0.2-1.3-0.2-1.8c-0.1,0-0.2-0.1-0.2-0.1l-0.8-0.2l-0.2-0.9c-0.2-0.9-1-3.5-2.3-4.6
		c-0.9-0.7-4.6-3.2-9.2-4.8c-4.8-1.7-10.2-2.9-12.5-3.3c-1.2-0.2-1.4-0.3-1.7-0.5c-1.3-0.8-14-8.4-17.4-9.9
		c-6.9-3.4-22.5-5.2-34.8-5.9c0,0-0.1,0-0.1,0v0c-29.8-0.2-42.7,1.2-46.5,1.7v2.8l-0.4,0.4c0,0-2.7,3-4.9,5.7
		c-1.3,1.6-4.3,5.2-4.3,7.5c0.2,1.7,0.5,2.3,0.5,2.3l0.2,0.4l0,0.3v4.8l-0.2,0.3c-1,1.7-2.5,4.9-2.6,6.3c-0.1,1,1.6,3.9,3.3,6.4H17
		c-0.7-2.8-0.9-8.2,3.6-14.1c2.5-3.3,6.8-5.2,11.6-5.2c4.9,0,9.5,1.9,12,5c4.3,5.2,4.5,11.4,4.2,14.3h53.9c-0.3-2.1-0.5-5.6,1-9.3
		c2.6-6.3,7.9-10,14.4-10.1l0.3,0c6.4,0,12.7,4.1,14.9,9.7C134.5,49.2,134.3,52.8,133.9,55z"/>
</g>
<g>
	<path fill="#62C5DC" d="M44.2,31l-32.4-1.1l2.3-2.4c0.1-0.1,2.6-2.7,5.5-4.9c2.8-2.2,6-3.9,6.1-3.9l0.2-0.1l0.2,0
		c0.2,0,5.4-1.1,7.3-1.3c1.9-0.2,8.2-0.3,8.5-0.3l1.4,0L44.2,31z M18.8,27.1L41,27.9l-0.4-8c-2,0.1-5.6,0.2-6.9,0.3
		c-1.5,0.1-5.8,1-6.8,1.2c-0.7,0.4-3.3,1.8-5.5,3.6C20.5,25.6,19.6,26.4,18.8,27.1z"/>
</g>
<g>
	<path fill="#62C5DC" d="M72.6,32.3l-26.4-1.4l0-1.4c0,0-0.1-2.9-0.3-5.6c-0.2-2.8-0.6-5.6-0.6-5.6L45,16.7l1.5-0.2
		c0.2,0,5.7-0.6,11.4-0.6c6,0,12,0.6,12.3,0.6l1.3,0.1L72.6,32.3z M49,28l20.3,1.1l-0.7-9.7c-2.1-0.2-6.5-0.5-10.7-0.5
		c-3.8,0-7.5,0.3-9.5,0.5c0.1,1.1,0.3,2.7,0.4,4.3C48.9,25.3,49,26.9,49,28z"/>
</g>
<g>
	<path fill="#62C5DC" d="M100.2,34.6l-24.1-2.2l-2.3-15.8l1.9,0.2c0.5,0,11.2,1.2,15.4,3c4.1,1.7,7.8,3.8,7.9,3.9l0.7,0.4
		L100.2,34.6z M78.8,29.7l18.3,1.6l-0.2-5.4c-1.3-0.7-4-2.1-6.9-3.3c-2.8-1.2-9.3-2.1-12.6-2.5L78.8,29.7z"/>
</g>
</svg>
