<?xml version="1.0" encoding="utf-8"?>
<!-- Generator: Adobe Illustrator 18.1.1, SVG Export Plug-In . SVG Version: 6.00 Build 0)  -->
<svg version="1.1" id="Layer_1" xmlns="http://www.w3.org/2000/svg" xmlns:xlink="http://www.w3.org/1999/xlink" x="0px" y="0px"
	 viewBox="0 0 65.8 84.2" enable-background="new 0 0 65.8 84.2" xml:space="preserve">
<path fill="#62C5DC" d="M34.3,84.2H15.7l-0.3-0.1c-0.2-0.1-5.7-2.5-9.4-5.9c-3.9-3.7-5.9-8.2-6-8.4L0,69.5v-8.5l0.1-0.2
	c0.1-0.3,2.9-7.9,6.8-14.9c4-7.1,8.9-13.5,9.1-13.7l0.4-0.6h11.9c-6.6-2-11.5-8.2-11.5-15.5C16.8,7.2,24,0,32.8,0s16,7.2,16,16.1
	c0,7.3-4.9,13.5-11.5,15.5h10.3l0.3,0.1C48.6,32,62.1,38.3,65.6,61c2.1,7.1-13.3,15.8-16.4,17.4c-0.1,0.1-2,1.2-4.4,1.2l0,0
	c-1.5,0-2.8-0.4-3.9-1.3c-0.4-0.3-0.7-0.6-1-0.9c0,3.7-4.7,6.4-5.2,6.7L34.3,84.2z M16.3,81.3h17.2c1.3-0.8,3.5-2.7,3.4-4.1
	c-0.1-1.8-1.8-3.6-2.5-4.3L15,71.6l8.2-8.2l-2.9-5c0-0.1-1-3.1,1.4-5.9c1-1.3,2.1-1.5,2.8-1.5c1.7,0,2.8,1.5,2.9,1.6
	c0,0,5.5,7.4,7.8,10c0.6,0.7,2,1.3,3.8,1.6c-3.8-1.6-6.4-5.3-6.4-9.7c0-5.8,4.7-10.5,10.4-10.5s10.4,4.7,10.4,10.5
	c0,4.6-2.9,8.5-7,9.9L40,70.8c0.2,1.2,0.9,3.7,2.7,5.1c0.6,0.5,1.3,0.7,2.2,0.7c1.5,0,2.9-0.8,2.9-0.8c7-3.7,16.2-10.5,15-14.1
	l-0.1-0.2c-3-19.6-13.9-26.1-15.7-27H17.9c-1.3,1.7-5.2,7.1-8.4,12.8c-3.4,6.1-6,12.9-6.5,14.2v7.3c0.4,0.9,2.2,4.4,5.1,7.2
	C10.9,78.7,15.2,80.8,16.3,81.3z M21.5,69.1l14.1,0.9l0.4,0.3c0.1,0.1,0.6,0.5,1.1,1.1c-0.1-0.6-0.1-0.9-0.2-1l-0.1-0.7l2.6-2.6
	c-2.5-0.2-5.2-0.9-6.7-2.7c-2.2-2.7-7.7-9.9-7.9-10.2c-0.2-0.2-0.4-0.4-0.5-0.4c0,0-0.3,0.1-0.6,0.5c-1.1,1.3-1,2.6-0.9,3l3.8,6.4
	L21.5,69.1z M42.9,47c-4.1,0-7.5,3.4-7.5,7.6s3.4,7.6,7.5,7.6s7.5-3.4,7.5-7.6S47.1,47,42.9,47z M32.8,2.9
	c-7.2,0-13.1,5.9-13.1,13.2s5.9,13.2,13.1,13.2S46,23.4,46,16.1S40.1,2.9,32.8,2.9z"/>
</svg>
