<?xml version="1.0" encoding="utf-8"?>
<!-- Generator: Adobe Illustrator 18.1.1, SVG Export Plug-In . SVG Version: 6.00 Build 0)  -->
<svg version="1.1" id="Layer_1" xmlns="http://www.w3.org/2000/svg" xmlns:xlink="http://www.w3.org/1999/xlink" x="0px" y="0px"
	 viewBox="0 0 73 77.9" enable-background="new 0 0 73 77.9" xml:space="preserve">
<path fill="#62C5DC" d="M61.5,76.5h-50C5.2,76.5,0,71.3,0,65V25c0-6.3,5.2-11.5,11.5-11.5h50C67.8,13.5,73,18.6,73,25v40
	C73,71.3,67.8,76.5,61.5,76.5z M11.5,16.5C6.8,16.5,3,20.3,3,25v40c0,4.7,3.8,8.5,8.5,8.5h50c4.7,0,8.5-3.8,8.5-8.5V25
	c0-4.7-3.8-8.5-8.5-8.5H11.5z"/>
<path fill="#62C5DC" d="M57,15h-3v-2c0-4.7-3.8-8.5-8.5-8.5h-20C20.8,4.5,17,8.3,17,13v2h-3v-2c0-6.3,5.2-11.5,11.5-11.5h20
	C51.8,1.5,57,6.6,57,13V15z"/>
<path fill="#62C5DC" d="M38.1,52.3c-0.5,0.5-1.2,0.7-2,0.7c-0.9,0-1.7-0.3-2.3-0.8c-0.6-0.6-0.9-1.5-0.9-2.8h-4.2l0,0.1
	c0,2.1,0.5,3.8,1.7,4.9c1.2,1.1,2.7,1.8,4.5,1.9v2.9h2.3v-2.9c1.8-0.2,3.2-0.8,4.3-1.8c1-1,1.6-2.4,1.6-4.1c0-1.7-0.5-3.1-1.6-4.1
	c-1-1-2.6-1.9-4.8-2.7c-1.2-0.5-2-0.9-2.4-1.4c-0.4-0.5-0.7-1.1-0.7-1.9c0-0.8,0.2-1.4,0.6-1.9c0.4-0.5,1-0.7,1.9-0.7
	c0.8,0,1.5,0.3,1.9,0.9c0.5,0.6,0.7,1.5,0.7,2.7H43l0-0.1c0-1.9-0.5-3.4-1.4-4.6c-1-1.2-2.3-1.9-4.1-2.2v-3.2h-2.3v3.1
	c-1.8,0.2-3.2,0.8-4.2,1.9c-1,1-1.6,2.4-1.6,4c0,1.8,0.5,3.1,1.6,4.1c1,1,2.7,1.9,4.8,2.6c1.1,0.4,1.9,0.9,2.3,1.4
	c0.5,0.5,0.7,1.1,0.7,1.9C38.8,51.2,38.6,51.8,38.1,52.3z"/>
</svg>
