<?xml version="1.0" encoding="utf-8"?>
<!-- Generator: Adobe Illustrator 18.1.1, SVG Export Plug-In . SVG Version: 6.00 Build 0)  -->
<svg version="1.1" id="Layer_1" xmlns="http://www.w3.org/2000/svg" xmlns:xlink="http://www.w3.org/1999/xlink" x="0px" y="0px"
	 viewBox="0 0 46.3 58.2" enable-background="new 0 0 46.3 58.2" xml:space="preserve">
<path fill="#FFFFFF" d="M23,34.4c2.4,0,2.8,2.7,2.8,4.4c0,1.9-1.6,4.7-2.8,4.7c-1.1,0-2.8-2.8-2.8-4.7C20.2,37.2,20.6,34.4,23,34.4
	 M23,32.5c-3.8,0-4.7,3.7-4.7,6.3c0,2.6,2.1,6.6,4.7,6.6s4.7-4,4.7-6.6C27.7,36.2,26.8,32.5,23,32.5L23,32.5z"/>
<path fill="#FFFFFF" d="M23.6,49.5c-0.1,0-0.2,0-0.3,0h-0.5c-2.3,0-5.3,0-6.8-1.5c-0.5-0.5-0.8-1.2-0.8-2c0-2.4,2.6-4.1,5-4.9
	l0.6,1.8c-1.8,0.6-3.7,1.7-3.7,3c0,0.3,0.1,0.5,0.3,0.7c0.9,0.9,3.8,0.9,5.4,0.9h0.5c1.7,0,4.8,0,5.8-0.9c0.2-0.2,0.2-0.4,0.2-0.6
	c0-1.3-2-2.5-4-3.1l0.5-1.9c2.6,0.8,5.4,2.5,5.4,4.9c0,0.8-0.3,1.4-0.8,2C28.9,49.5,25.9,49.5,23.6,49.5z"/>
<path fill="#FFFFFF" d="M40.9,21.1h-1.9v-7.2c0-6.6-5.3-11.9-11.9-11.9h-8.4c-6.6,0-11.9,5.3-11.9,11.9v7.2H4.8v-7.2
	C4.8,6.2,11,0,18.7,0H27c7.6,0,13.8,6.2,13.8,13.8V21.1z"/>
<path fill="#FFFFFF" d="M36.7,24.8c4.3,0,7.7,3.5,7.7,7.7v16.1c0,4.3-3.5,7.7-7.7,7.7h-27c-4.3,0-7.7-3.5-7.7-7.7V32.5
	c0-4.3,3.5-7.7,7.7-7.7H36.7 M36.7,22.8h-27c-5.3,0-9.7,4.3-9.7,9.7v16.1c0,5.3,4.3,9.7,9.7,9.7h27c5.3,0,9.7-4.3,9.7-9.7V32.5
	C46.3,27.2,42,22.8,36.7,22.8L36.7,22.8z"/>
</svg>
