<?xml version="1.0" encoding="utf-8"?>
<!-- Generator: Adobe Illustrator 18.1.1, SVG Export Plug-In . SVG Version: 6.00 Build 0)  -->
<svg version="1.1" id="Layer_1" xmlns="http://www.w3.org/2000/svg" xmlns:xlink="http://www.w3.org/1999/xlink" x="0px" y="0px"
	 viewBox="0 0 612 792" enable-background="new 0 0 612 792" xml:space="preserve">
<g>
	<path fill="#62C5DC" d="M484.3,670.7H134.4c-37.9,0-68.5-30.6-68.5-68.5V194.4c0-37.9,30.6-68.5,68.5-68.5h79.8v20h-79.8
		c-26.6,0-48.6,22-48.6,48.6v407.8c0,26.6,22,48.6,48.6,48.6h349.9c26.6,0,48.6-22,48.6-48.6V194.4c0-26.6-22-48.6-48.6-48.6H287.4
		v-20h196.9c37.9,0,68.5,30.6,68.5,68.5v407.8C552.8,640.1,521.5,670.7,484.3,670.7z"/>
</g>
<g>
	<path fill="#62C5DC" d="M307.3,320.8l-56.5-49.2l-56.5,49.2V135.9h20v141l36.6-31.9l36.6,31.9v-141h20c0,0,0,18.8,0,70.1
		S307.3,320.8,307.3,320.8z"/>
</g>
</svg>
