<?xml version="1.0" encoding="utf-8"?>
<!-- Generator: Adobe Illustrator 18.1.1, SVG Export Plug-In . SVG Version: 6.00 Build 0)  -->
<svg version="1.1" id="Layer_1" xmlns="http://www.w3.org/2000/svg" xmlns:xlink="http://www.w3.org/1999/xlink" x="0px" y="0px"
	 viewBox="0 0 612 792" enable-background="new 0 0 612 792" xml:space="preserve">
<g>
	<path fill="#62C5DC" d="M561.4,666.4h-420c-22.3,0-41.1-18.9-41.1-41.1V66.4c0-22.3,18-41.1,41.1-41.1H462l141.4,126.9v473.1
		C602.6,647.6,584.6,666.4,561.4,666.4z M141.4,49.3c-9.4,0-16.3,7.7-16.3,16.3v558.9c0,9.4,7.7,16.3,16.3,16.3h420.9
		c9.4,0,16.3-7.7,16.3-16.3v-462l-126-113.1H141.4z"/>
</g>
<g>
	<path fill="#62C5DC" d="M466.3,762.4H45.4c-22.3,0-41.1-18.9-41.1-41.1V162.4c0-22.3,18-41.1,41.1-41.1h66.9v24.9H45.4
		c-9.4,0-16.3,7.7-16.3,16.3v558.9c0,9.4,7.7,16.3,16.3,16.3h420.9c9.4,0,16.3-7.7,16.3-16.3v-67.7h24.9v67.7
		C507.4,743.6,488.6,762.4,466.3,762.4z"/>
</g>
<path fill="#62C5DC" d="M198.9,182.1V153h181.7v29.1c0,0-53.6,0-86.6,0S198.9,182.1,198.9,182.1z"/>
<path fill="#62C5DC" d="M198.9,326.1V297h306v29.1c0,0-198,0-162,0S198.9,326.1,198.9,326.1z"/>
<path fill="#62C5DC" d="M198.9,403.3v-29.1h306v29.1c0,0-204.9,0-163.7,0S198.9,403.3,198.9,403.3z"/>
<path fill="#62C5DC" d="M198.9,500.1V471h306v29.1c0,0-129.4,0-168.9,0S198.9,500.1,198.9,500.1z"/>
<g>
	<path fill="#62C5DC" d="M590.6,175.7c0,0-29-0.2-83.1-0.5c-54.1-0.3-72.9-0.4-72.9-0.4V37.3h24.9v113.5h131.1V175.7z"/>
</g>
</svg>
