<?xml version="1.0" encoding="utf-8"?>
<!-- Generator: Adobe Illustrator 18.1.1, SVG Export Plug-In . SVG Version: 6.00 Build 0)  -->
<svg version="1.1" id="Layer_1" xmlns="http://www.w3.org/2000/svg" xmlns:xlink="http://www.w3.org/1999/xlink" x="0px" y="0px"
	 viewBox="0 0 46.3 58.2" enable-background="new 0 0 46.3 58.2" xml:space="preserve">
<g>
	<path fill="#FFFFFF" d="M51.3,8.6c-0.4-2.2-1.4-4.3-2.9-6c0,0,0,0,0,0c-0.8-0.9-2.1-2.1-3.8-2.9l0,0c-1.7-0.8-3.4-1.2-5.3-1.2
		c-2.7,0-5.3,0.9-7.5,2.6c0,0,0,0,0,0c-1.9,1.5-3.1,3.5-3.2,3.8l0,0c0,0,0,0,0,0c-1,1.8-1.5,3.8-1.5,5.9c0,0.4,0,0.9,0.1,1.3
		c0,0.4,0.3,0.7,0.6,0.9c0.2,0.1,0.5,0.2,0.7,0.3c1,2.9,3,5.3,5.7,6.6c-1.1,0.6-2.2,1.4-3,2.3c-0.4,0.5-0.4,1.2,0.1,1.7
		c0.5,0.4,1.2,0.4,1.7-0.1c0.4-0.5,0.9-0.9,1.4-1.2c0.7,2,2.6,3.5,4.7,3.5H39c2.1,0,4-1.6,4.6-3.8c2.5,1.6,4.1,4.4,4.1,7.4v12.3
		l-10.8,7c-0.6,0.4-0.7,1.1-0.4,1.6c0.2,0.4,0.6,0.5,1,0.5c0.2,0,0.4-0.1,0.6-0.2l11.4-7.4c0.3-0.2,0.5-0.6,0.5-1v-13
		c0-4.2-2.4-8-6.1-9.9c3.5-1.8,6-5.3,6.3-9.4c0.3-0.3,0.6-0.7,0.9-1.1C51.3,9.1,51.4,8.8,51.3,8.6z M39,23.7h-0.2
		c-1.4,0-2.6-1.4-2.6-3c0,0,0,0,0-0.1c0.9,0.2,1.9,0.4,2.9,0.4c0.8,0,1.7-0.1,2.5-0.3C41.4,22.4,40.3,23.7,39,23.7z M39,18.7
		c-3.6,0-6.8-2.1-8.2-5.3c1.7-0.5,2.9-1.9,3.2-3.6c0.7,0.1,1.4,0.1,2.2,0.1c2.4,0,4.7-0.5,6.8-1.5c0.5,1.8,2.2,3.2,4.3,3.2
		c0.1,0,0.3,0,0.4,0C46.9,15.6,43.3,18.7,39,18.7z M47.3,9.2c-1.1,0-2.1-0.9-2.1-2.1V6.5c0-0.4-0.2-0.8-0.6-1
		c-0.4-0.2-0.8-0.2-1.2,0c-2.1,1.3-4.6,2-7.2,2c-1,0-2-0.1-3-0.3c-0.4-0.1-0.7,0-1,0.2c-0.3,0.2-0.4,0.6-0.4,0.9v0.7
		c0,1.1-0.9,2.1-2.1,2.1c-0.1,0-0.2,0-0.2,0c0,0,0,0-0.1,0c0,0-0.1,0-0.1,0c0-0.1,0-0.2,0-0.3c0-1.6,0.4-3.3,1.2-4.7c0,0,0,0,0,0
		c0,0,1.1-1.9,2.6-3.1c0,0,0,0,0,0c1.7-1.4,3.8-2.1,6.1-2.1c1.5,0,2.9,0.3,4.3,1c0,0,0.1,0,0.1,0c1.3,0.6,2.3,1.5,3,2.2c0,0,0,0,0,0
		c1.1,1.2,1.9,2.7,2.3,4.4C48.5,9,47.9,9.2,47.3,9.2z M28.9,39.6c2.7-1.6,4.5-4.5,4.5-7.9c0-1.5-0.4-2.9-1-4.2c0-0.1,0-0.1-0.1-0.1
		c-1.5-2.8-4.6-4.8-8-4.8c-3.5,0-6.5,1.9-8,4.8c0,0-0.1,0.1-0.1,0.1c-0.7,1.3-1,2.7-1,4.2c0,3.3,1.8,6.3,4.5,7.9
		c-3.3,1.7-5.4,5.1-5.4,8.9v4.3c0,0.4,0.2,0.8,0.6,1l8.9,5.6c0.2,0.1,0.4,0.2,0.6,0.2c0.2,0,0.4-0.1,0.6-0.2l8.9-5.6
		c0.3-0.2,0.6-0.6,0.6-1l0-4.4C34.3,44.8,32.2,41.4,28.9,39.6z M24.3,25c2.1,0,3.9,0.9,5.2,2.4c-1.6,0.5-3.4,0.7-5.2,0.7
		c-1.8,0-3.6-0.2-5.2-0.7C20.4,26,22.2,25,24.3,25z M17.6,31.8c0-0.8,0.1-1.5,0.4-2.2c2,0.6,4.1,1,6.4,1c2.2,0,4.4-0.3,6.4-1
		c0.2,0.7,0.4,1.4,0.4,2.2c0,3.7-3,6.7-6.7,6.7S17.6,35.5,17.6,31.8z M26.4,40.6c-0.1,1.1-1.1,1.9-2,1.9h-0.1c-0.9,0-2-0.8-2.1-1.9
		c0.7,0.2,1.4,0.3,2.2,0.3C25,40.9,25.7,40.8,26.4,40.6z M24.3,57.1l-7.7-4.9v-3.7c0-2.6,1.3-5,3.5-6.4c0.7,1.7,2.5,2.7,4.2,2.7h0.1
		c1.8,0,3.4-1.2,4.1-2.8c2.2,1.4,3.5,3.8,3.5,6.5l0,3.7L24.3,57.1z M15.8,25.2c0.3-0.6,0.2-1.3-0.4-1.6c-0.4-0.2-0.7-0.4-1.1-0.6
		c1.5-0.8,2.8-1.8,3.8-3.2c0.4,0.1,0.9,0.2,1.4,0.2c2.3,0,4.1-1.9,4.1-4.1v-3c0-3.8-1.4-7.3-4-10c-2.6-2.7-6.1-4.3-9.8-4.4
		c0,0,0,0,0,0c-0.3,0-0.6,0-0.9,0C5.1-1.4,1.5,0.1-1.1,2.7c-2.7,2.7-4.2,6.3-4.2,10.2v3c0,2.3,1.9,4.1,4.1,4.1
		c0.5,0,0.9-0.1,1.4-0.2c1.1,1.5,2.6,2.6,4.3,3.4c-3.7,1.9-5.9,5.7-5.9,9.8v9.7c0,0.4,0.2,0.8,0.5,1l10.8,7c0.2,0.1,0.4,0.2,0.6,0.2
		c0.4,0,0.8-0.2,1-0.5c0.4-0.6,0.2-1.3-0.4-1.6L0.9,42.1V33c0-2.8,1.3-5.3,3.4-6.9C5,28.2,6.9,29.8,9,29.8h0.2
		c2.3,0,4.1-2.1,4.7-4.3c0.1,0,0.1,0.1,0.2,0.1C14.7,26,15.4,25.8,15.8,25.2z M1.8,8.6C1,9.9,0.6,11.4,0.6,12.9v3
		c0,0.6-0.3,1.1-0.7,1.4c0,0-0.1,0-0.1,0.1c-0.3,0.2-0.6,0.3-1,0.3c-1,0-1.8-0.8-1.8-1.8v-3C-2.9,6.3,2.2,1,8.8,0.9
		c0.2,0,0.5,0,0.8,0c6.5,0.3,11.6,5.5,11.6,12v3c0,1-0.8,1.8-1.8,1.8c-0.4,0-0.7-0.1-1-0.3c0,0-0.1-0.1-0.1-0.1
		c-0.4-0.3-0.7-0.8-0.7-1.4v-3c0-4.2-3.1-7.8-7.3-8.4c-0.3,0-0.7,0-0.9,0.2C9.2,5,9,5.3,9,5.6C9,6.4,8.8,7.2,8.6,8H2.8
		C2.4,8,2,8.3,1.8,8.6z M9.2,27.5H9c-1.3,0-2.7-1.6-2.7-3.3c0-0.1,0-0.2,0-0.3c0.9,0.2,1.8,0.3,2.8,0.3c0.9,0,1.8-0.1,2.7-0.3
		C11.7,25.6,10.4,27.5,9.2,27.5z M9.1,21.8c-2.8,0-5.3-1.3-7-3.4C2.6,17.7,3,16.8,3,15.9v-3c0-0.9,0.2-1.7,0.5-2.5h5.9
		c0.5,0,0.9-0.3,1.1-0.8c0.3-0.8,0.5-1.6,0.7-2.5c2.4,0.9,4.1,3.2,4.1,5.8v3c0,0.9,0.3,1.8,0.9,2.5C14.5,20.6,11.9,21.8,9.1,21.8z"
		/>
</g>
</svg>
