<?xml version="1.0" encoding="utf-8"?>
<!-- Generator: Adobe Illustrator 18.1.1, SVG Export Plug-In . SVG Version: 6.00 Build 0)  -->
<svg version="1.1" id="Layer_1" xmlns="http://www.w3.org/2000/svg" xmlns:xlink="http://www.w3.org/1999/xlink" x="0px" y="0px"
	 viewBox="0 0 51.6 82" enable-background="new 0 0 51.6 82" xml:space="preserve">
<path fill-rule="evenodd" clip-rule="evenodd" fill="none" stroke="#62C5DC" stroke-width="3" stroke-miterlimit="10" d="M22.6,42.9
	c-9.9-1.5-17.5-10-17.5-20.3c0-11.3,9.2-20.5,20.5-20.5c11.3,0,20.5,9.2,20.5,20.5c0,10.3-7.5,18.8-17.4,20.3"/>
<path fill-rule="evenodd" clip-rule="evenodd" fill="none" stroke="#62C5DC" stroke-width="3" stroke-miterlimit="10" d="M30.1,61.6
	V77c0,1.7-2.3,3-4,3h-1c-1.7,0-4-1.3-4-3V61.7"/>
<path fill-rule="evenodd" clip-rule="evenodd" fill="none" stroke="#62C5DC" stroke-width="3" stroke-miterlimit="10" d="M21.1,55.6
	v-13 M30.1,42.6v13"/>
<path fill-rule="evenodd" clip-rule="evenodd" fill="none" stroke="#62C5DC" stroke-width="3" stroke-miterlimit="10" d="M21.1,63.1
	h-14c-1.7,0-3-2.3-3-4v-1c0-1.7,1.3-4,3-4h14"/>
<path fill-rule="evenodd" clip-rule="evenodd" fill="none" stroke="#62C5DC" stroke-width="3" stroke-miterlimit="10" d="M30.1,54.1
	h14c1.7,0,3,2.3,3,4v1c0,1.7-1.3,4-3,4h-14"/>
<path fill-rule="evenodd" clip-rule="evenodd" fill="none" stroke="#62C5DC" stroke-width="3" stroke-miterlimit="10" d="M25.6,11.1
	c6.4,0,11.5,5.1,11.5,11.5c0,6.4-5.1,11.5-11.5,11.5c-6.4,0-11.5-5.1-11.5-11.5C14.1,16.3,19.3,11.1,25.6,11.1z"/>
</svg>
