<?xml version="1.0" encoding="utf-8"?>
<!-- Generator: Adobe Illustrator 18.1.1, SVG Export Plug-In . SVG Version: 6.00 Build 0)  -->
<svg version="1.1" id="Layer_1" xmlns="http://www.w3.org/2000/svg" xmlns:xlink="http://www.w3.org/1999/xlink" x="0px" y="0px"
	 viewBox="0 0 81.4 82" enable-background="new 0 0 81.4 82" xml:space="preserve">
<path fill="#62C5DC" d="M47.7,81.5H33.7c-5.6,0-10.2-4.6-10.2-10.2V56.5h3v14.7c0,4,3.2,7.2,7.2,7.2h13.9c4,0,7.2-3.2,7.2-7.2V56.5
	h3v14.7C57.9,76.9,53.3,81.5,47.7,81.5z M26.5,26.6h-3V10.3c0-5.6,4.6-10.2,10.2-10.2h13.9c5.6,0,10.2,4.6,10.2,10.2v16.2h-3V10.3
	c0-4-3.2-7.2-7.2-7.2H33.7c-4,0-7.2,3.2-7.2,7.2V26.6z"/>
<path fill="#62C5DC" d="M71.2,58H54.9v-3h16.3c4,0,7.2-3.2,7.2-7.2V33.8c0-4-3.2-7.2-7.2-7.2H56.4v-3h14.8c5.6,0,10.2,4.6,10.2,10.2
	v13.9C81.4,53.4,76.8,58,71.2,58z M26.4,58H10.2C4.6,58,0,53.4,0,47.8V33.8c0-5.6,4.6-10.2,10.2-10.2H25v3H10.2
	c-4,0-7.2,3.2-7.2,7.2v13.9c0,4,3.2,7.2,7.2,7.2h16.2V58z"/>
</svg>
