<?xml version="1.0" encoding="utf-8"?>
<!-- Generator: Adobe Illustrator 18.1.1, SVG Export Plug-In . SVG Version: 6.00 Build 0)  -->
<svg version="1.1" id="Layer_1" xmlns="http://www.w3.org/2000/svg" xmlns:xlink="http://www.w3.org/1999/xlink" x="0px" y="0px"
	 viewBox="0 0 80 53" enable-background="new 0 0 80 53" xml:space="preserve">
<path fill-rule="evenodd" clip-rule="evenodd" fill="#FFFFFF" d="M34.8,2.6c0,0,1.4-2.8,6.2-2.6c4.8,0.2,6.5,4.5,6.6,5.2
	c1.5,4.7-6,15.1-12.9,17.2C27.5,20,19.8,10,21.6,5.2c-0.1-1,2.2-5.1,6.3-5.2C32.7,0.1,34.8,2.6,34.8,2.6z"/>
<path fill-rule="evenodd" clip-rule="evenodd" fill="#FFFFFF" d="M73,50.8c0,0-6.1-6.1-12.1-6.7c-6.1-0.6-19.4,2.3-20.6,2.6
	c-1.2,0.3-2.2,1-5.1,1.1C29.4,48,17,37.4,14.1,35C5.8,28.2,4.2,24.8,2.6,21.8c0.2,0.3-0.3-1,0.2-1.2c1.4-1.2,3.9,0.3,5.2,0.5
	c1.3,0.2,2.8-0.1,2.8-0.1l8.5,6.7c0,0-5.1,1.7-3.3,6c0.5,1.8,2.3,2.9,3.3,3.4c1,0.5,7.3-0.4,10.7-0.4c6,0.3,10.7,1.9,10.7,1.9H44
	c0,0,1.9,0.1,2.6-1.1c0.7-1.2-0.7-1.9-0.7-1.9S33.5,34.1,30.4,34c-3.1-0.1-9.6,0.7-9.6,0.7s-2.1-0.1-2.6-2.2
	c-0.4-2.2,1.5-2.6,1.5-2.6s-0.5-1,21.3-1.5c1.8-0.4,4.5-2.3,9.9-2.6c10.2-0.4,16.2,7.6,16.9,8.2c0.8,0.6,11,6,11,6l1.1-2.2
	c0,0-8.7-4.4-10.3-5.6c-1.8-0.9-5.1-8-18.1-8.4c-5.8,0.3-9.9,2-12.5,2.3c-2.6,0.3-14.8,1.3-16.2,0.9c-1.3-0.4-1.5-1.4-2.2-1.9
	c-0.7-0.5-1.2-0.3-2.6-1.5c-1.3-1.2-5.1-3.7-5.5-4.1c-0.4-0.5-4.5-1-3.7-0.7c0.8,0.3-2.2-1-5.5-1.1c-3.3-0.1-3.6,2.5-3.5,3
	c4.1,9.6,11,14.9,13.1,16.8c2.1,1.9,15.7,11.4,17.6,12.3c2,0.9,1.9,0.7,4,0.9c1.9,0.2,2.9,0.1,5.6-1.2c2.7-1.3,16.4-3.7,20.1-2.8
	c5,0.2,11.2,6.5,11.2,6.5L73,50.8z"/>
</svg>
