<?xml version="1.0" encoding="utf-8"?>
<!-- Generator: Adobe Illustrator 18.1.1, SVG Export Plug-In . SVG Version: 6.00 Build 0)  -->
<svg version="1.1" id="Layer_1" xmlns="http://www.w3.org/2000/svg" xmlns:xlink="http://www.w3.org/1999/xlink" x="0px" y="0px"
	 viewBox="0 0 103.9 82.6" enable-background="new 0 0 103.9 82.6" xml:space="preserve">
<g>
	<path fill="#62C5DC" d="M70.4,79.7L70.4,79.7c-3,0-8.6-2.2-12.9-16.6H38.9l0,9.9c-0.1,0.5-0.7,2.8-2.1,3.9c-1.3,1-4,1.7-4.5,1.9
		l-0.3,0H6.7l-0.2-0.1c-2.3-0.6-6.7-3.4-6.5-9.3c0.2-5.8,4.3-8.5,6.5-9.2l0.2-0.1H17c-2.4-3-5.8-8.4-6.1-15
		c0.3-15.4,15.2-17.2,15.4-17.2l0.2,0h32.3l0.2,0c0.2,0,4.7,1.1,7,3.5c2.1,2.2,2.6,4.7,2.7,5.4l10.9,32.9c0.1,0.2,0.9,3.3-0.9,6.1
		c-1.4,2-3.8,3.3-7.3,3.7C71.2,79.7,70.9,79.7,70.4,79.7z M36,60.3h23.7l0.3,1c4.2,14.8,9.4,15.5,10.4,15.5l0,0c0.2,0,0.4,0,0.4,0
		l0.2,0c2.6-0.3,4.4-1.1,5.3-2.4c1.1-1.6,0.6-3.6,0.6-3.6l-11-33.1l0-0.1c0,0-0.3-2.1-2-3.9c-1.4-1.4-4.2-2.4-5.4-2.7H26.6
		c-1.1,0.1-12.5,1.9-12.8,14.3c0.3,8.7,7.3,15.3,7.4,15.4l2.6,2.5H7.2C6.4,63.4,3,65,2.9,69.6c-0.1,4.5,3.4,6.1,4.3,6.4h24.7
		c1.1-0.3,2.6-0.8,3.2-1.2c0.4-0.4,0.9-1.5,1-2.2V60.3z"/>
</g>
<g>
	<path fill="#62C5DC" d="M85.3,41.2C75,41.2,66.6,32.6,66.6,22S75,2.9,85.3,2.9s18.7,8.6,18.7,19.1S95.5,41.2,85.3,41.2z M85.3,5.8
		c-8.7,0-15.8,7.3-15.8,16.2s7.1,16.2,15.8,16.2S101.1,31,101.1,22S94,5.8,85.3,5.8z"/>
</g>
</svg>
