<?xml version="1.0" encoding="utf-8"?>
<!-- Generator: Adobe Illustrator 18.1.1, SVG Export Plug-In . SVG Version: 6.00 Build 0)  -->
<svg version="1.1" id="Layer_1" xmlns="http://www.w3.org/2000/svg" xmlns:xlink="http://www.w3.org/1999/xlink" x="0px" y="0px"
	 viewBox="0 0 96 49.5" enable-background="new 0 0 96 49.5" xml:space="preserve">
<g>
	<path fill="#FFFFFF" d="M21,19.3l-2.2-2.1c1.5-1.6,2.4-3.7,2.4-5.9C21.3,6.8,17.5,3,13,3s-8.3,3.8-8.3,8.4c0,2.2,0.8,4.2,2.3,5.8
		l-2.2,2.1c-2-2.1-3.1-4.9-3.1-7.8C1.7,5.1,6.7,0,13,0s11.3,5.1,11.3,11.4C24.3,14.4,23.1,17.2,21,19.3z"/>
</g>
<g>
	<path fill="#FFFFFF" d="M24.7,46H1.2L1,44.8C0.8,43.9-3.1,23,6.1,16.1l1.8,2.4C1.9,23,2.7,36.7,3.7,43h18.5
		c0.7-4.4,2.5-19.5-4.2-24.6l1.8-2.4c9.3,7,5.3,27.9,5.1,28.7L24.7,46z"/>
</g>
<g>
	<path fill="#FFFFFF" d="M56.1,19.3l-2.2-2.1c1.5-1.6,2.4-3.7,2.4-5.9C56.3,6.8,52.5,3,48,3s-8.3,3.8-8.3,8.4c0,2.2,0.8,4.2,2.3,5.8
		l-2.2,2.1c-2-2.1-3.1-4.9-3.1-7.8C36.7,5.1,41.7,0,48,0s11.3,5.1,11.3,11.4C59.3,14.4,58.1,17.2,56.1,19.3z"/>
</g>
<g>
	<path fill="#FFFFFF" d="M59.7,46H36.2L36,44.8c-0.2-0.9-4.1-21.8,5.1-28.7l1.8,2.4c-6,4.5-5.2,18.3-4.2,24.6h18.5
		c0.7-4.4,2.5-19.5-4.2-24.6l1.8-2.4c9.3,7,5.3,27.9,5.1,28.7L59.7,46z"/>
</g>
<g>
	<path fill="#FFFFFF" d="M91.1,19.3l-2.2-2.1c1.5-1.6,2.4-3.7,2.4-5.9C91.3,6.8,87.6,3,83,3c-4.6,0-8.3,3.8-8.3,8.4
		c0,2.2,0.8,4.2,2.3,5.8l-2.2,2.1c-2-2.1-3.1-4.9-3.1-7.8C71.7,5.1,76.8,0,83,0c6.2,0,11.3,5.1,11.3,11.4
		C94.3,14.4,93.2,17.2,91.1,19.3z"/>
</g>
<g>
	<path fill="#FFFFFF" d="M94.7,46H71.2L71,44.8c-0.2-0.9-4.1-21.8,5.1-28.7l1.8,2.4c-6,4.5-5.2,18.3-4.2,24.6h18.5
		c0.7-4.4,2.5-19.5-4.2-24.6l1.8-2.4c9.3,7,5.3,27.9,5.1,28.7L94.7,46z"/>
</g>
<path fill-rule="evenodd" clip-rule="evenodd" fill="#FFFFFF" d="M63.1,1.5l2.5,1.7L31.9,47.5l-2.5-1.7c0,0,9.7-12.6,14.1-18.7
	C47.8,21.3,63.1,1.5,63.1,1.5z"/>
<path fill-rule="evenodd" clip-rule="evenodd" fill="#FFFFFF" d="M28.3,4l2.3-1.9c0,0,13.8,16.5,17.3,20.6
	C51.5,26.9,66.6,45,66.6,45l-2.3,1.9L28.3,4z"/>
</svg>
