<?xml version="1.0" encoding="utf-8"?>
<!-- Generator: Adobe Illustrator 18.1.1, SVG Export Plug-In . SVG Version: 6.00 Build 0)  -->
<svg version="1.1" id="Layer_1" xmlns="http://www.w3.org/2000/svg" xmlns:xlink="http://www.w3.org/1999/xlink" x="0px" y="0px"
	 viewBox="0 0 68.2 82.6" enable-background="new 0 0 68.2 82.6" xml:space="preserve">
<path fill="#62C5DC" d="M27.3,6.8C27.1,7.4,27,8,27,8.7c0,4,2.7,7.2,3.8,8.4c2,2.1,6.3,3.8,7.1,4.1l0.2,0.1l0.2,0
	c0.1,0,11,2.5,16.7,9.9c5.7,7.5,5.4,20.1,5.4,20.2l-0.2,3.9l3.8-0.9c0,0,0.1,0,0.3,0c0.7,0,0.9,0,0.9,1c0,0.6-0.6,2.8-1.5,4
	c-1,1.3-1.7,1.9-2.1,2.1l-3.2-3.3L56.8,63c-0.1,0.2-5.9,16.7-21.7,16.7c-0.2,0-0.4,0-0.7,0c-16.4-0.5-22.8-15.7-23-16.4l-1.6-4
	l-2.8,2.6c0,0,0,0,0,0c0,0,0,0,0,0c-0.6-0.3-1.9-1.7-2.7-2.9c-0.5-0.7-0.8-2.2-0.8-2.8l0,0c0-0.9,0.1-1.3,0.2-1.4
	c0.1-0.1,0.3-0.2,0.8-0.2c0.1,0,0.2,0,0.2,0l4.3,0.9l-0.8-4.4C8,51,6.6,42.4,12,33.6c5.4-8.7,13.2-11,13.2-11l4.2-1.1L26.9,18
	c0,0-1.5-2.2-1.6-5.1C25.3,10,26.5,7.9,27.3,6.8 M33.5,0.2C33.5,0.2,33.4,0.2,33.5,0.2c-5.3,0-7.8,3.8-7.8,3.8s-3.4,3.4-3.4,8.9
	c0.1,4,2.1,6.8,2.1,6.8s-8.9,2.4-15,12.3C3.3,42,5.1,51.6,5.1,51.6s-0.3-0.1-0.7-0.1c-1.4,0-4.2,0.5-4,4.7c0,0.3,0.3,2.8,1.3,4.3
	c0.9,1.5,3.2,4.1,4.7,4.3c0.2,0,0.3,0,0.5,0c1.2,0,1.7-0.4,1.7-0.4s7.1,17.7,25.7,18.3c0.3,0,0.5,0,0.8,0
	c18.1,0,24.6-18.7,24.6-18.7s0.9,0.9,2.1,0.9c0,0,0.1,0,0.1,0c1.2,0,2.7-1.3,4.3-3.4c1.6-2.1,2.2-5.2,2.1-6
	c-0.2-3.4-2.6-3.9-3.9-3.9c-0.5,0-0.8,0.1-0.8,0.1s0.4-13.7-6-22.1S39,18.5,39,18.5s-4.4-1.7-6-3.4c-1.6-1.7-3-4.1-3-6.4
	c0-2.1,1.8-3.4,3.1-3.4c0.1,0,0.2,0,0.3,0C34.8,5.5,35.6,6,36,7c0.4,0.9-0.4,2.1-0.4,2.1s0.7,2.1,2.8,2.1c0.1,0,0.2,0,0.2,0
	c2.2-0.2,2.6-3.8,2.6-3.8S40.8,4.8,39,2.7C37.8,1.3,35.6,0.2,33.5,0.2L33.5,0.2z"/>
</svg>
