<?xml version="1.0" encoding="utf-8"?>
<!-- Generator: Adobe Illustrator 18.1.1, SVG Export Plug-In . SVG Version: 6.00 Build 0)  -->
<svg version="1.1" id="Layer_1" xmlns="http://www.w3.org/2000/svg" xmlns:xlink="http://www.w3.org/1999/xlink" x="0px" y="0px"
	 viewBox="0 0 86.6 77.9" enable-background="new 0 0 86.6 77.9" xml:space="preserve">
<g>
	<path fill="#62C5DC" d="M14.6,77.9c-0.6,0-1.8-0.1-2.8-1c-1.2-1.1-1.3-2.5-1.3-2.7l0-0.1V45.6l-7.5,0c-0.3-0.1-2.1-0.5-2.8-2
		c-0.8-1.7,0.6-3.5,0.8-3.7L38.5,2.3c0.4-0.5,2.2-2.4,5-2.3c2.4,0.1,4,1.4,4.6,2.3l11.4,11.2v-12h12.1v24.2l14.3,14.7l0.1,0.2
		c0.3,0.6,1,2.1,0.3,3.2c-0.5,0.8-1.7,1.5-2,1.7l-0.3,0.2h-7.8l0,28.6c-0.1,1.5-0.6,2.5-1.3,2.9c-0.6,0.3-1.7,0.6-2.2,0.7l-0.4,0
		h-21V49.2H35.4v28.7H15C14.9,77.9,14.8,77.9,14.6,77.9z M13.4,74c0,0.1,0.1,0.5,0.4,0.9c0.1,0.1,0.4,0.2,0.8,0.2c0.1,0,0.1,0,0.1,0
		l0.2,0h17.6V46.3h21.6V75h18c0.4-0.1,0.7-0.2,1-0.3c0.1-0.2,0.1-0.5,0.1-0.7V42.7h10c0.2-0.1,0.4-0.3,0.5-0.4
		c0-0.1-0.1-0.2-0.1-0.3L68.7,26.8V4.4h-6.3v16L45.8,4c0,0-0.8-1.1-2.4-1.1l-0.2,0c-1.5,0-2.4,1.2-2.4,1.2l-0.1,0.2L3.2,41.9
		c-0.1,0.2-0.3,0.4-0.3,0.6c0.1,0.1,0.4,0.2,0.6,0.3h9.9V74z"/>
</g>
</svg>
