<?xml version="1.0" encoding="utf-8"?>
<!-- Generator: Adobe Illustrator 14.0.0, SVG Export Plug-In  -->
<!DOCTYPE svg PUBLIC "-//W3C//DTD SVG 1.1//EN" "http://www.w3.org/Graphics/SVG/1.1/DTD/svg11.dtd" [
	<!ENTITY ns_flows "http://ns.adobe.com/Flows/1.0/">
]>
<svg version="1.1"
	 xmlns="http://www.w3.org/2000/svg" xmlns:xlink="http://www.w3.org/1999/xlink" xmlns:a="http://ns.adobe.com/AdobeSVGViewerExtensions/3.0/"
	 x="0px" y="0px" width="933px" height="378px" viewBox="0 0 933 378" enable-background="new 0 0 933 378" xml:space="preserve">
<defs>
</defs>
<path fill="#FFFFFF" d="M27.4,33.2l-2.9-2.7c1.9-2.1,3.1-4.9,3.1-7.7c0.1-5.9-4.9-10.8-10.7-10.8c-5.9,0-10.8,4.9-10.8,11
	c0,2.9,1,5.5,3,7.6l-2.9,2.7c-2.6-2.7-4-6.4-4-10.2c0-8.4,6.5-15,14.7-15c8.2,0,14.7,6.7,14.7,14.8C31.7,26.8,30.1,30.4,27.4,33.2z"
	/>
<path fill="#FFFFFF" d="M32.2,68H1.6l-0.3-1.6C1,65.2-4.1,38,8,29l2.3,3.1c-7.8,5.9-6.8,23.7-5.5,32h24.1c0.9-5.7,3.2-25.4-5.5-32.1
	l2.3-3.1c12.1,9.1,6.9,36.4,6.7,37.4L32.2,68z"/>
<path fill="#FFFFFF" d="M73.2,33.2l-2.9-2.7c1.9-2.1,3.1-4.9,3.1-7.7c0-5.9-4.9-10.8-10.8-10.8s-10.8,4.9-10.8,11c0,2.9,1,5.5,3,7.6
	l-2.9,2.7c-2.6-2.7-4-6.4-4-10.2c0-8.4,6.5-15,14.7-15c8.2,0,14.7,6.7,14.7,14.8C77.3,26.8,75.8,30.4,73.2,33.2z"/>
<path fill="#FFFFFF" d="M77.9,68H47.2l-0.3-1.6C46.7,65.2,41.6,38,53.6,29l2.3,3.1C48.1,38,49.1,56,50.4,64.2h24.1
	c0.9-5.7,3.2-25.4-5.5-32.1l2.3-3.1c12.1,9.1,6.9,36.4,6.7,37.4L77.9,68z"/>
<path fill="#FFFFFF" d="M118.8,33.2l-2.9-2.7c1.9-2.1,3.1-4.9,3.1-7.7c0-5.9-4.9-10.8-10.8-10.8c-6,0-10.8,4.9-10.8,11
	c0,2.9,1,5.5,3,7.6l-2.9,2.7c-2.6-2.7-4-6.4-4-10.2c0-8.4,6.7-15,14.7-15S123,14.7,123,22.8C123,26.8,121.6,30.4,118.8,33.2z"/>
<path fill="#FFFFFF" d="M123.5,68H92.8l-0.3-1.6C92.3,65.2,87.2,38,99.3,29l2.3,3.1C93.7,38,94.8,56,96.1,64.2h24.1
	c0.9-5.7,3.2-25.4-5.5-32.1L117,29c12.1,9.1,6.9,36.4,6.7,37.4L123.5,68z"/>
<path fill="#FFFFFF" d="M82.3,9.9l3.2,2.2l-44,57.8l-3.2-2.2c0,0,12.6-16.5,18.4-24.4C62.3,35.8,82.3,9.9,82.3,9.9z"/>
<path fill="#FFFFFF" d="M36.9,13.3l3-2.5c0,0,18,21.5,22.6,26.8c4.7,5.5,24.4,29.1,24.4,29.1l-3,2.5L36.9,13.3z"/>
<path fill="#FFFFFF" d="M312.3,12.2c0,0,1.6-3.2,7-2.9c5.4,0.2,7.4,5.1,7.5,5.9c1.7,5.3-6.8,17.1-14.7,19.5
	c-8.2-2.7-16.9-14.1-14.8-19.5c-0.1-1.1,2.5-5.8,7.1-5.9C309.9,9.4,312.3,12.2,312.3,12.2z"/>
<path fill="#FFFFFF" d="M355.6,66.8c0,0-6.9-6.9-13.7-7.6c-6.9-0.7-22,2.6-23.3,2.9s-2.5,1.1-5.8,1.2c-6.5,0.2-20.6-11.8-23.9-14.5
	c-9.4-7.7-11.2-11.5-13-15c0.2,0.3-0.3-1.2,0.2-1.4c1.6-1.4,4.4,0.3,5.9,0.6c1.5,0.2,3.2-0.1,3.2-0.1l9.7,7.6c0,0-5.8,1.9-3.8,6.8
	c0.6,2.1,2.6,3.3,3.8,3.8c1.2,0.6,8.3-0.5,12.1-0.5c6.8,0.3,12.1,2.1,12.1,2.1h3.8c0,0,2.1,0.1,2.9-1.2c0.8-1.4-0.8-2.1-0.8-2.1
	s-14.1-1.7-17.6-1.8s-10.9,0.8-10.9,0.8s-2.4-0.1-2.9-2.5c-0.5-2.5,1.7-2.9,1.7-2.9s-0.6-1.1,24.1-1.7c2.1-0.5,5.1-2.6,11.2-2.9
	c11.5-0.5,18.3,8.6,19.2,9.3c0.9,0.7,12.4,6.8,12.4,6.8l1.2-2.5c0,0-9.9-5-11.7-6.4c-2.1-1-5.8-9.1-20.6-9.5
	c-6.5,0.3-11.2,2.3-14.2,2.6c-2.9,0.3-16.8,1.5-18.3,1c-1.5-0.5-1.7-1.6-2.5-2.1c-0.8-0.6-1.4-0.3-2.9-1.7c-1.5-1.4-5.8-4.2-6.2-4.7
	c-0.5-0.6-5.1-1.1-4.2-0.8s-2.5-1.2-6.2-1.2c-3.8-0.1-4.1,2.9-4,3.4c4.7,10.9,12.4,16.9,14.8,19.1c2.4,2.1,17.8,12.9,20,13.9
	c2.3,1,2.1,0.8,4.5,1c2.1,0.2,3.3,0.1,6.4-1.4c3-1.5,18.6-4.2,22.8-3.2c5.7,0.2,12.7,7.4,12.7,7.4L355.6,66.8z"/>
<path fill="#FFFFFF" d="M189,47.1c3.3,0,3.8,3.7,3.8,6c0,2.6-2.2,6.4-3.8,6.4c-1.5,0-3.8-3.8-3.8-6.4
	C185.2,50.8,185.8,47.1,189,47.1 M189,44.5c-5.2,0-6.4,5.1-6.4,8.6c0,3.6,2.9,9,6.4,9s6.4-5.4,6.4-9C195.5,49.5,194.2,44.5,189,44.5
	L189,44.5z"/>
<path fill="#FFFFFF" d="M189.9,67.6c-0.1,0-0.3,0-0.4,0h-0.7c-3.1,0-7.3,0-9.3-2.1c-0.7-0.7-1.1-1.6-1.1-2.7c0-3.3,3.6-5.6,6.8-6.7
	l0.8,2.5c-2.5,0.8-5.1,2.3-5.1,4.1c0,0.4,0.1,0.7,0.4,1c1.2,1.2,5.2,1.2,7.4,1.2h0.7c2.3,0,6.5,0,7.9-1.2c0.3-0.3,0.3-0.5,0.3-0.8
	c0-1.8-2.7-3.4-5.4-4.2l0.7-2.6c3.6,1.1,7.4,3.4,7.4,6.7c0,1.1-0.4,1.9-1.1,2.7C197.1,67.6,193.1,67.6,189.9,67.6z"/>
<path fill="#FFFFFF" d="M213.5,28.8h-2.6V19c0-9-7.3-16.3-16.3-16.3h-11.5c-9,0-16.3,7.3-16.3,16.3v9.9h-2.7V19c0-10.5,8.5-19,19-19
	h11.3c10.4,0,18.9,8.5,18.9,18.9v10H213.5z"/>
<path fill="#FFFFFF" d="M207.8,33.9c5.9,0,10.5,4.8,10.5,10.5v22c0,5.9-4.8,10.5-10.5,10.5h-36.9c-5.9,0-10.5-4.8-10.5-10.5v-22
	c0-5.9,4.8-10.5,10.5-10.5H207.8 M207.8,31.2h-36.9c-7.3,0-13.2,5.9-13.2,13.2v22c0,7.3,5.9,13.2,13.2,13.2h36.9
	c7.3,0,13.2-5.9,13.2-13.2v-22C220.9,37.2,215,31.2,207.8,31.2L207.8,31.2z"/>
<path id="Family_1_" fill="#FFFFFF" d="M475.7,13.7c-0.5-2.9-1.8-5.5-3.8-7.7l0,0c-1-1.2-2.7-2.7-4.9-3.8l0,0
	c-2.2-1-4.4-1.6-6.8-1.6c-3.5,0-6.8,1.2-9.7,3.4l0,0c-2.5,1.9-4,4.5-4.1,4.9l0,0l0,0c-1.3,2.3-1.9,4.9-1.9,7.6c0,0.5,0,1.2,0.1,1.7
	c0,0.5,0.4,0.9,0.8,1.2c0.3,0.1,0.6,0.3,0.9,0.4c1.3,3.8,3.9,6.8,7.3,8.5c-1.4,0.8-2.9,1.8-3.9,3c-0.5,0.6-0.5,1.6,0.1,2.2
	c0.6,0.5,1.6,0.5,2.2-0.1c0.5-0.6,1.2-1.2,1.8-1.6c0.9,2.6,3.4,4.5,6,4.5h-0.1c2.7,0,5.2-2.1,5.9-4.9c3.2,2.1,5.3,5.7,5.3,9.5v15.9
	l-13.9,9c-0.8,0.5-0.9,1.4-0.5,2.1c0.3,0.5,0.8,0.6,1.3,0.6c0.3,0,0.5-0.1,0.8-0.3l14.7-9.5c0.4-0.3,0.6-0.8,0.6-1.3V40.6
	c0-5.4-3.1-10.3-7.8-12.8c4.5-2.3,7.7-6.8,8.1-12.1c0.4-0.4,0.8-0.9,1.2-1.4C475.7,14.4,475.8,14,475.7,13.7z M459.8,33.2h-0.3
	c-1.8,0-3.4-1.8-3.4-3.9c0,0,0,0,0-0.1c1.2,0.3,2.5,0.5,3.8,0.5c1,0,2.2-0.1,3.2-0.4C462.9,31.5,461.5,33.2,459.8,33.2z M459.8,26.7
	c-4.7,0-8.8-2.7-10.6-6.8c2.2-0.6,3.8-2.5,4.1-4.7c0.9,0.1,1.8,0.1,2.9,0.1c3.1,0,6-0.6,8.8-1.9c0.6,2.3,2.9,4.1,5.5,4.1
	c0.1,0,0.4,0,0.5,0C470,22.7,465.3,26.7,459.8,26.7z M470.5,14.5c-1.4,0-2.7-1.2-2.7-2.7V11c0-0.5-0.3-1-0.8-1.3
	c-0.5-0.3-1-0.3-1.6,0c-2.7,1.7-5.9,2.6-9.3,2.6c-1.3,0-2.6-0.1-3.9-0.4c-0.5-0.1-0.9,0-1.3,0.3c-0.4,0.3-0.5,0.8-0.5,1.2v0.9
	c0,1.4-1.2,2.7-2.7,2.7c-0.1,0-0.3,0-0.3,0s0,0-0.1,0h-0.1c0-0.1,0-0.3,0-0.4c0-2.1,0.5-4.3,1.6-6l0,0c0,0,1.4-2.5,3.4-4l0,0
	c2.2-1.8,4.9-2.7,7.8-2.7c1.9,0,3.8,0.4,5.5,1.3h0.1c1.7,0.8,3,1.9,3.9,2.9l0,0c1.4,1.6,2.5,3.5,3,5.7
	C472.1,14.2,471.3,14.5,470.5,14.5z M446.8,53.7c3.5-2.1,5.8-5.8,5.8-10.2c0-1.9-0.5-3.8-1.3-5.4c0-0.1,0-0.1-0.1-0.1
	c-1.9-3.6-5.9-6.2-10.3-6.2c-4.5,0-8.4,2.5-10.3,6.2l-0.1,0.1c-0.9,1.7-1.3,3.5-1.3,5.4c0,4.3,2.3,8.1,5.8,10.2
	c-4.3,2.2-6.9,6.5-6.9,11.5v5.5c0,0.5,0.3,1,0.8,1.3l11.5,7.2c0.3,0.1,0.5,0.3,0.8,0.3c0.3,0,0.5-0.1,0.8-0.3l11.5-7.2
	c0.4-0.3,0.8-0.8,0.8-1.3V65C453.7,60.4,451.1,56,446.8,53.7z M440.8,34.8c2.7,0,5,1.2,6.7,3.1c-2.1,0.6-4.4,0.9-6.7,0.9
	c-2.3,0-4.7-0.3-6.7-0.9C435.8,36.1,438.2,34.8,440.8,34.8z M432.2,43.7c0-1,0.1-1.9,0.5-2.9c2.6,0.8,5.3,1.3,8.2,1.3
	c2.9,0,5.7-0.4,8.2-1.3c0.3,0.9,0.5,1.8,0.5,2.9c0,4.8-3.9,8.6-8.6,8.6C436.4,52.3,432.2,48.4,432.2,43.7z M443.6,55
	c-0.1,1.4-1.4,2.5-2.6,2.5h-0.1c-1.2,0-2.6-1-2.7-2.5c0.9,0.3,1.8,0.4,2.9,0.4C441.7,55.4,442.7,55.3,443.6,55z M440.8,76.3
	l-9.9-6.3v-4.8c0-3.4,1.7-6.4,4.5-8.2c0.9,2.2,3.2,3.5,5.4,3.5h0.1c2.3,0,4.4-1.6,5.3-3.6c2.9,1.8,4.5,4.9,4.5,8.4V70L440.8,76.3z
	 M429.9,35.1c0.4-0.8,0.3-1.7-0.5-2.1c-0.5-0.3-0.9-0.5-1.4-0.8c1.9-1,3.6-2.3,4.9-4.1c0.5,0.1,1.2,0.3,1.8,0.3c3,0,5.3-2.5,5.3-5.3
	v-3.9c0-4.9-1.8-9.4-5.2-12.9c-3.4-3.5-7.8-5.5-12.6-5.7l0,0c-0.4,0-0.8,0-1.2,0c-4.9,0.1-9.5,2.1-12.9,5.4
	c-3.5,3.5-5.4,8.1-5.4,13.2V23c0,3,2.5,5.3,5.3,5.3c0.6,0,1.2-0.1,1.8-0.3c1.4,1.9,3.4,3.4,5.5,4.4c-4.8,2.5-7.6,7.3-7.6,12.6v12.5
	c0,0.5,0.3,1,0.6,1.3l13.9,9c0.3,0.1,0.5,0.3,0.8,0.3c0.5,0,1-0.3,1.3-0.6c0.5-0.8,0.3-1.7-0.5-2.1l-13.2-8.6V45.1
	c0-3.6,1.7-6.8,4.4-8.9c0.9,2.7,3.4,4.8,6,4.8h0.3c3,0,5.3-2.7,6-5.5c0.1,0,0.1,0.1,0.3,0.1C428.5,36.1,429.4,35.9,429.9,35.1z
	 M411.9,13.7c-1,1.7-1.6,3.6-1.6,5.5v3.9c0,0.8-0.4,1.4-0.9,1.8c0,0-0.1,0-0.1,0.1c-0.4,0.3-0.8,0.4-1.3,0.4c-1.3,0-2.3-1-2.3-2.3
	v-3.9c0.1-8.5,6.7-15.4,15.2-15.5c0.3,0,0.6,0,1,0c8.4,0.4,15,7.1,15,15.5v3.9c0,1.3-1,2.3-2.3,2.3c-0.5,0-0.9-0.1-1.3-0.4l-0.1-0.1
	c-0.5-0.4-0.9-1-0.9-1.8v-3.9c0-5.4-4-10-9.4-10.8c-0.4,0-0.9,0-1.2,0.3c-0.3,0.4-0.5,0.8-0.5,1.2c0,1-0.3,2.1-0.5,3.1h-7.5
	C412.6,12.9,412.1,13.3,411.9,13.7z M421.4,38.1h-0.3c-1.7,0-3.5-2.1-3.5-4.3c0-0.1,0-0.3,0-0.4c1.2,0.3,2.3,0.4,3.6,0.4
	c1.2,0,2.3-0.1,3.5-0.4C424.6,35.6,422.9,38.1,421.4,38.1z M421.3,30.8c-3.6,0-6.8-1.7-9-4.4c0.6-0.9,1.2-2.1,1.2-3.2v-3.9
	c0-1.2,0.3-2.2,0.6-3.2h7.6c0.6,0,1.2-0.4,1.4-1c0.4-1,0.6-2.1,0.9-3.2c3.1,1.2,5.3,4.1,5.3,7.5V23c0,1.2,0.4,2.3,1.2,3.2
	C428.3,29.2,424.9,30.8,421.3,30.8z"/>
<path fill="#62C5DC" d="M866.6,93.1c0.3,0,0.6,0.1,0.8,0.3l1.6,1.2l2-1c0,0,0.7-0.3,1.2-0.3c0.1,0,0.1,0,0.1,0l0,0
	c0.6,0.5,0.8,1,0.8,1.3v1.2l1,1c0,0,2.3,2.3,5.3,5.2c0.9,0.9,2,1.9,3,2.8c5.8,5.2,11.8,10.5,10.6,19.1c-1.4,10.6-13,15.5-13.1,15.5
	l-3.8,1.5l2.2,3.5c1.4,2.3,5.6,9.8,5.4,14c0,6.4,0.7,10,2.5,11.9c0.9,0.9,2,1.4,3.2,1.4c0.1,0,0.1,0,0.3,0c0.8,0.1,3.5,0.6,3.5,2.7
	c0,2.5-3.5,4.8-4.9,5.3c-0.9,0.3-4.5,1.2-8.1,1.6c-3.3,0.5-6.5,0.6-7.7,0.6c-0.1,0-0.3-0.1-0.4-0.1s-0.3-0.3-0.4-0.3l-2.8-3.5
	l-2.7,3.5l-0.1,0.1c0,0-0.1,0-0.3,0l0,0c0,0-1,0.1-2.4,0.1c-1.8,0-3.4-0.1-4.8-0.3c-3.6-0.5-7.5-1.5-7.6-1.5h-0.3h-0.3
	c0,0-2.3-0.5-4-1.9c-1-0.8-1.9-2.9-2.1-4.1c-0.1-0.8,1.8-1.9,3.2-2.4c2.3-0.3,6.6-2.1,6.7-13.2c0-4.4,3.7-11.7,5.2-14.1l2.1-3.6
	l-3.8-1.5c-0.6-0.3-14-5.4-13.2-17.5v-0.1v-0.1c0.8-7.7,7.3-13.3,11.9-17.4c4.4-4,7.6-7.3,7.7-7.3l1.4-0.8l-0.5-1.6
	c0.1-0.3,0.3-0.6,0.8-1C866.5,93.1,866.6,93.1,866.6,93.1 M866.6,89.6c-0.7,0-1.5,0.3-2.3,0.8c-2.3,1.9-2.2,3.8-2.2,3.8
	s-3.2,3.3-7.5,7.1c-5.3,4.8-12.3,11-12.6,20.2c-1,14.8,15.4,21,15.4,21s-5.6,9.5-5.6,15.9c-0.1,9.3-3.2,9.8-3.7,9.8
	c-0.1,0-0.1,0-0.1,0s-6.6,1.9-6.1,6.4c0.3,1.9,1.4,4.8,3.3,6.4c2.4,2.1,5.6,2.7,5.6,2.7s4.1,1.2,8.1,1.6c1.9,0.3,3.7,0.3,5.3,0.3
	c1.6,0,2.7-0.1,2.7-0.1s0.9,0,1.6-0.4c0.7-0.4,1.2-1,1.2-1s0.6,0.6,1.2,1c0.7,0.5,1.6,0.6,1.6,0.6l0,0c0.1,0,4.3,0,8.8-0.6
	c4.3-0.6,8.8-1.9,8.8-1.9s7.3-3,7.3-8.8c-0.1-5.8-7.1-6.1-7.1-6.1s0,0-0.1,0c-0.6,0-2.3-0.7-2.3-9.8c0-6.2-6.1-15.9-6.1-15.9
	s13.4-5.3,15.2-18.3c1.6-12.3-8.5-18.9-14.8-24.8c-2.9-2.9-5.2-5.2-5.2-5.2s-0.1-2.2-2.2-3.8c-0.7-0.6-1.5-0.7-2.2-0.7
	c-1.5,0-2.8,0.7-2.8,0.7S868.1,89.6,866.6,89.6L866.6,89.6z"/>
<path fill="#62C5DC" d="M869.4,103c1.3,1.3,3,2.9,5.1,4.7c0.5,0.6,1.2,1,2.1,1.8c3.3,2.4,9.9,7.6,9.6,14.2v0.1v0.1
	c0,4.5-7.3,8.2-10.2,9.3c-0.8,0.3-3.3,0.9-5.4,2.7c-0.4,0.3-0.7,0.6-1,0.8c-0.4-0.4-0.8-0.7-1.3-1c-2-1.5-4.5-2.3-5.2-2.4
	c-0.3-0.1-2.4-0.8-4.8-2.2c-2.3-1.4-4.8-3.4-5.6-7.5c-0.8-4.4,2.9-8.1,8.6-13.1c0.8-0.8,1.8-1.5,2.5-2.2
	C866.1,106.3,868,104.4,869.4,103 M869.3,98.1c0,0-3.2,3.4-7.7,7.5c-5.8,5.3-13.7,10.9-12.3,18.5c0.9,5.3,4.3,8.1,7.3,9.8
	c3,1.8,5.6,2.5,5.6,2.5s2.2,0.6,4,1.9c2,1.5,3.5,3.7,3.5,3.7s1.3-2.2,3-3.5c2-1.5,4.4-2.1,4.4-2.1s12.6-4.4,12.5-12.6
	c0.6-10.6-12.1-17.4-12.6-18.5C872.6,101.5,869.3,98.1,869.3,98.1L869.3,98.1z"/>
<path fill="#62C5DC" d="M869.1,111.2c4.5,0,8.2,4.1,8.2,9c0,5.1-3.7,9-8.2,9c-4.5,0-8.2-4.1-8.2-9
	C860.9,115.2,864.7,111.2,869.1,111.2 M869.1,107.7c-6.4,0-11.7,5.6-11.7,12.5s5.2,12.6,11.7,12.6c6.4,0,11.7-5.6,11.7-12.5
	S875.5,107.7,869.1,107.7L869.1,107.7z"/>
<path fill="#62C5DC" d="M760.7,177H710c-5.5,0-9.9-4.4-9.9-9.9v-59.1c0-5.5,4.4-9.9,9.9-9.9h11.5v2.9H710c-3.8,0-7.1,3.2-7.1,7.1
	v59.1c0,3.8,3.2,7.1,7.1,7.1h50.8c3.8,0,7.1-3.2,7.1-7.1V108c0-3.8-3.2-7.1-7.1-7.1h-28.5V98h28.5c5.5,0,9.9,4.4,9.9,9.9v59.1
	C770.7,172.5,766.2,177,760.7,177z"/>
<path fill="#62C5DC" d="M735.1,126.2l-8.2-7.1l-8.2,7.1V99.4h2.9v20.4l5.3-4.6l5.3,4.6V99.4h2.9c0,0,0,2.7,0,10.2
	S735.1,126.2,735.1,126.2z"/>
<path fill="#62C5DC" d="M601.4,144.2l-19.6-11.7l0.4-22.9L602,98.6l19.6,11.7l-0.4,22.9L601.4,144.2z M584.7,130.9l16.8,10l17.1-9.5
	c0,0,0.1-7.5,0.2-11.7c0.1-4.1,0.1-7.9,0.1-7.9l-16.8-10l-17.1,9.5L584.7,130.9z"/>
<path fill="#62C5DC" d="M582.9,176.4l-19.6-11.8l0.4-22.9l19.8-11.1l19.6,11.8l-0.4,22.9L582.9,176.4z M566.1,163.1l16.8,10l17-9.5
	l0.3-19.6l-16.8-10c0,0-7.3,4-10.3,5.8c-3,1.8-6.7,3.8-6.7,3.8L566.1,163.1z"/>
<path fill="#62C5DC" d="M619.5,176.4l-19.6-11.8l0.4-22.9l19.8-11.1l19.5,11.8l-0.4,22.9L619.5,176.4z M602.7,163.1
	c0,0,8,4.8,10.2,6.1c2.1,1.2,6.5,4,6.5,4l17.1-9.5l0.3-19.6L620,134l-17.1,9.5L602.7,163.1z"/>
<path fill="#62C5DC" d="M619.7,112l-0.8-1.6c0,0,5-2.9,7.1-4c2-1.2,6.7-3.8,6.7-3.8l0.8,1.6L619.7,112z"/>
<path fill="#62C5DC" d="M637.4,165.4l0.8-1.6c0,0,3.3,1.8,5,2.8c1.8,1,4.5,2.6,4.5,2.6l-0.1,1.9L637.4,165.4z"/>
<path fill="#62C5DC" d="M565.6,164.8l-0.8-1.6l-5.6,3.2v2.1c0,0,0.6-0.3,2.6-1.4C563.8,166,565.6,164.8,565.6,164.8z"/>
<path fill="#62C5DC" d="M628.6,148.4h1.8c0,0,0,1.6,0,4.1s0,4.6,0,4.6h-1.8V148.4z"/>
<path fill="#62C5DC" d="M584.1,142.7l0.8,1.6c0,0-1.4,0.8-3.4,2c-1.9,1.2-4.2,2.5-4.2,2.5l-0.8-1.6L584.1,142.7z"/>
<path fill="#62C5DC" d="M601.5,111.1l1-1.6c0,0,2,1.2,3.4,2.1s4,2.5,4,2.5l-1,1.6L601.5,111.1z"/>
<path fill="#62C5DC" d="M637.4,143.5l0.8,1.6l9.7-5.5v-2c0,0-2.9,1.6-5,2.9C640.7,141.6,637.4,143.5,637.4,143.5z"/>
<path fill="#62C5DC" d="M583.5,111.4l0.8-1.6c0,0-3.4-1.9-6.5-3.7c-3.1-1.8-7.3-4.2-7.3-4.2l-0.8,1.6L583.5,111.4z"/>
<path fill="#61C5DD" d="M469.9,181.1c-6.5,0-12.6-1.2-18.2-3.4c-5.4-2.2-10-5.4-14.1-9.4c-7.8-8-12.2-19-12.2-31
	c0-5.8,1.2-11.5,3.4-16.9c2.2-5.2,5.4-9.9,9.3-14c4-4.1,8.6-7.3,13.6-9.6c5.3-2.3,10.8-3.6,16.3-3.6c0.5,0,1,0,1.4,0
	c9.7,0.4,17.8,2.7,24,6.9c3.2,2.2,5.9,5,7.5,7.8l0.8,1.4l-1.4,0.6c-0.6,0.3-1.4,0.5-2.2,0.7c-1.6,0.4-3.5,1-4.9,1.9l0,0
	c-0.4,0.3-0.8,0.5-1.2,0.7c-2.1,1.3-3.6,2.2-4.3,3.4c-1.6,3.2-0.5,7.4,0.3,10.1c0.5,1.8,0.8,2.8,0.5,3.6c-0.5,1.3-1.9,1.4-3.4,1.4
	c-0.5,0-1.1,0.1-1.6,0.1c-2.7,0.5-4.4,0.5-5.4,0.5c-1.2,0.1-1.3,0.1-1.6,0.3c-1.2,1-1.5,4-2,9.3c-0.2,2.5-0.9,3.6-1.6,4.7
	c-1.5,2.1-2.7,3-3.9,3c-0.1,0-0.1,0-0.3,0c-0.7-0.1-1.6-0.6-1.6-1.8c-0.1-0.5,0-1,0.1-1.6c0.1-0.4,0.1-0.8,0.1-1.2V145
	c0.1-1.8,0.5-3,0.8-4c0.3-1,0.6-1.9,0.6-3.2c0-1.7-0.6-2.9-0.8-3.1c-0.1,0-0.1,0-0.3,0c-0.5,0-0.9,0.3-1.2,0.5
	c-0.1,0-0.1,0.1-0.1,0.1c-0.3,0.3-1.4,1.9-1.9,3.4c-0.3,0.7-0.3,1.4-0.3,2c0,0.8,0,1.8-0.6,2.7c-0.7,1.5-1.9,1.7-3.2,1.9l0,0
	c-0.3,0.1-0.6,0.1-1,0.1c-1.6,0-3.6-0.7-4.1-2.3c-0.5-1.6,0.8-2.6,1.8-3.4c1-0.8,2.1-1.8,2.7-3.3v-0.1c0.4-1,0.3-1.5,0.1-2.5
	c-0.1-1.1-0.4-2.6,0.1-5.1c0.3-1.4,0.5-2.3,0.7-2.9c0.2-0.7,0.3-1,0.3-1.8c-0.3-2.5-1.9-4.3-2.5-4.8l-0.1-0.1
	c-1.7-1.6-3.6-2.1-4.7-2.3c-0.1,0-0.1-0.1-0.3-0.1c-0.6-0.1-1.3-0.2-2-0.2c-2.9,0-6.1,1-8.9,2.7c-2.7,1.7-4.7,3.9-5.3,6
	c-1,3.3,0.2,6.1,3.8,9.1l0,0c3.7,3.3,7.1,7.5,3.6,14c-1,1.8-0.4,4,0.3,5.4c3.6,8.6,15.4,15.2,26.8,15.2c2.4,0,4.7-0.3,6.7-0.9
	c3.8-1.1,3.9-3.6,3.6-7.3c-0.1-1.1-0.1-2.1,0-3c0.3-1.7,1.4-2.3,2.3-2.5c6.2-1.4,7.9-3.4,7.4-8.8c-0.2-1.9-0.5-2.6-0.6-2.8
	c-0.3,0.1-1,0.6-1.8,1.4c-0.1,0.1-0.3,0.3-0.3,0.5c-0.3,0.5-0.7,1.1-1.6,1.6c-0.5,0.3-1.2,0.6-1.9,0.8h-0.1
	c-0.3,0.1-0.6,0.1-0.8,0.1c-1,0-1.8-0.3-2.6-0.7c-0.5-0.2-1-0.4-1.6-0.6h-0.1c-1.2-0.5-1.9-0.5-2.5-0.6c-0.7-0.1-1.6-0.1-2.3-1.1
	c-1.8-2.1-0.5-5.6,0.1-7.1l0.1-0.3c0.5-1.2,0.8-2.3,2-3c1.1-0.8,2.3-0.8,3.2-0.8c0.7,0,1.4,0.1,2,0.1c0.5,0.1,0.9,0.1,1.4,0.1
	c0.2,0,0.4,0,0.6,0c2.7,0,4.5-0.5,5.4-1.6c0.9-1.2,1.1-3,0.5-5.9c-0.1-0.5-0.3-1.1-0.5-1.7c-0.6-1.7-1.2-3.6-0.3-5.2
	c0.6-1.2,1.9-1.9,3.9-2.3l0,0c1.4-0.3,3-0.6,4.8-1c3.4-0.8,4.9-1.1,5.6-1.1h0.1c1.6,0,4,3,5.4,5.7c1.7,3,3.7,8.2,3.7,15.4
	c0.2,5-0.6,10.7-2.5,15.9c-2.1,6.2-5.4,11.9-9.7,16.3c-3.7,3.8-8,6.8-13,8.9C483,179.9,476.8,181.1,469.9,181.1z M468.2,96
	c-21.3,0-40,19.3-40,41.3c0,23.8,17.6,41,41.7,41c12.3,0,22.2-3.9,29.6-11.5c8.9-9.3,11.7-22.2,11.4-30.3v-0.1
	c0-11.6-5.4-17.6-6.6-18.4c-0.8,0.1-3.1,0.6-4.9,1c-1.7,0.4-3.4,0.8-4.9,1c-1.1,0.3-1.8,0.6-2.1,1c-0.3,0.6,0.1,1.8,0.5,3
	c0.3,0.6,0.5,1.3,0.6,2c0.8,3.7,0.5,6.4-1,8.2c-1.4,1.8-3.9,2.7-7.5,2.7c-0.2,0-0.4,0-0.6,0l0,0c-0.5,0-1-0.1-1.5-0.1
	c-0.6-0.1-1.2-0.1-1.8-0.1c-0.8,0-1.3,0.1-1.6,0.4l0,0c-0.4,0.3-0.6,0.7-1,1.8l-0.1,0.3c-0.9,2.3-1.1,3.8-0.6,4.4l0,0l0,0
	c0.1,0,0.3,0.1,0.5,0.1c0.6,0.1,1.6,0.1,3.2,0.7c0.7,0.3,1.4,0.5,1.8,0.7c0.7,0.3,1.1,0.5,1.5,0.5c0.1,0,0.2,0,0.3,0
	c0.4-0.1,0.7-0.3,0.9-0.4l0.1-0.1l0.1-0.1c0.4-0.3,0.5-0.5,0.8-0.8c0.1-0.2,0.3-0.5,0.5-0.7l0,0c1-1.1,2.4-2.4,3.9-2.4
	c0.3,0,0.6,0.1,0.8,0.1c1.9,0.7,2.2,3.4,2.4,5.1c0.4,3.6-0.2,6.1-1.8,8c-1.5,1.8-3.9,2.9-7.7,3.8c-0.1,0-0.1,0-0.1,0
	c-0.3,0.3-0.1,1.9-0.1,2.7c0.1,1.6,0.3,3.6-0.4,5.5c-0.8,2.3-2.5,3.8-5.2,4.6c-2.3,0.7-4.8,1-7.5,1c-5.8,0-12-1.6-17.4-4.6
	c-5.6-3.1-9.9-7.5-12-12.3c-1.2-2.9-1.3-5.5-0.1-7.7c2.1-4,1.3-6.9-3-10.6c-4.3-3.7-5.8-7.6-4.6-11.9c1.6-5.7,9.5-10.8,16.8-10.8
	c0.9,0,1.8,0.1,2.6,0.3h0.1c0.1,0,0.1,0.1,0.3,0.1c1.2,0.3,3.8,0.9,6,3l0.1,0.1c2,1.9,3.1,4.1,3.3,6.5v0.1c0.1,1.2-0.2,2-0.5,2.7
	c-0.2,0.6-0.4,1.2-0.6,2.5c-0.3,2.1-0.2,3.3,0,4.3c0.1,0.7,0.2,1.4,0.1,2.1c0.6-1.2,1.4-2.3,2-2.7c0,0,0.1-0.1,0.1-0.1
	c0.5-0.3,1.4-0.9,2.7-0.9c0.4,0,0.8,0.1,1.2,0.2l0.1,0.1c1.5,0.6,2.5,3,2.5,5.6c0,1.8-0.4,2.9-0.8,4.1c-0.3,1-0.6,1.9-0.7,3.3
	c0,0.3,0,0.6-0.1,1c0.2-0.3,0.5-0.5,0.7-1c0.5-0.7,1-1.4,1.2-3.3c0.6-6.2,0.9-9.3,3-11.2c1-0.8,1.9-0.8,3.2-0.9c1,0,2.6-0.1,5.1-0.5
	c0.6-0.1,1.3-0.1,1.9-0.2c0.3,0,0.6,0,0.8-0.1c-0.1-0.5-0.3-1-0.4-1.6c-0.8-3-2.3-7.9-0.1-12.1v-0.1c1-1.8,2.8-2.9,5.3-4.4
	c0.4-0.2,0.7-0.5,1.1-0.7c1.8-1.2,4-1.8,5.7-2.2c0.1,0,0.2-0.1,0.3-0.1c-2.8-3.8-10.5-11.2-28.3-11.9C469,96.1,468.7,96,468.2,96z
	 M458.3,142.4c0.3,0.1,0.7,0.3,1.2,0.3c0.2,0,0.3,0,0.5-0.1h0.1c0.4-0.1,1-0.1,1.1-0.3c0,0,0,0,0.1-0.1l0.1-0.2l0.1-0.1
	c0.1-0.1,0.1-0.6,0.1-1.2c0-0.5,0-1,0.1-1.7c-0.8,1.4-1.9,2.2-2.7,2.9C458.7,142,458.5,142.2,458.3,142.4z"/>
<path fill="#62C5DC" d="M327.1,96.1c-0.3,0.7-0.3,1.4-0.3,2.3c0,4.8,3.2,8.6,4.5,10c2.4,2.5,7.6,4.5,8.5,4.9l0.3,0.1h0.3
	c0.1,0,13.2,3,20,11.9c6.8,8.9,6.5,24.1,6.5,24.2l-0.3,4.7l4.5-1.1c0,0,0.1,0,0.3,0c0.8,0,1.1,0,1.1,1.2c0,0.7-0.7,3.4-1.8,4.8
	c-1.2,1.6-2,2.3-2.5,2.5l-3.8-4l-1.9,5.8c-0.1,0.3-7,20-26,20c-0.3,0-0.5,0-0.8,0c-19.6-0.6-27.3-18.8-27.5-19.6l-1.9-4.8l-3.4,3.1
	l0,0l0,0c-0.7-0.3-2.3-2-3.2-3.5c-0.6-0.8-0.9-2.6-0.9-3.4l0,0c0-1.1,0.1-1.6,0.3-1.7c0.1-0.1,0.3-0.3,0.9-0.3c0.1,0,0.3,0,0.3,0
	l5.1,1.1l-0.9-5.3c-0.3-0.1-1.9-10.4,4.5-20.9c6.5-10.4,15.8-13.2,15.8-13.2l5-1.4l-3-4.2c0,0-1.8-2.6-1.9-6.1
	C324.7,99.9,326.1,97.5,327.1,96.1 M334.5,89.5C334.5,89.5,334.5,89.5,334.5,89.5c-6.2,0-9.1,4.4-9.1,4.4s-4,4-4,10.4
	c0.1,4.7,2.5,7.9,2.5,7.9s-10.4,2.8-17.5,14.3c-7.1,11.7-5,22.8-5,22.8s-0.3-0.1-0.8-0.1c-1.6,0-4.9,0.6-4.7,5.4
	c0,0.3,0.3,3.2,1.5,5c1,1.8,3.7,4.8,5.4,5c0.3,0,0.3,0,0.6,0c1.4,0,1.9-0.5,1.9-0.5s8.3,20.6,30,21.3c0.3,0,0.6,0,0.9,0
	c21.1,0,28.7-21.8,28.7-21.8s1,1,2.5,1h0.1c1.4,0,3.1-1.5,5-4c1.9-2.5,2.5-6,2.5-7c-0.3-4-3-4.5-4.5-4.5c-0.6,0-0.9,0.1-0.9,0.1
	s0.5-16-7-25.8c-7.5-9.9-21.7-13-21.7-13s-5.1-1.9-7-4c-1.9-2-3.5-4.8-3.5-7.5c0-2.5,2.1-4,3.6-4c0.1,0,0.3,0,0.3,0
	c1.6,0.3,2.5,0.8,3,1.9c0.5,1-0.5,2.5-0.5,2.5s0.8,2.5,3.2,2.5c0.1,0,0.3,0,0.3,0c2.5-0.3,3-4.4,3-4.4s-0.5-3-2.5-5.4
	C339.5,90.8,337,89.5,334.5,89.5L334.5,89.5z"/>
<path fill="#62C5DC" d="M207.2,179.7h-13.9c-5.6,0-10.2-4.5-10.2-10.2v-14.7h3v14.6c0,4,3.2,7.1,7.1,7.1h13.9c4,0,7.1-3.2,7.1-7.1
	v-14.6h3v14.6C217.4,175.1,212.8,179.7,207.2,179.7z M186.2,125.1h-3v-16.2c0-5.6,4.5-10.2,10.2-10.2h13.9c5.6,0,10.2,4.5,10.2,10.2
	V125h-3v-16.1c0-4-3.2-7.1-7.1-7.1h-13.9c-4,0-7.1,3.2-7.1,7.1v16.2H186.2z"/>
<path fill="#62C5DC" d="M230.6,156.4h-16.2v-3h16.2c4,0,7.1-3.2,7.1-7.1v-13.9c0-4-3.2-7.1-7.1-7.1h-14.7v-3h14.7
	c5.6,0,10.2,4.5,10.2,10.2v13.9C240.7,151.7,236.2,156.4,230.6,156.4z M186,156.4H170c-5.6,0-10.2-4.5-10.2-10.2v-13.9
	c0-5.6,4.5-10.2,10.2-10.2h14.7v3H170c-4,0-7.1,3.2-7.1,7.1v13.9c0,4,3.2,7.1,7.1,7.1H186V156.4L186,156.4z"/>
<path fill="#62C5DC" d="M71,140.8l-0.3-2.3c11.2-1.8,19.4-11.5,19.4-23.2c0-12.9-10.5-23.5-23.5-23.5c-12.9,0-23.5,10.5-23.5,23.5
	c0,11.7,8.2,21.5,19.5,23.2l-0.3,2.3c-12.4-1.9-21.5-12.6-21.5-25.5c0-14.2,11.5-25.8,25.8-25.8c14.2,0,25.8,11.5,25.8,25.8
	c0,6.3-2.1,12.3-6,16.9C82.6,136.8,77.1,139.9,71,140.8z"/>
<path fill="#62C5DC" d="M67.2,185.3H66c-2.5,0-6-1.9-6-4.8v-17.9h2.3v17.9c0,1.2,2.1,2.5,3.6,2.5h1.2c1.6,0,3.6-1.2,3.6-2.5v-17.8
	h2.3v17.8C73.2,183.5,69.7,185.3,67.2,185.3z"/>
<path fill="#62C5DC" d="M73.2,154.2h-2.3v-15h2.3c0,0,0,3.5,0,6.4C73.2,148.4,73.2,154.2,73.2,154.2z M62.4,154.2h-2.3
	c0,0,0-5.2,0-7.8c0-2.6,0-7.2,0-7.2h2.3V154.2z"/>
<path fill="#62C5DC" d="M61.2,165H44.5c-2.9,0-4.8-3.6-4.8-6v-1.2c0-2.5,1.9-6,4.8-6h16.8v2.3H44.5c-1.2,0-2.5,2.1-2.5,3.6v1.2
	c0,1.6,1.2,3.6,2.5,3.6h16.8V165z"/>
<path fill="#62C5DC" d="M88.9,165H72v-2.3h16.8c1.2,0,2.5-2.1,2.5-3.6v-1.2c0-1.6-1.2-3.6-2.5-3.6H72v-2.3h16.8c2.9,0,4.8,3.6,4.8,6
	v1.2C93.6,161.5,91.8,165,88.9,165z"/>
<path fill="#62C5DC" d="M66.7,130.3c-4,0-7.8-1.6-10.6-4.4s-4.4-6.6-4.4-10.6s1.6-7.7,4.4-10.6c2.9-2.9,6.6-4.4,10.6-4.4
	c4,0,7.8,1.6,10.6,4.4c2.9,2.9,4.4,6.6,4.4,10.6s-1.6,7.8-4.4,10.6C74.5,128.7,70.6,130.3,66.7,130.3z M66.7,102.7
	c-6.9,0-12.6,5.6-12.6,12.6c0,7.1,5.6,12.6,12.6,12.6s12.6-5.6,12.6-12.6C79.3,108.2,73.7,102.7,66.7,102.7z"/>
<path fill="#62C5DC" d="M769.6,321.4c1.4,0,3,0.1,4.6,0.5c2.7,0.5,4.9,2.9,5,5.4c0.1,6.9,0.1,18.3,0.1,27.6c0,2.1,0,4.1,0,5.9h-19.1
	v-22.4v-4.9l-4.5,2c-0.3,0.1-0.5,0.2-0.6,0.3c-0.5,0.2-1,0.5-1.6,0.9c-4.3,3.5-9.7,5.6-16.9,6.5c-0.1,0-0.1,0-0.2,0
	c-0.8,0-1.5-0.6-1.6-1.3c-0.1-0.6,0.1-0.9,0.3-1c0.3-0.4,0.9-0.6,1.6-0.8c3.6-0.8,7.1-1.6,10.5-3c5.1-2.1,8.4-6.2,10.7-9.5
	C760.8,323.3,764.5,321.4,769.6,321.4L769.6,321.4 M769.6,318.2c-5.6,0-10.5,2.1-14.3,7.5c-2.5,3.5-5.3,6.7-9.3,8.4
	c-3.2,1.3-6.7,2.1-10,2.9c-2.9,0.6-4.7,2.6-4.3,5.3c0.3,2.3,2.3,4.1,4.7,4.1c0.2,0,0.4,0,0.6-0.1c6.7-0.9,13.1-2.9,18.5-7.2
	c0.3-0.3,0.8-0.4,1.6-0.7c0,6.1,0,19.8,0,25.5c8.6,0,16.8,0,25.2,0c0.1-0.5,0.3-0.6,0.3-0.9c0-9.3,0.1-26.6-0.1-35.8
	c-0.1-4.1-3.4-7.7-7.6-8.5C772.9,318.4,771.2,318.2,769.6,318.2L769.6,318.2z"/>
<path fill="#62C5DC" d="M699.1,321.3c2.7,0,5,0.5,7,1.6c2.1,1,3.9,2.7,5.5,5c3.7,5.2,8.4,8.8,14.2,10.7c-0.3,1-0.5,2-0.5,3
	c-3.8-1.2-7.3-3-11-6l-5.1-4v6.5v22.6H690c0-2.1,0-4.7,0-7.4c0.1-8.4,0.1-18.7-0.1-24.8c-0.1-1.6,0.5-3.2,1.7-4.5
	c1.3-1.4,3.1-2.3,5.2-2.5C697.6,321.4,698.4,321.3,699.1,321.3 M699.1,318.2c-0.8,0-1.6,0.1-2.5,0.1c-6,0.5-10,5.4-9.7,10.3
	c0.4,8.2,0.1,24.4,0.1,32.7c0,0.8,0,1.7,0,2.5c8.6,0,16.9,0,25.5,0c0-5.8,0-19.5,0-25.8c5.3,4.2,10.6,6.7,17.1,7.6
	c-1.7-3.4-1.2-6.3,0.9-9.2c-6.9-1.3-12.3-4.9-16.2-10.5C710.3,320.5,705.3,318.2,699.1,318.2L699.1,318.2z"/>
<path fill="#62C5DC" d="M699.6,297L699.6,297L699.6,297c2.1,0,4,0.8,5.4,2.3c1.4,1.5,2.2,3.4,2.2,5.5s-0.8,4-2.2,5.5
	c-1.4,1.5-3.3,2.3-5.4,2.3h-0.1c-2.1,0-4-0.8-5.4-2.3c-1.5-1.5-2.3-3.4-2.3-5.5s0.8-4.1,2.3-5.6C695.6,297.8,697.6,297,699.6,297
	 M699.6,293.8c-6,0-10.8,4.9-10.8,11c0,6,4.9,10.9,10.8,10.9c0.1,0,0.1,0,0.1,0c5.9-0.1,10.7-4.9,10.7-11c0-6-4.7-10.8-10.7-11
	C699.6,293.8,699.6,293.8,699.6,293.8L699.6,293.8z"/>
<path fill="#62C5DC" d="M769.6,297c2.1,0,4,0.8,5.4,2.3c1.5,1.5,2.3,3.5,2.3,5.6c0,2.1-0.8,4-2.3,5.5c-1.4,1.4-3.4,2.3-5.4,2.3
	c-0.1,0-0.1,0-0.1,0c-2,0-4-0.8-5.3-2.3c-1.4-1.5-2.2-3.4-2.2-5.5s0.8-4,2.3-5.4C765.6,297.8,767.6,297,769.6,297L769.6,297
	L769.6,297 M769.6,293.8L769.6,293.8c-6,0-10.8,4.9-10.8,10.9c0,6,4.7,10.9,10.6,11c0.1,0,0.1,0,0.2,0c6,0,10.8-4.9,10.8-10.9
	C780.5,298.7,775.7,293.8,769.6,293.8L769.6,293.8z"/>
<path fill="#62C5DC" d="M617.3,284.7c0.8,0,1.6,0,2.3,0.1c3.6,0.3,6.8,1.4,9.7,3.2c2.3,1.5,4.5,3.5,6.4,6c0.1,0.2,0.3,0.3,0.4,0.5
	c-2.2-1-4.7-1.8-7-1.9c-0.5,0-1-0.1-1.5-0.1c-6.4,0-11.5,2.5-11.7,2.7c-1,0.5-1.6,1.6-1.6,2.7c0.1,1.2,0.9,2.1,2,2.4
	c0,0,3.4,1,6.9,3.4c4.3,3,6.7,6.7,7.1,11c0.5,4.5-0.6,9.3-1.9,13.2c-1.6-6.8-3.8-11.6-6.7-14.3c-6-5.4-13.1-6.9-13.4-6.9
	c-0.2-0.1-0.4-0.1-0.5-0.1c-0.8,0-1.6,0.4-2.1,1c-0.6,0.8-0.8,1.9-0.4,2.9c0.1,0.1,6.4,14.7,6.4,24.5c0,10.2-2.7,27-2.7,27.1
	c-0.1,0.8,0.1,1.6,0.5,2.1c0.5,0.6,1.2,1,1.9,1c0,0,3.3,0.3,6.8,1s5.4,1.3,6.4,1.8c-1.2,0.7-3.7,1.8-7.9,2.9
	c-5.8,1.4-12.6,2.1-19.4,2.1c-1.3,0-2.6,0-3.8-0.1c-8.6-0.4-16.1-1.1-21.9-2.1s-8.3-2-9.3-2.6c0.8-0.5,2.2-1.1,5.1-1.8
	c3.1-0.8,6.4-1.2,7.9-1.4h0.1c1.9-0.3,6.7-0.6,10.6-0.8c-0.6,1.4-0.8,2.5-0.6,3.6c0.5,3,3.2,4.8,5.6,4.8c1.9,0,3.4-1.2,4-2.9
	c0.1-0.3,0.5-1,0.9-1.8c2.8-5.1,9.3-17.2,9.2-31.9c-0.1-17.4-3.2-26.2-3.4-26.6c-0.3-0.9-1.2-1.6-2.1-1.8c-0.1,0-0.3-0.1-0.5-0.1
	c-0.8,0-1.6,0.4-2.1,1c-0.4,0.5-9.2,11-11,21.1c-0.7,4.2-0.5,8.8,0,12.8c-3.4-4.3-6.9-10.2-6.5-16.3c0.3-4.1,1.3-7.7,3.1-10.4
	c1.3-1.9,2.5-2.8,2.7-2.9c1.2-0.7,1.6-2.1,1.1-3.4c-0.5-1-1.5-1.7-2.6-1.7c-0.3,0-0.5,0-0.7,0.1c-0.3,0.1-8.2,2.3-14.3,9.3
	c-1.8,2-3.2,4.3-4.4,6.6c0.1-1.9,0.4-3.8,0.8-5.4c0.8-2.8,1.9-5.2,3.6-7.1c5.8-6.7,14.8-9.5,14.8-9.5c1.2-0.4,2-1.4,1.9-2.7
	c0-1.2-0.8-2.3-2.1-2.7c-0.3-0.1-2.5-0.6-5.7-0.6c-2.7,0-5.3,0.4-7.7,1.2c-0.6,0.2-1.2,0.5-1.9,0.6c2.7-3,6.2-5.6,10.2-6.3
	c1.4-0.3,2.9-0.3,4.2-0.3c3.2,0,6.2,0.6,9,1.8c2,0.8,3.1,1.8,3.2,1.8c0.5,0.5,1.2,0.6,1.8,0.6c0.1,0,0.3,0,0.5-0.1
	c0.8-0.1,1.5-0.6,1.9-1.4c0.1-0.1,1.5-2.4,4.3-4.5C607.2,286.2,611.9,284.7,617.3,284.7 M617.3,281.9c-14.7,0-20.8,10.4-20.8,10.4
	s-5.1-4.3-14-4.3c-1.4,0-3,0.1-4.7,0.4c-11.7,1.9-18.5,17.2-18.5,17.2s5.3-4.1,11.4-6.2c2.5-0.8,4.9-1,6.8-1c3,0,5,0.5,5,0.5
	s-9.7,2.9-16.1,10.4c-8.5,9.8-4,26.3-4,26.3s2.7-10.4,8.2-16.7c5.6-6.4,13-8.4,13-8.4s-6.4,4-7.1,15.6
	c-0.8,13.3,13.9,25.2,13.9,25.2s-3.6-11.7-1.9-21.1c1.6-9.4,10.3-19.8,10.3-19.8s3.1,8.5,3.2,25.6c0.1,17.2-9.4,30.8-10,32.8
	c-0.2,0.7-0.8,1-1.4,1c-1.2,0-2.7-1-2.9-2.4c-0.3-2.1,3.2-6.3,3.2-6.3s-12.8,0.6-16.3,1.1c-3.5,0.5-16.5,2.3-16.1,6.3
	c0.5,4,16.3,6.4,34.5,7.2c1.4,0.1,2.7,0.1,4,0.1c16.6,0,31.1-4.5,30.9-8c-0.2-3.8-16.5-5.4-16.5-5.4s2.7-17,2.7-27.6
	c0-10.5-6.5-25.6-6.5-25.6s6.5,1.3,12.1,6.3c6.2,5.6,7.3,22.1,7.3,22.1s7.1-12,6-23.3c-1.2-12.5-15.9-16.7-15.9-16.7
	s4.7-2.3,10.5-2.3c0.5,0,0.8,0,1.3,0.1c6.4,0.4,14,6.5,14,6.5s-5.3-18.3-23-19.6C619,282,618.1,281.9,617.3,281.9L617.3,281.9z"/>
<path fill="#62C5DC" d="M426.5,292.9l8.8,5.7c0.5,0.4,1.2,1,1.4,1.4c0.1,0.3,0.2,1.3,0.1,2.1v0.1v0.1l-0.2,17.6l-10.1-8.4
	L426.5,292.9 M423.6,287.7v25.2l11.4,9.4c0,0,1.6,1.2,2.7,1.2c0.3,0,0.5-0.1,0.6-0.2c1.3-1,1.1-3,1.1-3l0.2-18.1
	c0,0,0.2-2.4-0.5-3.6c-0.6-1.2-2.3-2.4-2.3-2.4L423.6,287.7L423.6,287.7z"/>
<path fill="#62C5DC" d="M442.1,314.1h-2.9v-2.6h2.5c0.4-0.1,0.9-0.4,1.1-0.6c0.2-0.2,0.5-0.9,0.6-1.6v-16.3c0-0.5-0.2-1.5-0.6-1.8
	c-0.9-0.5-1.8-0.6-2-0.7h-17.1v-2.6h17.3c0.1,0,1.6,0.2,3,1c1.9,1.1,1.9,3.7,1.9,4v16.7l-0.1,0.1c-0.1,0.5-0.6,2.1-1.4,3
	C443.7,313.5,442.4,313.9,442.1,314.1L442.1,314.1z"/>
<path fill="#62C5DC" d="M492.7,285.6v3.1h-15h-6.5l-2.2-3.1H492.7 M495.5,282.8h-32l6.2,8.8c0,0,1.6,0,7.9,0c6.4,0,17.8,0,17.8,0
	V282.8L495.5,282.8z"/>
<path fill="#62C5DC" d="M492.7,297.2v4.7c-0.1,0.5-0.4,2.5-1.6,4.5c-0.8,1.2-1.7,2.1-2.9,2.8c-1.5,0.8-3.3,1.3-5.4,1.3
	c-3.7,0-6.3-1.4-7.8-4.5c-1.2-2.4-1.4-4.9-1.4-5.1c0-1.6-1.3-2.8-2.9-2.8h-0.1l0.7-1L492.7,297.2 M495.5,294.3h-25.5l-5.1,6.6h6
	c0,0,0.2,12.3,12,12.3s12.6-11.2,12.6-11.2V294.3L495.5,294.3z"/>
<path fill="#62C5DC" d="M464,320.2c0.3,0,0.4,0,0.5,0c0.2,0.1,0.3,0.1,0.5,0.1h23.6l-20.8,27.4v-18.2c0-1.2-0.8-2.3-1.9-2.7
	c-0.3-0.1-0.6-0.1-0.9-0.1c-0.9,0-1.8,0.4-2.3,1.2l-12.5,16.9c-0.5,0.5-1.5,1.2-2.1,1.2c0,0,0,0-0.1,0c-0.7,0-1.9-0.6-2.4-1
	l-18.6-14.5c-0.1-0.2-0.5-0.6-0.6-1.1c-0.1-0.5-0.2-1.3,0.8-2.5c1-1.2,1.9-1.2,2.3-1.2l0,0c0.7,0,1.3,0.3,1.5,0.4l13.9,10.9
	c0.5,0.4,1.1,0.6,1.8,0.6c0.1,0,0.3,0,0.3,0c0.8-0.1,1.4-0.5,1.9-1.1l9.5-12.3c0.1-0.1,0.1-0.2,0.3-0.3c0.1-0.1,1-1.5,2.7-2.6
	C462.3,320.4,463.3,320.2,464,320.2L464,320.2 M464,317.4c-1,0-2.5,0.2-4.2,1.2c-2.6,1.6-3.7,3.6-3.7,3.6l-9.5,12.3l-14.1-11
	c0,0-1.4-0.9-3.1-0.9c-1.4,0-2.9,0.5-4.4,2.3c-3.5,4.1,0,7.5,0,7.5l18.8,14.7c0,0,2.1,1.6,4.1,1.6c0.1,0,0.1,0,0.2,0
	c2.1-0.1,4.1-2.1,4.1-2.1l12.6-17v26.6l29.4-38.7h-29.4C464.9,317.5,464.5,317.4,464,317.4L464,317.4z"/>
<path fill="#62C5DC" d="M502.6,320.5c1,0.3,2.2,0.7,2.9,1.6c1.4,1.7,1.5,3.7,1.5,3.8v48.6h-39.2v-8h29.9c1.6,0,2.9-1.3,2.9-2.9v-6.2
	c0-1.6-1.3-2.9-2.9-2.9h-20.2L502.6,320.5 M501.3,317.4l-29.5,40.1h25.9v6.2h-32.7v13.7h44.8v-51.5c0,0,0-3-2.1-5.6
	C505.7,317.7,501.3,317.4,501.3,317.4L501.3,317.4z"/>
<path fill="#62C5DC" d="M317.8,376.2c-3,0-5.6-2.1-6.2-5l-15.9-67.7c-0.4-1.7-0.1-3.4,0.8-4.8c0.9-1.4,2.3-2.5,4-2.8l52.3-11.7
	c0.5-0.1,0.9-0.2,1.4-0.2c3,0,5.6,2.1,6.2,5l15.9,67.7c0.4,1.7,0.1,3.4-0.8,4.8c-0.9,1.4-2.3,2.5-4,2.8L319.3,376
	C318.7,376.1,318.3,376.2,317.8,376.2z M354.1,286.6c-0.3,0-0.5,0-0.8,0.1L301,298.3c-1,0.2-1.8,0.8-2.3,1.6
	c-0.5,0.8-0.7,1.8-0.5,2.8l15.9,67.7c0.4,1.7,1.9,2.9,3.6,2.9c0.3,0,0.5,0,0.8-0.1l52.3-11.7c1-0.2,1.8-0.8,2.3-1.6
	c0.5-0.8,0.7-1.8,0.5-2.8l-15.9-67.7C357.3,287.8,355.8,286.6,354.1,286.6z"/>
<path fill="#62C5DC" d="M312,326.1l-0.2-1.6c0-0.1-0.3-3,0-6.4c0.2-2,0.8-3.6,1.4-4.7c-1.9-1.1-4.1-3.4-3.6-7.1
	c0.5-4.3,4.5-6.6,7.9-6.6c1.8,0,3.4,0.6,4.6,1.7c2.8,2.6,2.9,5.4,2.3,7.2c-0.2,0.6-0.4,1.2-0.6,1.7c1.3,0.5,3,1.4,4.3,2.9
	c1.6,1.9,3.2,6,3.4,6.4l0.6,1.4L312,326.1z M317.5,302.5c-2.3,0-4.9,1.5-5.2,4.2c-0.2,1.6,0.3,2.8,1.4,3.8c0.9,0.8,1.9,1,1.9,1
	l1.9,0.6l-1.2,1.6c0,0-1.5,1.9-1.8,4.7c-0.2,1.7-0.1,3.2-0.1,4.3l14-3.5c-0.6-1.4-1.6-3.2-2.3-4.2c-1.6-1.8-4.5-2.5-4.6-2.5
	l-2.3-0.5l1.5-1.7c0.3-0.3,2.9-3.6-0.5-6.7C319.6,302.9,318.6,302.5,317.5,302.5z"/>
<path fill="#62C5DC" d="M346.9,304.2c-1.9,0-2.9-0.4-3.4-0.7c-2.7-1.9-3.7-9-3.9-10.4c-0.1-0.7,0.5-1.4,1.2-1.5s1.4,0.5,1.5,1.2l0,0
	c0.5,3.5,1.6,7.8,2.7,8.6c0.1,0.1,1.2,0.6,6.2-0.2c2.8-0.5,5.3-1.2,5.3-1.2c0.7-0.2,1.5,0.3,1.6,1c0.2,0.7-0.3,1.5-1,1.6
	c-0.1,0-2.7,0.7-5.5,1.2C349.7,304.1,348.1,304.2,346.9,304.2z"/>
<path fill="#62C5DC" d="M176,348c-4.1,0-7.5-3.4-7.5-7.5c0-4.2,3.4-7.5,7.5-7.5c4.1,0,7.5,3.4,7.5,7.5
	C183.5,344.6,180.1,348,176,348z M176,335.8c-2.6,0-4.7,2.1-4.7,4.7c0,2.6,2.1,4.7,4.7,4.7c2.6,0,4.7-2.1,4.7-4.7
	C180.7,337.9,178.6,335.8,176,335.8z"/>
<path fill="#62C5DC" d="M176,370.8c-0.4,0-0.8-0.2-1-0.5c-0.1-0.1-4.3-5.1-8.4-11.1c-5.7-8.3-8.6-14.6-8.6-18.7
	c0-10,8.1-18.1,18.1-18.1c10,0,18.1,8.1,18.1,18.1c0,4.2-2.9,10.4-8.6,18.7c-4.1,6.1-8.4,11.1-8.4,11.1
	C176.8,370.6,176.4,370.8,176,370.8z M176,325.1c-8.4,0-15.3,6.9-15.3,15.3c0,6.6,10.2,20.5,15.3,26.7c5.1-6.2,15.3-20.1,15.3-26.7
	C191.3,332,184.5,325.1,176,325.1z"/>
<path fill="#62C5DC" d="M226.7,311.3c-3.8,0-6.8-3-6.8-6.8c0-3.8,3-6.8,6.8-6.8c3.8,0,6.8,3,6.8,6.8
	C233.5,308.2,230.4,311.3,226.7,311.3z M226.7,300.5c-2.2,0-4,1.8-4,4c0,2.2,1.8,4,4,4c2.2,0,4-1.8,4-4
	C230.6,302.2,228.9,300.5,226.7,300.5z"/>
<path fill="#62C5DC" d="M226.7,331.1c-0.4,0-0.7-0.2-1-0.5c-0.1-0.1-3.8-4.4-7.4-9.7c-5-7.3-7.5-12.8-7.5-16.5
	c0-8.8,7.1-15.9,15.9-15.9s15.9,7.1,15.9,15.9c0,3.6-2.5,9.1-7.5,16.5c-3.6,5.3-7.4,9.7-7.4,9.7C227.4,331,227.1,331.1,226.7,331.1z
	 M226.7,291.1c-7.4,0-13.4,6-13.4,13.4c0,5.8,8.9,17.9,13.4,23.4c4.5-5.5,13.4-17.6,13.4-23.4C240.1,297.1,234.1,291.1,226.7,291.1z
	"/>
<path fill="#62C5DC" d="M179.9,370.9c-2.4,0-3.8-0.1-4-0.1c-0.8-0.1-1.4-0.8-1.2-1.6c0.1-0.8,0.8-1.4,1.6-1.2l0,0
	c0.1,0,10,0.9,23.9-2.3c4.5-1,9.1-3.3,12.8-6.1c3.7-2.9,4.9-5.1,4.7-5.9c-0.1-0.5-1.3-1-4.4-0.6c-7.2,0.8-12.5-2.8-14.9-6.2
	c-1.8-2.6-2.3-5.4-1.2-7.7c0.8-1.8,3-4,8.6-4.3c14.1-0.8,19.7-5.7,19.8-5.8c0.6-0.5,1.4-0.5,1.9,0.1c0.5,0.6,0.5,1.4-0.1,1.9
	c-0.3,0.2-6.3,5.6-21.5,6.5c-3.2,0.2-5.4,1.2-6.2,2.7c-0.6,1.3-0.3,3,1,4.8c2.1,2.9,6.7,5.6,12.3,5c2.1-0.3,3.7-0.1,4.9,0.3
	c1.9,0.6,2.4,1.9,2.5,2.7c0.6,3.3-3.8,7.1-5.8,8.6c-4,3-9,5.4-13.9,6.6C191.5,370.5,184.2,370.9,179.9,370.9z"/>
<path fill="#62C5DC" d="M24.7,297c5.7,2,18.3,5.8,34.9,6.8c4.1,0.3,7.3,0.4,9.5,0.4c0.6,0,1,0,1.4,0c0.6,0.6,1.3,1.1,2.3,1.2
	c0.2,0,0.3,0.1,0.4,0.1c0.3,0.1,0.6,0.2,1.2,0.2h0.1c0.1,0,0.3,0,0.4,0s0.3-0.1,0.5-0.1h0.1c-0.5,0.9-0.8,1.8-0.8,2.3
	c-0.1,1,0.4,1.9,1.2,2.5c0.4,0.3,0.9,0.4,1.4,0.4c0.4,0,0.7-0.1,1.2-0.3c0.4,0.3,0.9,0.4,1.6,0.4c1,0,2.1-0.5,3.2-1.2
	c0.3,0.1,0.6,0.1,0.8,0.1c0.1,0,0.1,0,0.2,0c-0.5,0.9-0.8,1.8-0.9,2.5c-0.2,1.2,0.2,2,0.6,2.5c-0.1,0.6-0.3,1.4-0.3,2.2
	c0.1,4.2,2,7.1,4.7,7.1h0.1c0.1,0,0.1,0,0.1,0c0.7-0.1,2.1-0.4,3-2.1c0.6-1.1,1-3.2,0.7-4.9c0.5,0.4,1,0.6,1.6,0.6
	c0.1,0,0.2,0,0.3,0c-0.1,0.1-0.1,0.1-0.2,0.2c-0.3,0.4-0.8,1-0.8,1.9c0,1.8,1.8,2.9,2.9,3.4h0.1c0.5,0.2,0.9,0.3,1.4,0.3
	c1.9,0,4-1.4,4.9-2.6c0.2-0.3,1-0.9,1.5-1.4c1.5-1.2,2.5-2.2,2.9-3.2c0.1,0,0.1,0,0.2,0c1.6,0,3-1.2,3.8-2.1s1.1-2.1,0.8-3.1
	c0-0.2,0.1-0.6,0.4-1.2c0.5-0.2,1.7-0.7,5.1-1.4c0.3-0.1,0.5-0.1,0.7-0.1c-0.4,1.4-0.3,3,0.2,4.3c-0.3,0.4-0.5,0.8-0.5,1.2
	c-0.3,0.1-0.6,0.2-0.9,0.3c-0.7,0.3-1.3,1-2.3,1.9c-0.3,0.3-0.5,0.5-0.6,0.6c-1,0.9-1.1,1.9-1,2.4c0,0.3,0.1,0.6,0.2,0.8
	c-0.2,0.1-0.4,0.1-0.6,0.2h-0.1c-0.6,0-1.2,0.2-1.6,0.6c-0.6,0.5-1.1,1.4-1.4,2.5c-0.5,1.6,0.3,3.4,0.7,4.2c0.1,0.3,0.1,0.6,0.2,0.9
	v0.1c-0.5,0.6-0.6,1.4-0.5,2.1c0.2,0.7,0.6,1.3,1.2,1.7c-0.2,0.6-0.2,1.2,0.1,1.8c0,0.1-0.1,0.3-0.1,0.4c0,0.2,0,0.4,0,0.5
	c-0.8,0.6-1.3,1.4-1.6,2.1c-2.1,0.5-2.5,2.7-2.7,3.7c-1.1,1-3.4,3.2-4.3,6.2c-0.6,1.8-0.4,3.5,0.2,5c-0.1,0-0.1-0.1-0.1-0.1
	c-1.4-1-2.1-1.6-2.7-1.8c-0.3-0.1-0.7-0.2-1.1-0.2c-0.9,0-1.6,0.4-2.3,0.9c-0.3-0.2-0.5-0.4-0.8-0.6c-0.7-0.5-1.5-0.8-2.4-0.8
	c-0.7,0-1.4,0.1-1.9,0.4c-0.7-0.7-1.5-0.8-1.9-0.8c-1,0-1.8,0.5-2.4,1.4h-0.1c-0.6,0-1.2,0.1-1.8,0.5c-0.3-0.1-0.6-0.1-1-0.1
	c-0.7,0-1.4,0.3-1.9,0.6c-0.5,0.5-0.8,1.1-1,1.8c-0.1-0.1-0.2-0.1-0.3-0.1h-0.1c-0.4-0.1-0.7-0.3-1.2-0.3c-0.4,0-0.7,0.1-1,0.2
	c-0.1,0-0.2-0.1-0.3-0.1c-0.4-0.1-0.8-0.2-1.3-0.2c-1,0-1.9,0.3-2.9,0.6c-0.4-0.3-0.9-0.5-1.6-0.5h-0.1c-0.1,0-0.3,0-0.4,0
	c-0.9,0.1-2.4,1-2.3,3c-0.1,0-0.1,0.1-0.1,0.1c-2.8,1.2-3.6,2.1-4.8,3.5c-0.1,0.1-0.3,0.3-0.4,0.5c-0.3,0.3-0.5,0.6-0.6,0.9
	c-0.1-0.7-0.6-1.5-1.8-2.7c-0.6-1.3-2-4.1-4.1-5.3c-0.7-0.4-1.5-0.6-2.3-0.6c-1.6,0-2.9,0.8-3.9,1.6c-0.2-0.2-0.5-0.5-0.8-0.6
	c0.3-1.7-0.4-2.6-1-3c-0.4-0.5-1.5-1.8-2-2.4c-0.5-0.6-0.6-0.8-0.8-1c-0.6-0.7-1.3-1.2-6.5-1.4c-0.1,0-0.1,0-0.1,0
	c-0.6,0-1.3,0.3-1.8,0.7c-0.1,0.1-0.2,0.2-0.3,0.3c-1.3-0.2-2.9-0.5-3.8-0.8c-1.1-0.4-4.9-2.9-6.4-3.9c-0.1-0.3-0.2-0.5-0.3-0.7
	c-0.4-0.6-1-1-1.7-1c-1.3-0.2-2.7-0.5-3.8-0.7c-0.3-0.8-0.8-1.7-1.6-2.9c-0.2-0.3-0.5-0.6-0.6-0.8c-0.6-1-2-2-3.3-2.7
	c-0.1-1.1-0.6-2.3-1.3-3.6c-0.1-0.3-0.3-0.6-0.4-0.8c0.5-0.7,0.6-1.6,0.3-2.5c-0.1-0.2-0.2-0.5-0.7-1.2l0.3-0.9
	c0.3-0.8,0.1-1.6-0.4-2.3c-0.1-0.2-0.3-0.4-0.5-0.5c-0.1-0.5-0.4-0.9-0.6-1.2c0.5-0.6,1.1-1.3,1.1-2.4c0-0.4-0.1-0.9-0.5-1.8
	c0.6-0.9,0.8-1.4,0.8-1.9v-0.1c0.1-1,0.3-2.5,0.1-3.9c0.5-0.3,0.8-0.6,1-1c0.6-1.2,2.7-5.1,3.4-7.5c0.2,0.1,0.4,0.1,0.6,0.1
	c0.3,0,0.6-0.1,0.8-0.1c0.5-0.1,2-0.8,3.2-3.2C24.6,297.4,24.7,297.2,24.7,297 M22.5,293.3c0,0,0.5,1.6-0.3,3.2
	c-0.8,1.6-1.8,1.9-1.8,1.9l0.6-1.9c0,0-2.8-2.6-3-2.6l0,0c-0.1,0.1,0,3.6-0.4,5.5c-0.4,1.9-3.5,7.8-3.5,7.8s-1.6,0.8-1.4,2.3
	c0.3,1.6,0,3.5-0.1,3.7c0,0.3-1.5,2.1-1.5,2.1s1.1,1.5,1.1,1.9c0,0.4-1.4,1.5-1.4,2.3s1,1.7,1.1,2.2c0.1,0.5-0.1,1.2-0.1,1.2h0.9
	l-0.6,2.2c0,0,1.1,1.3,1.2,1.6c0.1,0.3-0.9,1.1-0.9,1.1s0.3,0.6,0.6,1.4s1.8,3.4,1.5,3.6c-0.3,0.3-1.1,1.1-0.3,1.3
	c0.8,0.2,3.6,1.7,4,2.5s1.9,2.8,2,3.4c0.1,0.6-0.3,0.9,0.2,1.1c0.5,0.2,5.5,1.1,5.5,1.1s-0.1,0.5,0.4,0.9c0.5,0.4,5.9,4.1,7.7,4.7
	c1.6,0.5,5.3,1.2,6.4,1.2c0.2,0,0.3,0,0.3-0.1c0-0.3,0-1.2,0-1.2s4.3,0.2,4.7,0.6s2.8,3.6,3.2,3.8c0.4,0.2-0.7,1.8,0.7,2.8
	c1.2,0.8,1.9,2,2.7,2c0.1,0,0.3-0.1,0.4-0.1c0.6-0.5,2-2.1,3.5-2.1c0.3,0,0.6,0.1,1,0.3c1.8,1,3.2,4.5,3.2,4.5s1.4,1.4,1.4,1.8
	c0,0.4-0.1,1.8,0.6,2.6c0.7,0.8,3,1.9,3.6,2.1c0.2,0.1,0.5,0.1,0.6,0.1c0.4,0,0.6-0.1,0.6-0.1s-1.8-3-0.5-4.5s1.6-2.1,4.3-3.2
	c2.7-1.2,1.3-2.9,1.9-3h0.1c0.5,0,0.7,0.8,1.2,0.8c0.1,0,0.1,0,0.2-0.1c0.5-0.2,2-1,3-1c0.2,0,0.3,0,0.5,0.1c1,0.3,2.5,0.6,2.7,0.6
	s-0.7-0.5-0.5-0.5c0.1,0,0.2,0.1,0.5,0.1c1,0.3,2.8,1.2,3.6,1.2c0.1,0,0.3-0.1,0.4-0.1c0.3-0.3,0.6-0.6,0.9-0.6
	c0.1,0,0.3,0.1,0.5,0.2c0.5,0.4,1.4,0.8,1.8,0.8c0.1,0,0.1-0.1,0.1-0.1c-0.1-0.4-1.2-1.1-1.5-1.5c-0.3-0.4,0.1-0.8,0.2-1.2
	c0-0.1,0.1-0.1,0.1-0.1s-0.2,0.2-0.9,0.2c-1.1,0-1.7-1-1.1-1c0.4,0,0.7,0.2,1.1,0.2c0.2,0,0.5-0.1,0.8-0.3s0.6-0.3,0.8-0.3
	c0.4,0,0.8,0.2,1.3,0.2c0.7,0,0.8-1.6,1.2-1.6c0.1,0,0.1,0.1,0.3,0.2c0.6,0.9,0.3,1.2,0.7,1.2c0.3,0,1.8-1,2.9-1
	c0.3,0,0.6,0.1,0.9,0.3c1.3,0.9,1.9,1.6,2.2,1.6l0,0c0.3,0,1.8-1.5,2.4-1.5c0.1,0,0.1,0,0.1,0c0.5,0.2,2.6,1.9,2.9,2.1
	c0.3,0.2,1.4,0.1,1.3,1.2c-0.1,1-0.5,2.9-0.3,3c0,0,0,0,0.1,0c0.2,0,0.6-1,0.8-1c0,0,0.1,0,0.1,0.1c0.1,0.4,0,2.1,0.6,2.8
	c0.6,0.6,1.2,0.7,1.4,1c0.3,0.3,0,0.6,0.5,1c0.5,0.4,2,1.5,2.2,2c0.1,0.1,0.2,0.2,0.3,0.2c0.5,0,1.1-0.5,1.2-1.1
	c0.1-0.8,0.8-3.5-0.5-4.9c-1.2-1.4-1-2.5-1.8-3.8c-0.8-1.4-3.6-4.3-2.7-7.3s4-5.3,4.3-5.7c0.3-0.4,0.2-2.3,0.9-2.5
	c0.7-0.1,1.2-0.1,1.4-0.3c0.2-0.1,0.3-1.9,1.4-2.4c1.1-0.5,2.1-0.7,1.9-1.2c-0.1-0.5-1.6-1-1-1.3c0.6-0.3,1.8,0,1.6-0.8
	c-0.2-0.8-0.8-1-0.8-1l-1.1,0.4c0,0,1.3-1.2,1.4-1.4s-0.7-1.5-0.7-1.5l-1.8-0.3l0.9-0.6c0,0-0.4-0.8-0.5-1.4
	c-0.1-0.6-0.3-1.5-0.3-1.5s-0.9-1.5-0.6-2.5c0.3-1,0.6-1.2,0.6-1.2s-0.5,2.1,0.3,2.8c0.8,0.6,1.4,0.8,1.4,1.3c0,0.6,0,2.3,0.1,2.5
	l0,0c0.1,0,0.3-1.7,0.5-2.1c0.3-0.5,1.4-1.9,0.6-2.6c-0.8-0.6-1.7-2.1-1.7-2.1s1.5,0.8,1.6,0.8s1.6-2.9,1.1-3.4
	c-0.5-0.6-1.4-0.7-0.8-1.2c0.6-0.5,1.8-1.9,2.3-2.1c0.5-0.2,2.5-0.5,2.4-1.2c-0.1-0.7-0.1-1,0-1.1c0,0,0,0,0.1,0
	c0.1,0,0.3,0.2,0.5,0.2c0.1,0,0.1,0,0.2-0.1c0.4-0.1,1.5-0.1,1.6-0.7c0.1-0.6,0.1-0.6,0.1-0.6s-0.2,0.6-0.7,0.6
	c-0.2,0-0.5-0.1-0.7-0.5c-0.9-1.1-1.3-3.6-0.6-4.7c0.6-1.1,2.7-2.6,2.3-2.9c-0.3-0.4,0.3-0.3,0.8-0.8c0.6-0.6,2.1-0.8,1.8-1.6
	c-0.3-0.8-1.3-0.8-1.8-1.5c-0.5-0.6-0.8-4.3-1.6-4.3l0,0c-0.8,0.1-1.9,1.2-2.1,1.2h-0.1c-0.1-0.1-0.2-1-0.4-1
	c-0.1,0-0.1,0.1-0.2,0.3c-0.3,1-0.4,2-0.5,2.5c-0.1,0.4,0.1,3.2-0.1,3.6c-0.3,0.5-1.8,1-1.6,1.2c0.1,0.2,0.4,0.6,0.2,0.6
	c-0.2,0.1-6.4,1.2-7.2,2.4c-0.8,1.2-1.1,2.7-0.9,3.4s-1.3,2.1-2.1,2.1c-0.1,0-0.1,0-0.1,0c-0.1,0-0.3-0.1-0.5-0.1
	c-1,0-2.5,0.3-2.7,0.6c-0.3,0.4,0.4,1,0.5,1.3c0.1,0.3-3.5,3-4,3.7c-0.4,0.6-1.9,1.6-2.9,1.6c-0.1,0-0.3,0-0.5-0.1
	c-0.9-0.5-1.4-0.9-1.4-1.1c0-0.1,1.8-1.8,1.4-3.4s-0.8-2.8-1-2.8s-2,1.5-2.3,1.5h-0.1c-0.1-0.3,1.5-1.5,1.1-2.9
	c-0.4-1.4-1.9-2.7-1.9-2.7l-1.8-0.3c0,0-0.5,1-1.1,2.5s-1.3,4.3-0.6,5.3s0.1,4.4-1.1,4.5h-0.1c-1.1,0-2.1-1.8-2.1-4.5
	c-0.1-2.7,1.8-4.9,1.2-4.9s-0.8,1.2-1.3,1.2c-0.1,0-0.1,0-0.2-0.1c-0.6-0.5,0.9-3.3,1.8-3.6s2.5-0.9,2.5-1.1
	c0.1-0.1,0.1-0.1,0.3-0.1c0.1,0,0.3,0,0.5,0c0.5,0,2.1-0.3,2.1-0.3s0.6-0.8-0.5-0.8c-1.1-0.1-1.7-0.1-1.9-0.5
	c-0.1-0.1-0.3-0.2-0.5-0.2c-0.4,0-0.9,0.2-1.4,0.5c-0.6,0.4-1.6,1-2.1,1c-0.1,0-0.3-0.1-0.4-0.1c-0.4-0.4-0.6-1.1-1-1.1
	c-0.1,0-0.1,0-0.2,0.1c-0.6,0.3-1,0.3-1,0.3l1.2-1.9c0,0-2.5,1.4-3.4,2.1c-0.6,0.5-1.4,0.8-1.8,0.8c-0.2,0-0.3-0.1-0.4-0.1
	c-0.3-0.3-0.2-1.2-0.2-1.2s-1.9,1.2-2.2,1.2l0,0c-0.1-0.1,0.9-2.3,1.6-2.6c0.7-0.3,2.8-1.2,2.8-1.2s-2.1,0-2.3-0.1
	c-0.3-0.1-0.3-0.1-0.3-0.1s-0.8,0.2-1.1,0.2c-0.1,0-0.1,0-0.1,0c-0.2-0.1-0.5-0.8-1-0.9s-1-0.8-1-0.8s-0.8,0.6-1.2,0.6
	c-0.1,0-0.1,0-0.1,0c-0.3,0-0.5-0.2-1.4-0.3c-0.9-0.1-1.5-1.7-1.6-1.8l0,0c-0.1,0-0.1,0.5-0.3,0.5c0,0-0.2,0.1-2.1,0.1
	c-1.6,0-4.4-0.1-9.3-0.4C37.6,299.8,22.5,293.3,22.5,293.3L22.5,293.3z"/>
<path fill="#62C5DC" d="M763.5,274.7h-56.5c-7.1,0-13-5.9-13-13v-45.3c0-7.1,5.9-13,13-13h56.5c7.1,0,13,5.8,13,13v45.3
	C776.5,268.8,770.6,274.7,763.5,274.7z M707,206.9c-5.3,0-9.6,4.3-9.6,9.6v45.3c0,5.3,4.3,9.6,9.6,9.6h56.5c5.3,0,9.6-4.3,9.6-9.6
	v-45.3c0-5.3-4.3-9.6-9.6-9.6H707L707,206.9z"/>
<path fill="#62C5DC" d="M759.6,205.2h-3.4v-2.3c0-5.3-4.3-9.6-9.6-9.6H724c-5.3,0-9.6,4.3-9.6,9.6v2.3H711v-2.3c0-7.1,5.9-13,13-13
	h22.6c7.1,0,13,5.8,13,13V205.2L759.6,205.2z"/>
<path fill="#62C5DC" d="M737.1,247.2c-0.5,0.5-1.4,0.8-2.3,0.8c-1,0-1.9-0.4-2.6-0.9c-0.6-0.6-1-1.7-1-3.2h-4.7v0.1
	c0,2.4,0.5,4.3,1.9,5.5s3,2,5.1,2.1v3.3h2.6v-3.3c2-0.3,3.6-0.9,4.9-2c1.2-1.2,1.8-2.7,1.8-4.6c0-1.9-0.5-3.5-1.8-4.6
	c-1.2-1.2-2.9-2.1-5.4-3c-1.4-0.5-2.3-1-2.7-1.6c-0.5-0.5-0.8-1.2-0.8-2.1c0-0.9,0.3-1.6,0.6-2.1c0.5-0.5,1.2-0.8,2.1-0.8
	c0.9,0,1.7,0.4,2.1,1c0.5,0.6,0.8,1.7,0.8,3h4.9v-0.1c0-2.1-0.5-3.8-1.6-5.2c-1.2-1.4-2.6-2.1-4.6-2.5v-3.6h-2.6v3.5
	c-2,0.3-3.6,0.9-4.7,2.1c-1.2,1.2-1.8,2.7-1.8,4.5c0,2,0.5,3.5,1.8,4.6c1.2,1.2,3,2.1,5.4,2.9c1.2,0.5,2.1,1,2.6,1.6
	c0.5,0.5,0.8,1.2,0.8,2.1C737.8,246.1,737.6,246.7,737.1,247.2z"/>
<path fill="#62C5DC" d="M564.9,254.9c-6,0-10.9-5-10.9-11.1c0-6.2,4.9-11.2,10.9-11.2c6,0,10.9,5,10.9,11.2
	C575.8,249.9,570.9,254.9,564.9,254.9z M564.9,235.3c-4.5,0-8.2,3.8-8.2,8.5c0,4.7,3.7,8.4,8.2,8.4c4.5,0,8.2-3.8,8.2-8.4
	C573.1,239.1,569.5,235.3,564.9,235.3z"/>
<path fill="#62C5DC" d="M641.4,254.9c-6,0-10.9-5-10.9-11.1c0-6.2,4.9-11.2,10.9-11.2c6,0,10.9,5,10.9,11.2
	C652.4,249.9,647.5,254.9,641.4,254.9z M641.4,235.3c-4.5,0-8.2,3.8-8.2,8.5c0,4.7,3.7,8.4,8.2,8.4c4.5,0,8.2-3.8,8.2-8.4
	C649.7,239.1,646,235.3,641.4,235.3z"/>
<path fill="#62C5DC" d="M658.3,249.5h-6.5l0.7-1.8c0,0,1.5-4-0.4-8.6c-1.6-4-6.2-7-10.8-7h-0.2c-4.8,0.1-8.6,2.7-10.4,7.4
	c-1.8,4.2-0.5,8.2-0.5,8.2l0.6,1.8h-1.9h-53l0.4-1.6c0-0.1,1.4-6.9-3-12.1c-1.8-2.1-5.2-3.5-8.7-3.5c-3.5,0-6.5,1.4-8.3,3.7
	c-4.8,6.4-2.3,11.7-2.3,11.7l1,1.9h-14.8l-0.4-0.5c-1-1.2-4-5.6-3.8-8c0.1-2.1,1.9-5.4,2.5-6.5v-3.4c-0.2-0.5-0.4-1.2-0.5-2.7v-0.1
	c-0.1-2.7,2.1-5.7,4.5-8.6c1.6-1.9,3.4-4,4.1-4.7v-3.8l1.1-0.2c0.4-0.1,10.4-1.9,43.2-1.7v1.2l0.1-1.2h0.2
	c5.4,0.3,23.9,1.5,32.1,5.5c3.1,1.4,14.2,8,15.8,8.9c0.2,0,0.4,0.1,0.7,0.2c2.1,0.5,7.1,1.4,11.5,3c4.4,1.6,8,4,9,4.7
	c1.5,1.4,2.4,3.7,2.8,4.9c0.5,0.3,1.2,0.8,1.4,1.6c0.1,0.5,0.3,1.8,0.3,2.1c0.5,2.7,0.3,3.3,0.2,3.5c-0.3,0.7-0.8,1.1-1.2,1.4l0,0
	c0,0.1,0,0.1,0,0.2l0.5,0.1v1c0,0.6-0.2,1.2-0.7,1.6C661.9,249.4,659.1,249.5,658.3,249.5L658.3,249.5z M655.5,246.9h2.8
	c0.9,0,1.8-0.2,2.4-0.4c-0.1-0.2-0.1-0.4-0.1-0.5v-0.2v-0.2c0.1-0.4,0.2-1.2,0.4-1.6c0.2-0.5,0.6-0.9,0.9-1.1c0.1,0,0.1-0.1,0.2-0.1
	c0-0.5-0.2-1.2-0.3-2.1v-0.1c0-0.4-0.2-1.2-0.2-1.6c-0.1,0-0.2-0.1-0.2-0.1l-0.7-0.2l-0.2-0.8c-0.2-0.8-0.9-3.1-2.1-4.1
	c-0.8-0.6-4.1-2.9-8.2-4.3c-4.3-1.5-9.1-2.6-11.2-2.9c-1.1-0.2-1.2-0.3-1.5-0.5c-1.2-0.7-12.5-7.5-15.6-8.8
	c-6.2-3-20.1-4.7-31.1-5.3h-0.1l0,0c-26.6-0.2-38.2,1.1-41.6,1.5v2.5l-0.4,0.4c0,0-2.4,2.7-4.4,5.1c-1.2,1.4-3.8,4.7-3.8,6.7
	c0.2,1.5,0.5,2.1,0.5,2.1l0.2,0.4v0.3v4.3l-0.2,0.3c-0.9,1.5-2.2,4.4-2.3,5.6c-0.1,0.9,1.4,3.5,2.9,5.7h9.3
	c-0.6-2.5-0.8-7.3,3.2-12.6c2.2-2.9,6.1-4.7,10.4-4.7c4.4,0,8.5,1.7,10.7,4.5c3.8,4.7,4,10.2,3.8,12.8h48.2c-0.3-1.9-0.5-5,0.9-8.3
	c2.3-5.6,7.1-8.9,12.8-9h0.3c5.7,0,11.3,3.7,13.3,8.7C656.1,241.7,655.9,244.9,655.5,246.9z"/>
<path fill="#62C5DC" d="M575.4,225.4l-29-1l2.1-2.1c0.1-0.1,2.3-2.4,4.9-4.4c2.5-1.9,5.4-3.5,5.4-3.5l0.2-0.1h0.2
	c0.2,0,4.8-1,6.5-1.2s7.3-0.3,7.6-0.3h1.2L575.4,225.4z M552.7,221.9l19.8,0.7l-0.4-7.1c-1.8,0.1-5,0.2-6.2,0.3
	c-1.4,0.1-5.2,0.9-6.1,1.1c-0.6,0.4-2.9,1.6-4.9,3.2C554.2,220.6,553.4,221.3,552.7,221.9z"/>
<path fill="#62C5DC" d="M600.7,226.6l-23.6-1.2v-1.2c0,0-0.1-2.6-0.3-5c-0.2-2.5-0.5-5-0.5-5l-0.3-1.4l1.4-0.2
	c0.2,0,5.1-0.5,10.2-0.5c5.4,0,10.7,0.5,11,0.5l1.2,0.1L600.7,226.6z M579.7,222.7l18.2,1l-0.6-8.7c-1.9-0.2-5.8-0.5-9.5-0.5
	c-3.4,0-6.7,0.3-8.5,0.5c0.1,1,0.3,2.4,0.4,3.8C579.6,220.3,579.7,221.8,579.7,222.7z"/>
<path fill="#62C5DC" d="M625.4,228.6l-21.5-1.9l-2.1-14.1l1.7,0.2c0.5,0,10,1.1,13.7,2.7c3.7,1.5,7,3.4,7.1,3.5l0.6,0.4L625.4,228.6
	z M606.3,224.2l16.3,1.4l-0.2-4.8c-1.2-0.6-3.6-1.9-6.2-2.9c-2.5-1.1-8.3-1.9-11.3-2.2L606.3,224.2z"/>
<path fill="#62C5DC" d="M439.1,273.5c-0.6,0-1.9-0.1-3-1c-1.2-1.2-1.4-2.7-1.4-2.9v-0.1V239h-8c-0.3-0.1-2.3-0.6-3-2.1
	c-0.9-1.8,0.6-3.8,0.9-4l40.1-40.2c0.5-0.6,2.3-2.6,5.3-2.5c2.6,0.1,4.3,1.5,4.9,2.5l12.2,12v-12.8h13v25.9l15.3,15.7l0.1,0.2
	c0.3,0.6,1,2.3,0.3,3.4c-0.6,0.9-1.8,1.6-2.1,1.8l-0.3,0.2h-8.4v30.6c-0.1,1.6-0.6,2.7-1.4,3c-0.6,0.3-1.8,0.6-2.3,0.8h-0.5h-22.4
	v-30.7h-17.1v30.7h-21.8C439.4,273.5,439.3,273.5,439.1,273.5z M437.8,269.4c0,0.1,0.1,0.6,0.5,1c0.1,0.1,0.5,0.2,0.9,0.2
	c0.1,0,0.1,0,0.1,0h0.2h18.8v-30.8h23.1v30.7h19.3c0.5-0.1,0.8-0.2,1-0.3c0.1-0.2,0.1-0.6,0.1-0.8v-33.5h10.7
	c0.2-0.1,0.5-0.3,0.6-0.5c0-0.1-0.1-0.2-0.1-0.3L497,218.7v-23.9h-6.7v17.1l-17.7-17.5c0,0-0.9-1.2-2.6-1.2h-0.2
	c-1.6,0-2.6,1.2-2.6,1.2l-0.1,0.2L427,234.9c-0.1,0.2-0.3,0.5-0.3,0.6c0.1,0.1,0.5,0.2,0.6,0.3h10.6L437.8,269.4L437.8,269.4z"/>
<path fill="#62C5DC" d="M363.1,265.4h-48.2c-2.5,0-4.7-2.2-4.7-4.7v-64.1c0-2.5,2.1-4.7,4.7-4.7h36.8l16.2,14.6v54.3
	C367.8,263.2,365.8,265.4,363.1,265.4z M314.9,194.5c-1.1,0-1.8,0.8-1.8,1.8v64.1c0,1.1,0.8,1.8,1.8,1.8h48.4c1.1,0,1.8-0.8,1.8-1.8
	v-53l-14.5-13L314.9,194.5L314.9,194.5z"/>
<path fill="#62C5DC" d="M352.1,276.4h-48.4c-2.5,0-4.7-2.2-4.7-4.7v-64.1c0-2.5,2.1-4.7,4.7-4.7h7.6v2.9h-7.6
	c-1.1,0-1.8,0.8-1.8,1.8v64.1c0,1.1,0.8,1.8,1.8,1.8h48.4c1.1,0,1.8-0.8,1.8-1.8v-7.8h2.9v7.8C356.9,274.2,354.7,276.4,352.1,276.4z
	"/>
<path fill="#62C5DC" d="M322.6,209.8v-3.4h20.9v3.4c0,0-6.2,0-9.9,0S322.6,209.8,322.6,209.8z"/>
<path fill="#62C5DC" d="M321.5,226.3v-3.4h35.1v3.4c0,0-22.8,0-18.5,0S321.5,226.3,321.5,226.3z"/>
<path fill="#62C5DC" d="M321.5,235.2v-3.4h35.1v3.4c0,0-23.5,0-18.8,0C342.5,235.2,321.5,235.2,321.5,235.2z"/>
<path fill="#62C5DC" d="M321.5,246.3v-3.4h35.1v3.4c0,0-14.9,0-19.4,0C332.7,246.3,321.5,246.3,321.5,246.3z"/>
<path fill="#62C5DC" d="M367.6,209c0,0-3.4,0-9.5-0.1c-6.2-0.1-8.4-0.1-8.4-0.1V193h2.9v13h15V209L367.6,209z"/>
<path fill="#62C5DC" d="M201.8,281.2h-20.7l-0.3-0.1c-0.2-0.1-6.3-2.9-10.4-6.7c-4.3-4.2-6.6-9.3-6.7-9.5v-0.4v-9.7l0.1-0.2
	c0.1-0.4,3.2-8.9,7.6-16.9c4.4-8.1,9.9-15.3,10.1-15.5l0.4-0.7h13.2c-7.4-2.3-12.8-9.3-12.8-17.6c0-10,8-18.2,17.8-18.2
	c9.8,0,17.8,8.2,17.8,18.2c0,8.3-5.4,15.3-12.8,17.6h11.4l0.3,0.1c0.8,0.4,15.8,7.5,19.7,33.2c2.3,8.1-14.8,18-18.2,19.7
	c-0.1,0.1-2.3,1.4-4.9,1.4l0,0c-1.7,0-3.1-0.5-4.3-1.5c-0.4-0.4-0.8-0.7-1.1-1c0,4.2-5.3,7.3-5.8,7.6L201.8,281.2z M181.8,278h19.1
	c1.5-0.9,4-3,3.8-4.7c-0.1-2.1-2-4.1-2.8-4.9l-21.6-1.5l9.1-9.3l-3.2-5.6c0-0.1-1.1-3.5,1.6-6.7c1.1-1.5,2.3-1.7,3.1-1.7
	c1.9,0,3.1,1.7,3.2,1.8c0,0,6.1,8.4,8.7,11.3c0.7,0.8,2.3,1.5,4.2,1.8c-4.2-1.8-7.1-6-7.1-11c0-6.5,5.3-11.9,11.5-11.9
	c6.3,0,11.5,5.4,11.5,11.9c0,5.2-3.2,9.7-7.8,11.2l-7.1,7.3c0.2,1.4,1,4.2,3,5.8c0.7,0.6,1.5,0.8,2.5,0.8c1.7,0,3.2-0.9,3.2-0.9
	c7.8-4.2,18-11.9,16.7-16l-0.1-0.2c-3.4-22.2-15.5-29.6-17.4-30.6h-32.4c-1.5,1.9-5.8,8.1-9.3,14.5c-3.8,6.9-6.7,14.7-7.2,16.1v8.3
	c0.4,1,2.5,5,5.7,8.2C175.7,275,180.6,277.4,181.8,278z M187.6,264.2l15.7,1l0.4,0.4c0.1,0.1,0.7,0.6,1.2,1.2
	c-0.1-0.7-0.1-1-0.2-1.2l-0.1-0.8l2.9-2.9c-2.8-0.2-5.8-1-7.5-3c-2.5-3-8.6-11.2-8.8-11.6c-0.2-0.2-0.4-0.5-0.6-0.5
	c0,0-0.3,0.1-0.7,0.6c-1.2,1.5-1.1,2.9-1,3.4l4.2,7.3L187.6,264.2z M211.3,239.1c-4.5,0-8.4,3.9-8.4,8.6c0,4.8,3.8,8.6,8.4,8.6
	s8.4-3.9,8.4-8.6C219.7,243,216.1,239.1,211.3,239.1z M200.1,189.2c-8,0-14.6,6.7-14.6,14.9s6.6,14.9,14.6,14.9s14.7-6.7,14.7-14.9
	S208.3,189.2,200.1,189.2z"/>
<path fill="#63C5DC" d="M95.4,192.1c-17.4,0-34.8,0-52.3,0c-4,1.2-3.8,6.2-3.8,10.4c0.2,21.1,0.2,42.2,0,63.3
	c0,4.1-0.3,9.1,3.8,10.4c17.4,0,34.8,0,52.3,0c2.5-0.5,4.1-2.1,4.7-4.7c0-25,0-49.8,0-74.6C99.5,194.2,97.9,192.7,95.4,192.1z
	 M97.3,234c0,11-0.1,22,0.1,33.1c0.1,4.3-1.4,6.2-5.9,6.2c-14.5-0.2-28.8-0.2-43.3,0c-4.6,0.1-6-1.9-5.9-6.2c0.1-22,0.1-44.1,0-66.2
	c0-4.3,1.4-6.2,5.9-6.2c14.5,0.2,28.8,0.2,43.3,0c4.5-0.1,6,1.9,5.9,6.2C97.2,212.1,97.3,223.1,97.3,234z"/>
<path fill="#66C6DC" d="M11.4,209.8c5.8-5.5,13.6-6.2,20.6-9.1c0.9-0.4,1.9-0.1,2.1,1c0.2,1.2-0.9,1.5-1.8,1.8
	c-4.7,1.7-9.3,3.6-14,5.1c-3.8,1.2-4.7,3.2-3.3,7c5.4,15,10.5,30.1,15.8,45.3c1.4,3.6,2.4,7.4,1.2,11.7c-1.6-4.3-3.2-8.6-4.7-13
	c-5-14-9.8-28.1-14.7-42.2c0,0-1.2-2.8-1.5-4.6C10.6,210.9,11.4,209.8,11.4,209.8z"/>
<path fill="#63C5DC" d="M69.8,265.8c-3.4,0-6.8,0-10.3,0c-0.9,0-2.1,0.1-2.1-1.2c-0.2-1.7,1.2-1.6,2.3-1.6c6.8,0,13.6,0,20.5,0
	c0.9,0,2.1-0.1,2.1,1.2c0.2,1.7-1.2,1.6-2.3,1.6C76.5,265.8,73.2,265.8,69.8,265.8z"/>
<path fill="#6BC7DD" d="M73.3,225c-4.1,2.4-10,5.8-13.7,1.4c-0.6-0.7-2.8-2.1-2.1-3.6c0.5-1.2,2.3-0.9,3.6-0.6
	C64.7,222.9,69.6,224.2,73.3,225z"/>
<path fill="#63C5DC" d="M50,202.4c-1.2-0.2-3,0.5-2.9-1.4c0-2.1,2.1-1.4,3.2-1.4c1.2-0.1,2.9-0.5,2.9,1.4
	C53.2,203.1,51.2,202.1,50,202.4z"/>
<path fill="#63C5DC" d="M59.3,202.4c-1.2-0.2-3,0.5-2.9-1.4c0-2.1,2.1-1.4,3.2-1.4c1.2-0.1,2.9-0.5,2.9,1.4
	C62.5,203.1,60.5,202.1,59.3,202.4z"/>
<path fill="#63C5DC" d="M69.6,202.4c-1.2-0.3-2.9,0.5-3-1.4c0-2.3,1.9-1.4,3.2-1.4c1.2-0.1,2.9-0.5,2.9,1.2
	C72.8,203.1,70.7,202.1,69.6,202.4z"/>
<path fill="#63C5DC" d="M80.1,202.4c-1.2-0.4-3.2,0.7-3.1-1.6c0.1-1.8,1.9-1.2,3-1.2c1.2,0,3.2-0.7,3.1,1.5
	C83,203,81.1,202.1,80.1,202.4z"/>
<path fill="#63C5DC" d="M90.5,202.5c-1.4-0.5-3.3,0.6-3.2-1.7c0.1-1.8,1.9-1.2,3-1.2c1.2,0.1,3.2-0.8,3.1,1.5
	C93.2,203,91.4,201.9,90.5,202.5z"/>
<path fill="#6BC7DD" d="M92.5,223.3c-0.8-1.5-2.1,0.7-3,1.2c-0.6,0.4-1.4,0.6-1.9-0.2c-0.5-0.7,2.5-1.8,2.3-2.1
	c-0.8-1-4.9-0.3-7.1,0.6c-6.4,2.8-12.8,5.6-19,8.7c-4,1.9-7.8,4.9-12.3,1.2c-0.7-0.6-1.8-0.5-2.5,0.3c-1,1,0.4,1.7,0.9,2.3
	c1,1,2.5,1.7,2.3,3.2c-0.5,3.2,0.8,3.4,2.7,3c3.4-0.7,6.9-1.8,11-2.8c1.2-0.5,2,0.2,1.9,2.1c-0.2,1.9-0.2,3.8-0.3,5.6
	c-0.1,1.2-0.4,3.3,0.2,3.3c1.8-0.2,2.9-0.6,3.6-2.1c1.6-3.2,3.4-6.4,4.6-9.7c1.2-3.2,3.1-5.1,6.2-6.4c3-1.2,5.9-2.7,8.8-4.3
	C91.7,226.6,93.4,224.7,92.5,223.3z M74.1,235.2c-0.5,2.3-4.3,11.5-4.5,11.1c-0.3-1,1.9-10.3,0.4-11.3c-1.2,0.3-2.3,0.6-3.6,0.9
	c-0.8,0.4-12.1,4-12.3,2.8c0.1-0.2,23.3-12.4,30.1-14.1c-0.7,1.7,2.1,2.7,2.1,2.7S76.3,229.9,74.1,235.2z"/>
<path fill-rule="evenodd" clip-rule="evenodd" fill="none" stroke="#FFFFFF" stroke-width="3.0881" stroke-linecap="round" d="
	M702.4,72.1l35.5,0l6,0l1.6-1.6V21.2l-9.7-9.4h-33.5c-1.3,0-1.4,0.2-1.4,1.6v57.1C700.9,72.1,701.2,72.1,702.4,72.1z"/>
<polyline fill-rule="evenodd" clip-rule="evenodd" fill="none" stroke="#FFFFFF" stroke-width="2.1728" stroke-linecap="round" points="
	735.8,11.8 735.8,21.2 745.5,21.2 "/>
<path fill-rule="evenodd" clip-rule="evenodd" fill="none" stroke="#FFFFFF" stroke-width="3.0785" stroke-linecap="round" d="
	M700.9,21.1l-8.8,0c-1.2,0-1.4,0.2-1.4,1.5l0.2,56.7c0,1,0.3,1.5,1.5,1.5l42.7,0c1.2,0,1.5-0.5,1.5-1.6v-7.1"/>
<rect x="708.9" y="36.8" fill-rule="evenodd" clip-rule="evenodd" fill="none" stroke="#FFFFFF" stroke-width="3" stroke-linecap="round" width="28" height="0.5"/>
<rect x="708.9" y="45.8" fill-rule="evenodd" clip-rule="evenodd" fill="none" stroke="#FFFFFF" stroke-width="3" stroke-linecap="round" width="28" height="0.5"/>
<rect x="708.9" y="56.8" fill-rule="evenodd" clip-rule="evenodd" fill="none" stroke="#FFFFFF" stroke-width="3" stroke-linecap="round" width="28" height="0.5"/>
<rect x="708.9" y="21.8" fill-rule="evenodd" clip-rule="evenodd" fill="none" stroke="#FFFFFF" stroke-width="3" stroke-linecap="round" width="19.5" height="0.5"/>
<circle fill-rule="evenodd" clip-rule="evenodd" fill="none" stroke="#FFFFFF" stroke-width="2.7786" stroke-linecap="round" cx="606.7" cy="29.7" r="5.6"/>
<path fill-rule="evenodd" clip-rule="evenodd" fill="none" stroke="#FFFFFF" stroke-width="2.7786" stroke-linecap="round" d="
	M603.3,40c-4.3-1.4-7.5-5.5-7.5-10.3c0-6,4.9-10.9,10.9-10.9c6,0,10.9,4.9,10.9,10.9c0,4.8-3.2,8.9-8.2,10.2l0,20.3
	c0,8.3,6,16,20.3,16c7.6,0,17.7-6.3,17.7-15.8l0.1-5.8c-13.1-1.7-19.5-18.7-19.7-42.6h12.1c4.4,0,4.8,5.9,0,5.9l-6.7,0.1
	c0.2,13.7,5.7,31.2,17.3,31.2c11.3,0,16.8-19.5,16.8-31.3l-6.2-0.1c-4.6,0-4.4-5.9-0.1-5.9h11.8c0,23.9-6.6,41.3-19.1,42.6
	c0,3.4,0,7.4,0,7.4c0,11.1-11.5,20.1-24.4,20.1c-19.1,0-26-12.4-26-20.1L603.3,40z"/>
<path fill-rule="evenodd" clip-rule="evenodd" fill="none" stroke="#FFFFFF" stroke-width="2.9561" stroke-linecap="round" d="
	M547.7,2.6L547.5,41l39.9-0.1C587.9,20.7,567.9,1.5,547.7,2.6z"/>
<path fill-rule="evenodd" clip-rule="evenodd" fill="none" stroke="#FFFFFF" stroke-width="2.9494" stroke-linecap="round" d="
	M587.1,47l-80.3,0c-0.1,9.1,2.3,13.9,4.8,19.4c12.6-4.7,24.2,3,20.8,16.3c7.3,4.5,18.7,3.6,26.3,0.3c-3.8-13.3,10.9-21.9,22-16
	C585.6,61.6,587.3,54,587.1,47z"/>
<circle fill-rule="evenodd" clip-rule="evenodd" fill="none" stroke="#FFFFFF" stroke-width="2.8168" stroke-linecap="round" cx="571.8" cy="78.4" r="8.2"/>
<circle fill-rule="evenodd" clip-rule="evenodd" fill="none" stroke="#FFFFFF" stroke-width="2.8168" stroke-linecap="round" cx="519.8" cy="78.4" r="8.2"/>
</svg>
