<?xml version="1.0" encoding="utf-8"?>
<!-- Generator: Adobe Illustrator 19.2.1, SVG Export Plug-In . SVG Version: 6.00 Build 0)  -->
<svg version="1.1" id="Layer_1" xmlns="http://www.w3.org/2000/svg" xmlns:xlink="http://www.w3.org/1999/xlink" x="0px" y="0px"
	 width="933px" height="414.4px" viewBox="0 0 933 414.4" style="enable-background:new 0 0 933 414.4;" xml:space="preserve">
<style type="text/css">
	.st0{fill:#FFFFFF;}
	.st1{display:none;fill:#00DBFF;}
	.st2{fill:#62C5DC;}
	.st3{fill:#61C5DD;}
	.st4{fill:#63C5DC;}
	.st5{fill:#66C6DC;}
	.st6{fill:#6BC7DD;}
</style>
<g id="Services">
	<g id="ne_x5F_posredniki">
		<g>
			<path class="st0" d="M827.8,133.3l-2.9-2.7c1.9-2.1,3.1-4.9,3.1-7.7c0.1-5.9-4.9-10.8-10.7-10.8c-5.9,0-10.8,4.9-10.8,11
				c0,2.9,1,5.5,3,7.6l-2.9,2.7c-2.6-2.7-4-6.4-4-10.2c0-8.4,6.5-15,14.7-15c8.2,0,14.7,6.7,14.7,14.8
				C832.2,126.9,830.6,130.6,827.8,133.3z"/>
		</g>
		<g>
			<path class="st0" d="M832.7,168.1H802l-0.3-1.6c-0.3-1.2-5.4-28.5,6.7-37.4l2.3,3.1c-7.8,5.9-6.8,23.7-5.5,32h24.1
				c0.9-5.7,3.2-25.4-5.5-32.1l2.3-3.1c12.1,9.1,6.9,36.4,6.7,37.4L832.7,168.1z"/>
		</g>
		<g>
			<path class="st0" d="M873.7,133.3l-2.9-2.7c1.9-2.1,3.1-4.9,3.1-7.7c0-5.9-4.9-10.8-10.8-10.8c-5.9,0-10.8,4.9-10.8,11
				c0,2.9,1,5.5,3,7.6l-2.9,2.7c-2.6-2.7-4-6.4-4-10.2c0-8.4,6.5-15,14.7-15c8.2,0,14.7,6.7,14.7,14.8
				C877.8,126.9,876.3,130.6,873.7,133.3z"/>
		</g>
		<g>
			<path class="st0" d="M878.3,168.1h-30.7l-0.3-1.6c-0.3-1.2-5.4-28.5,6.7-37.4l2.3,3.1c-7.8,5.9-6.8,23.9-5.5,32.1H875
				c0.9-5.7,3.2-25.4-5.5-32.1l2.3-3.1c12.1,9.1,6.9,36.4,6.7,37.4L878.3,168.1z"/>
		</g>
		<g>
			<path class="st0" d="M919.3,133.3l-2.9-2.7c1.9-2.1,3.1-4.9,3.1-7.7c0-5.9-4.9-10.8-10.8-10.8c-6,0-10.8,4.9-10.8,11
				c0,2.9,1,5.5,3,7.6l-2.9,2.7c-2.6-2.7-4-6.4-4-10.2c0-8.4,6.7-15,14.7-15c8,0,14.7,6.7,14.7,14.8
				C923.5,126.9,922,130.6,919.3,133.3z"/>
		</g>
		<g>
			<path class="st0" d="M924,168.1h-30.7l-0.3-1.6c-0.3-1.2-5.4-28.5,6.7-37.4l2.3,3.1c-7.8,5.9-6.8,23.9-5.5,32.1h24.1
				c0.9-5.7,3.2-25.4-5.5-32.1l2.3-3.1c12.1,9.1,6.9,36.4,6.7,37.4L924,168.1z"/>
		</g>
		<path class="st0" d="M882.7,110.1l3.2,2.2L842,170l-3.2-2.2c0,0,12.6-16.5,18.4-24.4C862.8,135.9,882.7,110.1,882.7,110.1z"/>
		<path class="st0" d="M837.4,113.4l3-2.5c0,0,18,21.5,22.6,26.8c4.7,5.5,24.4,29.1,24.4,29.1l-3,2.5L837.4,113.4z"/>
	</g>
	<g id="individual">
		<path class="st0" d="M860.8,263.2c0,0,1.6-3.2,7-2.9c5.4,0.2,7.4,5.1,7.5,5.9c1.7,5.3-6.8,17.1-14.7,19.5
			c-8.2-2.7-16.9-14.1-14.8-19.5c-0.1-1.1,2.5-5.8,7.1-5.9C858.4,260.4,860.8,263.2,860.8,263.2z"/>
		<path class="st0" d="M904.1,317.8c0,0-6.9-6.9-13.7-7.6c-6.9-0.7-22,2.6-23.3,2.9c-1.4,0.3-2.5,1.1-5.8,1.2
			c-6.5,0.2-20.6-11.8-23.9-14.5c-9.4-7.7-11.2-11.5-13-15c0.2,0.3-0.3-1.2,0.2-1.4c1.6-1.4,4.4,0.3,5.9,0.6
			c1.5,0.2,3.2-0.1,3.2-0.1l9.7,7.6c0,0-5.8,1.9-3.8,6.8c0.6,2.1,2.6,3.3,3.8,3.8c1.2,0.6,8.3-0.5,12.1-0.5
			c6.8,0.3,12.1,2.1,12.1,2.1h3.8c0,0,2.1,0.1,2.9-1.2c0.8-1.4-0.8-2.1-0.8-2.1s-14.1-1.7-17.6-1.8c-3.5-0.1-10.9,0.8-10.9,0.8
			s-2.4-0.1-2.9-2.5c-0.5-2.5,1.7-2.9,1.7-2.9s-0.6-1.1,24.1-1.7c2.1-0.5,5.1-2.6,11.2-2.9c11.5-0.5,18.3,8.6,19.2,9.3
			c0.9,0.7,12.4,6.8,12.4,6.8l1.2-2.5c0,0-9.9-5-11.7-6.4c-2.1-1-5.8-9.1-20.6-9.5c-6.5,0.3-11.2,2.3-14.2,2.6
			c-2.9,0.3-16.8,1.5-18.3,1c-1.5-0.5-1.7-1.6-2.5-2.1c-0.8-0.6-1.4-0.3-2.9-1.7c-1.5-1.4-5.8-4.2-6.2-4.7c-0.5-0.6-5.1-1.1-4.2-0.8
			c0.9,0.3-2.5-1.2-6.2-1.2c-3.8-0.1-4.1,2.9-4,3.4c4.7,10.9,12.4,16.9,14.8,19.1c2.4,2.1,17.8,12.9,20,13.9c2.3,1,2.1,0.8,4.5,1
			c2.1,0.2,3.3,0.1,6.4-1.4c3-1.5,18.6-4.2,22.8-3.2c5.7,0.2,12.7,7.4,12.7,7.4L904.1,317.8z"/>
	</g>
	<g id="confident">
		<path class="st0" d="M864.3,222.5c3.3,0,3.8,3.7,3.8,6c0,2.6-2.2,6.4-3.8,6.4c-1.5,0-3.8-3.8-3.8-6.4
			C860.4,226.3,861,222.5,864.3,222.5 M864.3,219.9c-5.2,0-6.4,5.1-6.4,8.6c0,3.6,2.9,9,6.4,9c3.6,0,6.4-5.4,6.4-9
			C870.7,224.9,869.4,219.9,864.3,219.9L864.3,219.9z"/>
		<path class="st0" d="M865.1,243c-0.1,0-0.3,0-0.4,0H864c-3.1,0-7.3,0-9.3-2.1c-0.7-0.7-1.1-1.6-1.1-2.7c0-3.3,3.6-5.6,6.8-6.7
			l0.8,2.5c-2.5,0.8-5.1,2.3-5.1,4.1c0,0.4,0.1,0.7,0.4,1c1.2,1.2,5.2,1.2,7.4,1.2h0.7c2.3,0,6.5,0,7.9-1.2c0.3-0.3,0.3-0.5,0.3-0.8
			c0-1.8-2.7-3.4-5.4-4.2l0.7-2.6c3.6,1.1,7.4,3.4,7.4,6.7c0,1.1-0.4,1.9-1.1,2.7C872.4,243,868.3,243,865.1,243z"/>
		<path class="st0" d="M888.7,204.3h-2.6v-9.9c0-9-7.3-16.3-16.3-16.3h-11.5c-9,0-16.3,7.3-16.3,16.3v9.9h-2.7v-9.9
			c0-10.5,8.5-19,19-19h11.3c10.4,0,18.9,8.5,18.9,18.9v10H888.7z"/>
		<path class="st0" d="M883,209.3c5.9,0,10.5,4.8,10.5,10.5v22c0,5.9-4.8,10.5-10.5,10.5h-36.9c-5.9,0-10.5-4.8-10.5-10.5v-22
			c0-5.9,4.8-10.5,10.5-10.5H883 M883,206.6h-36.9c-7.3,0-13.2,5.9-13.2,13.2v22c0,7.3,5.9,13.2,13.2,13.2H883
			c7.3,0,13.2-5.9,13.2-13.2v-22C896.1,212.6,890.2,206.6,883,206.6L883,206.6z"/>
	</g>
	<path id="Family" class="st0" d="M899.2,349.1c-0.5-2.9-1.8-5.5-3.8-7.7l0,0c-1-1.2-2.7-2.7-4.9-3.8l0,0c-2.2-1-4.4-1.6-6.8-1.6
		c-3.5,0-6.8,1.2-9.7,3.4l0,0c-2.5,1.9-4,4.5-4.1,4.9l0,0l0,0c-1.3,2.3-1.9,4.9-1.9,7.6c0,0.5,0,1.2,0.1,1.7c0,0.5,0.4,0.9,0.8,1.2
		c0.3,0.1,0.6,0.3,0.9,0.4c1.3,3.8,3.9,6.8,7.3,8.5c-1.4,0.8-2.9,1.8-3.9,3c-0.5,0.6-0.5,1.6,0.1,2.2c0.6,0.5,1.6,0.5,2.2-0.1
		c0.5-0.6,1.2-1.2,1.8-1.6c0.9,2.6,3.4,4.5,6,4.5h-0.1c2.7,0,5.2-2.1,5.9-4.9c3.2,2.1,5.3,5.7,5.3,9.5v15.9l-13.9,9
		c-0.8,0.5-0.9,1.4-0.5,2.1c0.3,0.5,0.8,0.6,1.3,0.6c0.3,0,0.5-0.1,0.8-0.3l14.7-9.5c0.4-0.3,0.6-0.8,0.6-1.3V376
		c0-5.4-3.1-10.3-7.8-12.8c4.5-2.3,7.7-6.8,8.1-12.1c0.4-0.4,0.8-0.9,1.2-1.4C899.2,349.7,899.4,349.3,899.2,349.1z M883.4,368.6
		h-0.3c-1.8,0-3.4-1.8-3.4-3.9c0,0,0,0,0-0.1c1.2,0.3,2.5,0.5,3.8,0.5c1,0,2.2-0.1,3.2-0.4C886.5,366.9,885.1,368.6,883.4,368.6z
		 M883.4,362.1c-4.7-0.2-8.8-2.7-10.6-6.8c2.2-0.6,3.8-2.5,4.1-4.7c0.9,0.1,1.8,0.1,2.9,0.1c3.1,0,6-0.6,8.8-1.9
		c0.6,2.3,2.9,4.1,5.5,4.1c0.1,0,0.4,0,0.5,0C894.7,354.6,890.7,362.4,883.4,362.1z M894.1,349.8c-1.4,0-2.7-1.2-2.7-2.7v-0.8
		c0-0.5-0.3-1-0.8-1.3c-0.5-0.3-1-0.3-1.6,0c-2.7,1.7-5.9,2.6-9.3,2.6c-1.3,0-2.6-0.1-3.9-0.4c-0.5-0.1-0.9,0-1.3,0.3
		c-0.4,0.3-0.5,0.8-0.5,1.2v0.9c0,1.4-1.2,2.7-2.7,2.7c-0.1,0-0.3,0-0.3,0s0,0-0.1,0h-0.1c0-0.1,0-0.3,0-0.4c0-2.1,0.5-4.3,1.6-6
		l0,0c0,0,1.4-2.5,3.4-4l0,0c2.2-1.8,4.9-2.7,7.8-2.7c1.9,0,3.8,0.4,5.5,1.3h0.1c1.7,0.8,3,1.9,3.9,2.9l0,0c1.4,1.6,2.5,3.5,3,5.7
		C895.7,349.6,894.9,349.8,894.1,349.8z M870.4,389.1c3.5-2.1,5.8-5.8,5.8-10.2c0-1.9-0.5-3.8-1.3-5.4c0-0.1,0-0.1-0.1-0.1
		c-1.9-3.6-5.9-6.2-10.3-6.2c-4.5,0-8.4,2.5-10.3,6.2l-0.1,0.1c-0.9,1.7-1.3,3.5-1.3,5.4c0,4.3,2.3,8.1,5.8,10.2
		c-4.3,2.2-6.9,6.5-6.9,11.5v5.5c0,0.5,0.3,1,0.8,1.3l11.5,7.2c0.3,0.1,0.5,0.3,0.8,0.3c0.3,0,0.5-0.1,0.8-0.3l11.5-7.2
		c0.4-0.3,0.8-0.8,0.8-1.3v-5.7C877.3,395.7,874.7,391.3,870.4,389.1z M864.4,370.2c2.7,0,5,1.2,6.7,3.1c-2.1,0.6-4.4,0.9-6.7,0.9
		c-2.3,0-4.7-0.3-6.7-0.9C859.4,371.5,861.8,370.2,864.4,370.2z M855.8,379c0-1,0.1-1.9,0.5-2.9c2.6,0.8,5.3,1.3,8.2,1.3
		c2.9,0,5.7-0.4,8.2-1.3c0.3,0.9,0.5,1.8,0.5,2.9c0,4.8-3.9,8.6-8.6,8.6C859.9,387.6,855.8,383.8,855.8,379z M867.1,390.4
		c-0.1,1.4-1.4,2.5-2.6,2.5h-0.1c-1.2,0-2.6-1-2.7-2.5c0.9,0.3,1.8,0.4,2.9,0.4C865.3,390.8,866.2,390.6,867.1,390.4z M864.4,411.6
		l-9.9-6.3v-4.8c0-3.4,1.7-6.4,4.5-8.2c0.9,2.2,3.2,3.5,5.4,3.5h0.1c2.3,0,4.4-1.6,5.3-3.6c2.9,1.8,4.5,4.9,4.5,8.4v4.8L864.4,411.6
		z M853.5,370.5c0.4-0.8,0.3-1.7-0.5-2.1c-0.5-0.3-0.9-0.5-1.4-0.8c1.9-1,3.6-2.3,4.9-4.1c0.5,0.1,1.2,0.3,1.8,0.3
		c3,0,5.3-2.5,5.3-5.3v-3.9c0-4.9-1.8-9.4-5.2-12.9c-3.4-3.5-7.8-5.5-12.6-5.7l0,0c-0.4,0-0.8,0-1.2,0c-4.9,0.1-9.5,2.1-12.9,5.4
		c-3.5,3.5-5.4,8.1-5.4,13.2v3.9c0,3,2.5,5.3,5.3,5.3c0.6,0,1.2-0.1,1.8-0.3c1.4,1.9,3.4,3.4,5.5,4.4c-4.8,2.5-7.6,7.3-7.6,12.6V393
		c0,0.5,0.3,1,0.6,1.3l13.9,9c0.3,0.1,0.5,0.3,0.8,0.3c0.5,0,1-0.3,1.3-0.6c0.5-0.8,0.3-1.7-0.5-2.1l-13.2-8.6v-11.7
		c0-3.6,1.7-6.8,4.4-8.9c0.9,2.7,3.4,4.8,6,4.8h0.3c3,0,5.3-2.7,6-5.5c0.1,0,0.1,0.1,0.3,0.1C852,371.5,852.9,371.2,853.5,370.5z
		 M835.4,349.1c-1,1.7-1.6,3.6-1.6,5.5v3.9c0,0.8-0.4,1.4-0.9,1.8c0,0-0.1,0-0.1,0.1c-0.4,0.3-0.8,0.4-1.3,0.4c-1.3,0-2.3-1-2.3-2.3
		v-3.9c0.1-8.5,6.7-15.4,15.2-15.5c0.3,0,0.6,0,1,0c8.4,0.4,15,7.1,15,15.5v3.9c0,1.3-1,2.3-2.3,2.3c-0.5,0-0.9-0.1-1.3-0.4
		l-0.1-0.1c-0.5-0.4-0.9-1-0.9-1.8v-3.9c0-5.4-4-10-9.4-10.8c-0.4,0-0.9,0-1.2,0.3c-0.3,0.4-0.5,0.8-0.5,1.2c0,1-0.3,2.1-0.5,3.1
		h-7.5C836.2,348.3,835.7,348.7,835.4,349.1z M845,373.4h-0.3c-1.7,0-3.5-2.1-3.5-4.3c0-0.1,0-0.3,0-0.4c1.2,0.3,2.3,0.4,3.6,0.4
		c1.2,0,2.3-0.1,3.5-0.4C848.2,371,846.5,373.4,845,373.4z M844.8,366.1c-3.6,0-6.8-1.7-9-4.4c0.6-0.9,1.2-2.1,1.2-3.2v-3.9
		c0-1.2,0.3-2.2,0.6-3.2h7.6c0.6,0,1.2-0.4,1.4-1c0.4-1,0.6-2.1,0.9-3.2c3.1,1.2,5.3,4.1,5.3,7.5v3.9c0,1.2,0.4,2.3,1.2,3.2
		C851.8,364.6,848.5,366.1,844.8,366.1z"/>
</g>
<rect x="800" y="334.7" class="st1" width="126" height="79.6"/>
<g id="our_x5F_services">
	<g>
		<path class="st0" d="M763.6,377.9h-56.5c-7.1,0-13-5.9-13-13v-45.3c0-7.1,5.9-13,13-13h56.5c7.1,0,13,5.8,13,13v45.3
			C776.6,372,770.7,377.9,763.6,377.9z M707.1,310.1c-5.3,0-9.6,4.3-9.6,9.6V365c0,5.3,4.3,9.6,9.6,9.6h56.5c5.3,0,9.6-4.3,9.6-9.6
			v-45.3c0-5.3-4.3-9.6-9.6-9.6H707.1L707.1,310.1z"/>
		<path class="st0" d="M759.8,308.4h-3.4v-2.3c0-5.3-4.3-9.6-9.6-9.6h-22.6c-5.3,0-9.6,4.3-9.6,9.6v2.3h-3.4v-2.3
			c0-7.1,5.9-13,13-13h22.6c7.1,0,13,5.8,13,13V308.4L759.8,308.4z"/>
		<path class="st0" d="M737.2,350.5c-0.5,0.5-1.4,0.8-2.3,0.8c-1,0-1.9-0.4-2.6-0.9c-0.6-0.6-1-1.7-1-3.2h-4.7v0.1
			c0,2.4,0.5,4.3,1.9,5.5c1.4,1.2,3,2,5.1,2.1v3.3h2.6V355c2-0.3,3.6-0.9,4.9-2c1.2-1.2,1.8-2.7,1.8-4.6c0-1.9-0.5-3.5-1.8-4.6
			c-1.2-1.2-2.9-2.1-5.4-3c-1.4-0.5-2.3-1-2.7-1.6c-0.5-0.5-0.8-1.2-0.8-2.1c0-0.9,0.3-1.6,0.6-2.1c0.5-0.5,1.2-0.8,2.1-0.8
			c0.9,0,1.7,0.4,2.1,1c0.5,0.6,0.8,1.7,0.8,3h4.9V338c0-2.1-0.5-3.8-1.6-5.2c-1.2-1.4-2.6-2.1-4.6-2.5v-3.6H734v3.5
			c-2,0.3-3.6,0.9-4.7,2.1c-1.2,1.2-1.8,2.7-1.8,4.5c0,2,0.5,3.5,1.8,4.6c1.2,1.2,3,2.1,5.4,2.9c1.2,0.5,2.1,1,2.6,1.6
			c0.5,0.5,0.8,1.2,0.8,2.1C738,349.3,737.7,350,737.2,350.5z"/>
	</g>
	<g>
		<g>
			<path class="st0" d="M564.7,359.8c-6,0-10.9-5-10.9-11.1c0-6.2,4.9-11.2,10.9-11.2c6,0,10.9,5,10.9,11.2
				C575.6,354.8,570.7,359.8,564.7,359.8z M564.7,340.2c-4.5,0-8.2,3.8-8.2,8.5c0,4.7,3.7,8.4,8.2,8.4c4.5,0,8.2-3.8,8.2-8.4
				C572.9,344,569.2,340.2,564.7,340.2z"/>
		</g>
		<g>
			<path class="st0" d="M641.2,359.8c-6,0-10.9-5-10.9-11.1c0-6.2,4.9-11.2,10.9-11.2c6,0,10.9,5,10.9,11.2
				C652.1,354.8,647.2,359.8,641.2,359.8z M641.2,340.2c-4.5,0-8.2,3.8-8.2,8.5c0,4.7,3.7,8.4,8.2,8.4c4.5,0,8.2-3.8,8.2-8.4
				C649.5,344,645.7,340.2,641.2,340.2z"/>
		</g>
		<g>
			<path class="st0" d="M658,354.4h-6.5l0.7-1.8c0,0,1.5-4-0.4-8.6c-1.6-4-6.2-7-10.8-7h-0.2c-4.8,0.1-8.6,2.7-10.4,7.4
				c-1.8,4.2-0.5,8.2-0.5,8.2l0.6,1.8h-1.9h-53l0.4-1.6c0-0.1,1.4-6.9-3-12.1c-1.8-2.1-5.2-3.5-8.7-3.5c-3.5,0-6.5,1.4-8.3,3.7
				c-4.8,6.4-2.3,11.7-2.3,11.7l1,1.9h-14.8l-0.4-0.5c-1-1.2-4-5.6-3.8-8c0.1-2.1,1.9-5.4,2.5-6.5v-3.4c-0.2-0.5-0.4-1.2-0.5-2.7
				v-0.1c-0.1-2.7,2.1-5.7,4.5-8.6c1.6-1.9,3.4-4,4.1-4.7v-3.8l1.1-0.2c0.4-0.1,10.4-1.9,43.2-1.7v1.2l0.1-1.2h0.2
				c5.4,0.3,23.9,1.5,32.1,5.5c3.1,1.4,14.2,8,15.8,8.9c0.2,0,0.4,0.1,0.7,0.2c2.1,0.5,7.1,1.4,11.5,3c4.4,1.6,8,4,9,4.7
				c1.5,1.4,2.4,3.7,2.8,4.9c0.5,0.3,1.2,0.8,1.4,1.6c0.1,0.5,0.3,1.8,0.3,2.1c0.5,2.7,0.3,3.3,0.2,3.5c-0.3,0.7-0.8,1.1-1.2,1.4
				l0,0c0,0.1,0,0.1,0,0.2l0.5,0.1v1c0,0.6-0.2,1.2-0.7,1.6C661.6,354.3,658.8,354.4,658,354.4L658,354.4z M655.3,351.7h2.8
				c0.9,0,1.8-0.2,2.4-0.4c-0.1-0.2-0.1-0.4-0.1-0.5v-0.2v-0.2c0.1-0.4,0.2-1.2,0.4-1.6c0.2-0.5,0.6-0.9,0.9-1.1
				c0.1,0,0.1-0.1,0.2-0.1c0-0.5-0.2-1.2-0.3-2.1v-0.1c0-0.4-0.2-1.2-0.2-1.6c-0.1,0-0.2-0.1-0.2-0.1l-0.7-0.2l-0.2-0.8
				c-0.2-0.8-0.9-3.1-2.1-4.1c-0.8-0.6-4.1-2.9-8.2-4.3c-4.3-1.5-9.1-2.6-11.2-2.9c-1.1-0.2-1.2-0.3-1.5-0.5
				c-1.2-0.7-12.5-7.5-15.6-8.8c-6.2-3-20.1-4.7-31.1-5.3h-0.1l0,0c-26.6-0.2-38.2,1.1-41.6,1.5v2.5l-0.4,0.4c0,0-2.4,2.7-4.4,5.1
				c-1.2,1.4-3.8,4.7-3.8,6.7c0.2,1.5,0.5,2.1,0.5,2.1l0.2,0.4v0.3v4.3l-0.2,0.3c-0.9,1.5-2.2,4.4-2.3,5.6c-0.1,0.9,1.4,3.5,2.9,5.7
				h9.3c-0.6-2.5-0.8-7.3,3.2-12.6c2.2-2.9,6.1-4.7,10.4-4.7c4.4,0,8.5,1.7,10.7,4.5c3.8,4.7,4,10.2,3.8,12.8H627
				c-0.3-1.9-0.5-5,0.9-8.3c2.3-5.6,7.1-8.9,12.8-9h0.3c5.7,0,11.3,3.7,13.3,8.7C655.8,346.5,655.6,349.8,655.3,351.7z"/>
		</g>
		<g>
			<path class="st0" d="M575.1,330.3l-29-1l2.1-2.1c0.1-0.1,2.3-2.4,4.9-4.4c2.5-1.9,5.4-3.5,5.4-3.5l0.2-0.1h0.2
				c0.2,0,4.8-1,6.5-1.2s7.3-0.3,7.6-0.3h1.2L575.1,330.3z M552.4,326.8l19.8,0.7l-0.4-7.1c-1.8,0.1-5,0.2-6.2,0.3
				c-1.4,0.1-5.2,0.9-6.1,1.1c-0.6,0.4-2.9,1.6-4.9,3.2C553.9,325.5,553.1,326.2,552.4,326.8z"/>
		</g>
		<g>
			<path class="st0" d="M600.5,331.4l-23.6-1.2V329c0,0-0.1-2.6-0.3-5c-0.2-2.5-0.5-5-0.5-5l-0.3-1.4l1.4-0.2
				c0.2,0,5.1-0.5,10.2-0.5c5.4,0,10.7,0.5,11,0.5l1.2,0.1L600.5,331.4z M579.4,327.6l18.2,1l-0.6-8.7c-1.9-0.2-5.8-0.5-9.5-0.5
				c-3.4,0-6.7,0.3-8.5,0.5c0.1,1,0.3,2.4,0.4,3.8C579.3,325.2,579.4,326.6,579.4,327.6z"/>
		</g>
		<g>
			<path class="st0" d="M625.2,333.5l-21.5-1.9l-2.1-14.1l1.7,0.2c0.5,0,10,1.1,13.7,2.7c3.7,1.5,7,3.4,7.1,3.5l0.6,0.4L625.2,333.5
				z M606.1,329.1l16.3,1.4l-0.2-4.8c-1.2-0.6-3.6-1.9-6.2-2.9c-2.5-1.1-8.3-1.9-11.3-2.2L606.1,329.1z"/>
		</g>
	</g>
	<g>
		<path class="st0" d="M438.4,377.8c-0.6,0-1.9-0.1-3-1c-1.2-1.2-1.4-2.7-1.4-2.9v-0.1v-30.5h-8c-0.3-0.1-2.3-0.6-3-2.1
			c-0.9-1.8,0.6-3.8,0.9-4l40.1-40.2c0.5-0.6,2.3-2.6,5.3-2.5c2.6,0.1,4.3,1.5,4.9,2.5l12.2,12v-12.8h13v25.9l15.3,15.7l0.1,0.2
			c0.3,0.6,1,2.3,0.3,3.4c-0.6,0.9-1.8,1.6-2.1,1.8l-0.3,0.2h-8.4v30.6c-0.1,1.6-0.6,2.7-1.4,3c-0.6,0.3-1.8,0.6-2.3,0.8h-0.5h-22.4
			V347h-17.1v30.7h-21.8C438.8,377.8,438.6,377.8,438.4,377.8z M437.1,373.6c0,0.1,0.1,0.6,0.5,1c0.1,0.1,0.5,0.2,0.9,0.2
			c0.1,0,0.1,0,0.1,0h0.2h18.8V344h23.1v30.7H500c0.5-0.1,0.8-0.2,1-0.3c0.1-0.2,0.1-0.6,0.1-0.8V340h10.7c0.2-0.1,0.5-0.3,0.6-0.5
			c0-0.1-0.1-0.2-0.1-0.3L496.4,323v-23.9h-6.7v17.1L472,298.7c0,0-0.9-1.2-2.6-1.2h-0.2c-1.6,0-2.6,1.2-2.6,1.2l-0.1,0.2
			l-40.1,40.2c-0.1,0.2-0.3,0.5-0.3,0.6c0.1,0.1,0.5,0.2,0.6,0.3h10.6L437.1,373.6L437.1,373.6z"/>
	</g>
	<g>
		<g>
			<path class="st0" d="M363.7,368.3h-48.2c-2.5,0-4.7-2.2-4.7-4.7v-64.1c0-2.5,2.1-4.7,4.7-4.7h36.8l16.2,14.6v54.3
				C368.4,366.1,366.3,368.3,363.7,368.3z M315.4,297.4c-1.1,0-1.8,0.8-1.8,1.8v64.1c0,1.1,0.8,1.8,1.8,1.8h48.4
				c1.1,0,1.8-0.8,1.8-1.8v-53l-14.5-13L315.4,297.4L315.4,297.4z"/>
		</g>
		<g>
			<path class="st0" d="M352.7,379.3h-48.4c-2.5,0-4.7-2.2-4.7-4.7v-64.1c0-2.5,2.1-4.7,4.7-4.7h7.6v2.9h-7.6
				c-1.1,0-1.8,0.8-1.8,1.8v64.1c0,1.1,0.8,1.8,1.8,1.8h48.4c1.1,0,1.8-0.8,1.8-1.8v-7.8h2.9v7.8
				C357.5,377.1,355.3,379.3,352.7,379.3z"/>
		</g>
		<path class="st0" d="M323.2,312.7v-3.4H344v3.4c0,0-6.2,0-9.9,0C330.4,312.7,323.2,312.7,323.2,312.7z"/>
		<path class="st0" d="M322.1,329.2v-3.4h35.1v3.4c0,0-22.8,0-18.5,0C342.9,329.2,322.1,329.2,322.1,329.2z"/>
		<path class="st0" d="M322.1,338.1v-3.4h35.1v3.4c0,0-23.5,0-18.8,0C343.1,338.1,322.1,338.1,322.1,338.1z"/>
		<path class="st0" d="M322.1,349.2v-3.4h35.1v3.4c0,0-14.9,0-19.4,0C333.3,349.2,322.1,349.2,322.1,349.2z"/>
		<g>
			<path class="st0" d="M368.2,311.9c0,0-3.4,0-9.5-0.1c-6.2-0.1-8.4-0.1-8.4-0.1V296h2.9v13h15V311.9L368.2,311.9z"/>
		</g>
	</g>
	<g>
		<path class="st0" d="M201.4,383.7h-20.7l-0.3-0.1c-0.2-0.1-6.3-2.9-10.4-6.7c-4.3-4.2-6.6-9.3-6.7-9.5V367v-9.7l0.1-0.2
			c0.1-0.4,3.2-8.9,7.6-16.9c4.4-8.1,9.9-15.3,10.1-15.5l0.4-0.7h13.2c-7.4-2.3-12.8-9.3-12.8-17.6c0-10,8-18.2,17.8-18.2
			c9.8,0,17.8,8.2,17.8,18.2c0,8.3-5.4,15.3-12.8,17.6h11.4l0.3,0.1c0.8,0.4,15.8,7.5,19.7,33.2c2.3,8.1-14.8,18-18.2,19.7
			c-0.1,0.1-2.3,1.4-4.9,1.4l0,0c-1.7,0-3.1-0.5-4.3-1.5c-0.4-0.4-0.8-0.7-1.1-1c0,4.2-5.3,7.3-5.8,7.6L201.4,383.7z M181.4,380.5
			h19.1c1.5-0.9,4-3,3.8-4.7c-0.1-2.1-2-4.1-2.8-4.9l-21.6-1.5l9.1-9.3l-3.2-5.6c0-0.1-1.1-3.5,1.6-6.7c1.1-1.5,2.3-1.7,3.1-1.7
			c1.9,0,3.1,1.7,3.2,1.8c0,0,6.1,8.4,8.7,11.3c0.7,0.8,2.3,1.5,4.2,1.8c-4.2-1.8-7.1-6-7.1-11c0-6.5,5.3-11.9,11.5-11.9
			c6.3,0,11.5,5.4,11.5,11.9c0,5.2-3.2,9.7-7.8,11.2l-7.1,7.3c0.2,1.4,1,4.2,3,5.8c0.7,0.6,1.5,0.8,2.5,0.8c1.7,0,3.2-0.9,3.2-0.9
			c7.8-4.2,18-11.9,16.7-16l-0.1-0.2c-3.4-22.2-15.5-29.6-17.4-30.6H183c-1.5,1.9-5.8,8.1-9.3,14.5c-3.8,6.9-6.7,14.7-7.2,16.1v8.3
			c0.4,1,2.5,5,5.7,8.2C175.4,377.5,180.2,379.9,181.4,380.5z M187.3,366.7l15.7,1l0.4,0.4c0.1,0.1,0.7,0.6,1.2,1.2
			c-0.1-0.7-0.1-1-0.2-1.2l-0.1-0.8l2.9-2.9c-2.8-0.2-5.8-1-7.5-3c-2.5-3-8.6-11.2-8.8-11.6c-0.2-0.2-0.4-0.5-0.6-0.5
			c0,0-0.3,0.1-0.7,0.6c-1.2,1.5-1.1,2.9-1,3.4l4.2,7.3L187.3,366.7z M211,341.6c-4.5,0-8.4,3.9-8.4,8.6c0,4.8,3.8,8.6,8.4,8.6
			c4.6,0,8.4-3.9,8.4-8.6C219.3,345.5,215.7,341.6,211,341.6z M199.8,291.7c-8,0-14.6,6.7-14.6,14.9c0,8.2,6.6,14.9,14.6,14.9
			s14.7-6.7,14.7-14.9C214.4,298.4,207.9,291.7,199.8,291.7z"/>
	</g>
	<g>
		<path class="st0" d="M95.4,294.1c-17.4,0-34.8,0-52.3,0c-4,1.2-3.8,6.2-3.8,10.4c0.2,21.1,0.2,42.2,0,63.3c0,4.1-0.3,9.1,3.8,10.4
			c17.4,0,34.8,0,52.3,0c2.5-0.5,4.1-2.1,4.7-4.7c0-25,0-49.8,0-74.6C99.5,296.1,97.9,294.7,95.4,294.1z M97.3,336
			c0,11-0.1,22,0.1,33.1c0.1,4.3-1.4,6.2-5.9,6.2c-14.5-0.2-28.8-0.2-43.3,0c-4.6,0.1-6-1.9-5.9-6.2c0.1-22,0.1-44.1,0-66.2
			c0-4.3,1.4-6.2,5.9-6.2c14.5,0.2,28.8,0.2,43.3,0c4.5-0.1,6,1.9,5.9,6.2C97.2,314,97.3,325.1,97.3,336z"/>
		<path class="st0" d="M11.4,311.8c5.8-5.5,13.6-6.2,20.6-9.1c0.9-0.4,1.9-0.1,2.1,1c0.2,1.2-0.9,1.5-1.8,1.8
			c-4.7,1.7-9.3,3.6-14,5.1c-3.8,1.2-4.7,3.2-3.3,7c5.4,15,10.5,30.1,15.8,45.3c1.4,3.6,2.4,7.4,1.2,11.7c-1.6-4.3-3.2-8.6-4.7-13
			c-5-14-9.8-28.1-14.7-42.2c0,0-1.2-2.8-1.5-4.6C10.6,312.9,11.4,311.8,11.4,311.8z"/>
		<path class="st0" d="M69.8,367.8c-3.4,0-6.8,0-10.3,0c-0.9,0-2.1,0.1-2.1-1.2c-0.2-1.7,1.2-1.6,2.3-1.6c6.8,0,13.6,0,20.5,0
			c0.9,0,2.1-0.1,2.1,1.2c0.2,1.7-1.2,1.6-2.3,1.6C76.5,367.8,73.2,367.8,69.8,367.8z"/>
		<path class="st0" d="M73.3,327c-4.1,2.4-10,5.8-13.7,1.4c-0.6-0.7-2.8-2.1-2.1-3.6c0.5-1.2,2.3-0.9,3.6-0.6
			C64.7,324.9,69.6,326.2,73.3,327z"/>
		<path class="st0" d="M50,304.4c-1.2-0.2-3,0.5-2.9-1.4c0-2.1,2.1-1.4,3.2-1.4c1.2-0.1,2.9-0.5,2.9,1.4
			C53.2,305.1,51.2,304.1,50,304.4z"/>
		<path class="st0" d="M59.3,304.4c-1.2-0.2-3,0.5-2.9-1.4c0-2.1,2.1-1.4,3.2-1.4c1.2-0.1,2.9-0.5,2.9,1.4
			C62.5,305.1,60.5,304.1,59.3,304.4z"/>
		<path class="st0" d="M69.6,304.4c-1.2-0.3-2.9,0.5-3-1.4c0-2.3,1.9-1.4,3.2-1.4c1.2-0.1,2.9-0.5,2.9,1.2
			C72.8,305.1,70.7,304.1,69.6,304.4z"/>
		<path class="st0" d="M80.1,304.4c-1.2-0.4-3.2,0.7-3.1-1.6c0.1-1.8,1.9-1.2,3-1.2c1.2,0,3.2-0.7,3.1,1.5
			C83,305,81.1,304.1,80.1,304.4z"/>
		<path class="st0" d="M90.5,304.4c-1.4-0.5-3.3,0.6-3.2-1.7c0.1-1.8,1.9-1.2,3-1.2c1.2,0.1,3.2-0.8,3.1,1.5
			C93.2,305,91.4,303.9,90.5,304.4z"/>
		<path class="st0" d="M92.5,325.3c-0.8-1.5-2.1,0.7-3,1.2c-0.6,0.4-1.4,0.6-1.9-0.2c-0.5-0.7,2.5-1.8,2.3-2.1
			c-0.8-1-4.9-0.3-7.1,0.6c-6.4,2.8-12.8,5.6-19,8.7c-4,1.9-7.8,4.9-12.3,1.2c-0.7-0.6-1.8-0.5-2.5,0.3c-1,1,0.4,1.7,0.9,2.3
			c1,1,2.5,1.7,2.3,3.2c-0.5,3.2,0.8,3.4,2.7,3c3.4-0.7,6.9-1.8,11-2.8c1.2-0.5,2,0.2,1.9,2.1c-0.2,1.9-0.2,3.8-0.3,5.6
			c-0.1,1.2-0.4,3.3,0.2,3.3c1.8-0.2,2.9-0.6,3.6-2.1c1.6-3.2,3.4-6.4,4.6-9.7c1.2-3.2,3.1-5.1,6.2-6.4c3-1.2,5.9-2.7,8.8-4.3
			C91.7,328.6,93.4,326.7,92.5,325.3z M74.1,337.2c-0.5,2.3-4.3,11.5-4.5,11.1c-0.3-1,1.9-10.3,0.4-11.3c-1.2,0.3-2.3,0.6-3.6,0.9
			c-0.8,0.4-12.1,4-12.3,2.8c0.1-0.2,23.3-12.4,30.1-14.1c-0.7,1.7,2.1,2.7,2.1,2.7S76.3,331.9,74.1,337.2z"/>
	</g>
</g>
<g id="Layer_3">
	<g>
		<g>
			<path class="st2" d="M866.6,3.5c0.3,0,0.6,0.1,0.8,0.3l1.6,1.2l2-1c0,0,0.7-0.3,1.2-0.3c0.1,0,0.1,0,0.1,0l0,0
				c0.6,0.5,0.8,1,0.8,1.3v1.2l1,1c0,0,2.3,2.3,5.3,5.2c0.9,0.9,2,1.9,3,2.8c5.8,5.2,11.8,10.5,10.6,19.1
				c-1.4,10.6-13,15.5-13.1,15.5l-3.8,1.5l2.2,3.5c1.4,2.3,5.6,9.8,5.4,14c0,6.4,0.7,10,2.5,11.9c0.9,0.9,2,1.4,3.2,1.4
				c0.1,0,0.1,0,0.3,0c0.8,0.1,3.5,0.6,3.5,2.7c0,2.5-3.5,4.8-4.9,5.3c-0.9,0.3-4.5,1.2-8.1,1.6c-3.3,0.5-6.5,0.6-7.7,0.6
				c-0.1,0-0.3-0.1-0.4-0.1s-0.3-0.3-0.4-0.3l-2.8-3.5l-2.7,3.5l-0.1,0.1c0,0-0.1,0-0.3,0l0,0c0,0-1,0.1-2.4,0.1
				c-1.8,0-3.4-0.1-4.8-0.3c-3.6-0.5-7.5-1.5-7.6-1.5h-0.3h-0.3c0,0-2.3-0.5-4-1.9c-1-0.8-1.9-2.9-2.1-4.1c-0.1-0.8,1.8-1.9,3.2-2.4
				c2.3-0.3,6.6-2.1,6.7-13.2c0-4.4,3.7-11.7,5.2-14.1l2.1-3.6l-3.8-1.5c-0.6-0.3-14-5.4-13.2-17.5V32v-0.1
				c0.8-7.7,7.3-13.3,11.9-17.4c4.4-4,7.6-7.3,7.7-7.3l1.4-0.8l-0.5-1.6c0.1-0.3,0.3-0.6,0.8-1C866.5,3.5,866.6,3.5,866.6,3.5
				 M866.6,0c-0.7,0-1.5,0.3-2.3,0.8c-2.3,1.9-2.2,3.8-2.2,3.8s-3.2,3.3-7.5,7.1c-5.3,4.8-12.3,11-12.6,20.2
				c-1,14.8,15.4,21,15.4,21s-5.6,9.5-5.6,15.9c-0.1,9.3-3.2,9.8-3.7,9.8c-0.1,0-0.1,0-0.1,0s-6.6,1.9-6.1,6.4
				c0.3,1.9,1.4,4.8,3.3,6.4c2.4,2.1,5.6,2.7,5.6,2.7s4.1,1.2,8.1,1.6c1.9,0.3,3.7,0.3,5.3,0.3c1.6,0,2.7-0.1,2.7-0.1s0.9,0,1.6-0.4
				c0.7-0.4,1.2-1,1.2-1s0.6,0.6,1.2,1c0.7,0.5,1.6,0.6,1.6,0.6l0,0c0.1,0,4.3,0,8.8-0.6c4.3-0.6,8.8-1.9,8.8-1.9s7.3-3,7.3-8.8
				c-0.1-5.8-7.1-6.1-7.1-6.1s0,0-0.1,0c-0.6,0-2.3-0.7-2.3-9.8c0-6.2-6.1-15.9-6.1-15.9s13.4-5.3,15.2-18.3
				c1.6-12.3-8.5-18.9-14.8-24.8c-2.9-2.9-5.2-5.2-5.2-5.2s-0.1-2.2-2.2-3.8C873.7,0.1,873,0,872.2,0c-1.5,0-2.8,0.7-2.8,0.7
				S868.1,0,866.6,0L866.6,0z"/>
		</g>
		<g>
			<path class="st2" d="M869.4,13.4c1.3,1.3,3,2.9,5.1,4.7c0.5,0.6,1.2,1,2.1,1.8c3.3,2.4,9.9,7.6,9.6,14.2v0.1v0.1
				c0,4.5-7.3,8.2-10.2,9.3c-0.8,0.3-3.3,0.9-5.4,2.7c-0.4,0.3-0.7,0.6-1,0.8c-0.4-0.4-0.8-0.7-1.3-1c-2-1.5-4.5-2.3-5.2-2.4
				c-0.3-0.1-2.4-0.8-4.8-2.2c-2.3-1.4-4.8-3.4-5.6-7.5c-0.8-4.4,2.9-8.1,8.6-13.1c0.8-0.8,1.8-1.5,2.5-2.2
				C866.1,16.7,868,14.8,869.4,13.4 M869.3,8.5c0,0-3.2,3.4-7.7,7.5c-5.8,5.3-13.7,10.9-12.3,18.5c0.9,5.3,4.3,8.1,7.3,9.8
				c3,1.8,5.6,2.5,5.6,2.5s2.2,0.6,4,1.9c2,1.5,3.5,3.7,3.5,3.7s1.3-2.2,3-3.5c2-1.5,4.4-2.1,4.4-2.1s12.6-4.4,12.5-12.6
				c0.6-10.6-12.1-17.4-12.6-18.5C872.6,11.9,869.3,8.5,869.3,8.5L869.3,8.5z"/>
		</g>
		<g>
			<path class="st2" d="M869.1,21.6c4.5,0,8.2,4.1,8.2,9c0,5.1-3.7,9-8.2,9c-4.5,0-8.2-4.1-8.2-9C860.9,25.7,864.7,21.6,869.1,21.6
				 M869.1,18.1c-6.4,0-11.7,5.6-11.7,12.5c0,6.9,5.2,12.6,11.7,12.6c6.4,0,11.7-5.6,11.7-12.5C880.8,23.7,875.5,18.1,869.1,18.1
				L869.1,18.1z"/>
		</g>
	</g>
	<g>
		<g>
			<path class="st2" d="M760.7,87.4H710c-5.5,0-9.9-4.4-9.9-9.9V18.4c0-5.5,4.4-9.9,9.9-9.9h11.5v2.9H710c-3.8,0-7.1,3.2-7.1,7.1
				v59.1c0,3.8,3.2,7.1,7.1,7.1h50.8c3.8,0,7.1-3.2,7.1-7.1V18.4c0-3.8-3.2-7.1-7.1-7.1h-28.5V8.5h28.5c5.5,0,9.9,4.4,9.9,9.9v59.1
				C770.7,83,766.2,87.4,760.7,87.4z"/>
		</g>
		<g>
			<path class="st2" d="M735.1,36.7l-8.2-7.1l-8.2,7.1V9.8h2.9v20.4l5.3-4.6l5.3,4.6V9.8h2.9c0,0,0,2.7,0,10.2
				C735.2,27.5,735.1,36.7,735.1,36.7z"/>
		</g>
	</g>
	<g>
		<path class="st2" d="M601.4,54.7L581.8,43l0.4-22.9L602,9l19.6,11.7l-0.4,22.9L601.4,54.7z M584.7,41.3l16.8,10l17.1-9.5
			c0,0,0.1-7.5,0.2-11.7c0.1-4.1,0.1-7.9,0.1-7.9l-16.8-10L585,21.7L584.7,41.3z"/>
		<path class="st2" d="M582.9,86.9l-19.6-11.8l0.4-22.9l19.8-11.1l19.6,11.8l-0.4,22.9L582.9,86.9z M566.1,73.5l16.8,10l17-9.5
			l0.3-19.6l-16.8-10c0,0-7.3,4-10.3,5.8c-3,1.8-6.7,3.8-6.7,3.8L566.1,73.5z"/>
		<path class="st2" d="M619.5,86.9l-19.6-11.8l0.4-22.9l19.8-11.1l19.5,11.8l-0.4,22.9L619.5,86.9z M602.7,73.5c0,0,8,4.8,10.2,6.1
			c2.1,1.2,6.5,4,6.5,4l17.1-9.5l0.3-19.6l-16.8-10l-17.1,9.5L602.7,73.5z"/>
		<path class="st2" d="M619.7,22.4l-0.8-1.6c0,0,5-2.9,7.1-4c2-1.2,6.7-3.8,6.7-3.8l0.8,1.6L619.7,22.4z"/>
		<path class="st2" d="M637.4,75.9l0.8-1.6c0,0,3.3,1.8,5,2.8c1.8,1,4.5,2.6,4.5,2.6l-0.1,1.9L637.4,75.9z"/>
		<path class="st2" d="M565.6,75.3l-0.8-1.6l-5.6,3.2V79c0,0,0.6-0.3,2.6-1.4C563.8,76.4,565.6,75.3,565.6,75.3z"/>
		<path class="st2" d="M628.6,58.9h1.8c0,0,0,1.6,0,4.1c0,2.5,0,4.6,0,4.6h-1.8V58.9z"/>
		<path class="st2" d="M584.1,53.2l0.8,1.6c0,0-1.4,0.8-3.4,2c-1.9,1.2-4.2,2.5-4.2,2.5l-0.8-1.6L584.1,53.2z"/>
		<path class="st2" d="M601.5,21.5l1-1.6c0,0,2,1.2,3.4,2.1c1.4,0.9,4,2.5,4,2.5l-1,1.6L601.5,21.5z"/>
		<path class="st2" d="M637.4,53.9l0.8,1.6l9.7-5.5v-2c0,0-2.9,1.6-5,2.9C640.7,52.1,637.4,53.9,637.4,53.9z"/>
		<path class="st2" d="M583.5,21.8l0.8-1.6c0,0-3.4-1.9-6.5-3.7c-3.1-1.8-7.3-4.2-7.3-4.2l-0.8,1.6L583.5,21.8z"/>
	</g>
	<g>
		<path class="st3" d="M469.9,91.6c-6.5,0-12.6-1.2-18.2-3.4c-5.4-2.2-10-5.4-14.1-9.4c-7.8-8-12.2-19-12.2-31
			c0-5.8,1.2-11.5,3.4-16.9c2.2-5.2,5.4-9.9,9.3-14c4-4.1,8.6-7.3,13.6-9.6c5.3-2.3,10.8-3.6,16.3-3.6c0.5,0,1,0,1.4,0
			c9.7,0.4,17.8,2.7,24,6.9c3.2,2.2,5.9,5,7.5,7.8l0.8,1.4l-1.4,0.6c-0.6,0.3-1.4,0.5-2.2,0.7c-1.6,0.4-3.5,1-4.9,1.9l0,0
			c-0.4,0.3-0.8,0.5-1.2,0.7c-2.1,1.3-3.6,2.2-4.3,3.4c-1.6,3.2-0.5,7.4,0.3,10.1c0.5,1.8,0.8,2.8,0.5,3.6c-0.5,1.3-1.9,1.4-3.4,1.4
			c-0.5,0-1.1,0.1-1.6,0.1c-2.7,0.5-4.4,0.5-5.4,0.5c-1.2,0.1-1.3,0.1-1.6,0.3c-1.2,1-1.5,4-2,9.3c-0.2,2.5-0.9,3.6-1.6,4.7
			c-1.5,2.1-2.7,3-3.9,3c-0.1,0-0.1,0-0.3,0c-0.7-0.1-1.6-0.6-1.6-1.8c-0.1-0.5,0-1,0.1-1.6c0.1-0.4,0.1-0.8,0.1-1.2v-0.1
			c0.1-1.8,0.5-3,0.8-4c0.3-1,0.6-1.9,0.6-3.2c0-1.7-0.6-2.9-0.8-3.1c-0.1,0-0.1,0-0.3,0c-0.5,0-0.9,0.3-1.2,0.5
			c-0.1,0-0.1,0.1-0.1,0.1c-0.3,0.3-1.4,1.9-1.9,3.4c-0.3,0.7-0.3,1.4-0.3,2c0,0.8,0,1.8-0.6,2.7c-0.7,1.5-1.9,1.7-3.2,1.9l0,0
			c-0.3,0.1-0.6,0.1-1,0.1c-1.6,0-3.6-0.7-4.1-2.3c-0.5-1.6,0.8-2.6,1.8-3.4c1-0.8,2.1-1.8,2.7-3.3v-0.1c0.4-1,0.3-1.5,0.1-2.5
			c-0.1-1.1-0.4-2.6,0.1-5.1c0.3-1.4,0.5-2.3,0.7-2.9c0.2-0.7,0.3-1,0.3-1.8c-0.3-2.5-1.9-4.3-2.5-4.8l-0.1-0.1
			c-1.7-1.6-3.6-2.1-4.7-2.3c-0.1,0-0.1-0.1-0.3-0.1c-0.6-0.1-1.3-0.2-2-0.2c-2.9,0-6.1,1-8.9,2.7c-2.7,1.7-4.7,3.9-5.3,6
			c-1,3.3,0.2,6.1,3.8,9.1l0,0c3.7,3.3,7.1,7.5,3.6,14c-1,1.8-0.4,4,0.3,5.4c3.6,8.6,15.4,15.2,26.8,15.2c2.4,0,4.7-0.3,6.7-0.9
			c3.8-1.1,3.9-3.6,3.6-7.3c-0.1-1.1-0.1-2.1,0-3c0.3-1.7,1.4-2.3,2.3-2.5c6.2-1.4,7.9-3.4,7.4-8.8c-0.2-1.9-0.5-2.6-0.6-2.8
			c-0.3,0.1-1,0.6-1.8,1.4c-0.1,0.1-0.3,0.3-0.3,0.5c-0.3,0.5-0.7,1.1-1.6,1.6c-0.5,0.3-1.2,0.6-1.9,0.8h-0.1
			c-0.3,0.1-0.6,0.1-0.8,0.1c-1,0-1.8-0.3-2.6-0.7c-0.5-0.2-1-0.4-1.6-0.6h-0.1c-1.2-0.5-1.9-0.5-2.5-0.6c-0.7-0.1-1.6-0.1-2.3-1.1
			c-1.8-2.1-0.5-5.6,0.1-7.1l0.1-0.3c0.5-1.2,0.8-2.3,2-3c1.1-0.8,2.3-0.8,3.2-0.8c0.7,0,1.4,0.1,2,0.1c0.5,0.1,0.9,0.1,1.4,0.1
			c0.2,0,0.4,0,0.6,0c2.7,0,4.5-0.5,5.4-1.6c0.9-1.2,1.1-3,0.5-5.9c-0.1-0.5-0.3-1.1-0.5-1.7c-0.6-1.7-1.2-3.6-0.3-5.2
			c0.6-1.2,1.9-1.9,3.9-2.3l0,0c1.4-0.3,3-0.6,4.8-1c3.4-0.8,4.9-1.1,5.6-1.1h0.1c1.6,0,4,3,5.4,5.7c1.7,3,3.7,8.2,3.7,15.4
			c0.2,5-0.6,10.7-2.5,15.9c-2.1,6.2-5.4,11.9-9.7,16.3c-3.7,3.8-8,6.8-13,8.9C483,90.4,476.8,91.6,469.9,91.6z M468.2,6.5
			c-21.3,0-40,19.3-40,41.3c0,23.8,17.6,41,41.7,41c12.3,0,22.2-3.9,29.6-11.5c8.9-9.3,11.7-22.2,11.4-30.3v-0.1
			c0-11.6-5.4-17.6-6.6-18.4c-0.8,0.1-3.1,0.6-4.9,1c-1.7,0.4-3.4,0.8-4.9,1c-1.1,0.3-1.8,0.6-2.1,1c-0.3,0.6,0.1,1.8,0.5,3
			c0.3,0.6,0.5,1.3,0.6,2c0.8,3.7,0.5,6.4-1,8.2c-1.4,1.8-3.9,2.7-7.5,2.7c-0.2,0-0.4,0-0.6,0l0,0c-0.5,0-1-0.1-1.5-0.1
			c-0.6-0.1-1.2-0.1-1.8-0.1c-0.8,0-1.3,0.1-1.6,0.4l0,0c-0.4,0.3-0.6,0.7-1,1.8l-0.1,0.3c-0.9,2.3-1.1,3.8-0.6,4.4l0,0l0,0
			c0.1,0,0.3,0.1,0.5,0.1c0.6,0.1,1.6,0.1,3.2,0.7c0.7,0.3,1.4,0.5,1.8,0.7c0.7,0.3,1.1,0.5,1.5,0.5c0.1,0,0.2,0,0.3,0
			c0.4-0.1,0.7-0.3,0.9-0.4l0.1-0.1l0.1-0.1c0.4-0.3,0.5-0.5,0.8-0.8c0.1-0.2,0.3-0.5,0.5-0.7l0,0c1-1.1,2.4-2.4,3.9-2.4
			c0.3,0,0.6,0.1,0.8,0.1c1.9,0.7,2.2,3.4,2.4,5.1c0.4,3.6-0.2,6.1-1.8,8c-1.5,1.8-3.9,2.9-7.7,3.8c-0.1,0-0.1,0-0.1,0
			c-0.3,0.3-0.1,1.9-0.1,2.7c0.1,1.6,0.3,3.6-0.4,5.5c-0.8,2.3-2.5,3.8-5.2,4.6c-2.3,0.7-4.8,1-7.5,1c-5.8,0-12-1.6-17.4-4.6
			c-5.6-3.1-9.9-7.5-12-12.3c-1.2-2.9-1.3-5.5-0.1-7.7c2.1-4,1.3-6.9-3-10.6c-4.3-3.7-5.8-7.6-4.6-11.9c1.6-5.7,9.5-10.8,16.8-10.8
			c0.9,0,1.8,0.1,2.6,0.3h0.1c0.1,0,0.1,0.1,0.3,0.1c1.2,0.3,3.8,0.9,6,3l0.1,0.1c2,1.9,3.1,4.1,3.3,6.5v0.1c0.1,1.2-0.2,2-0.5,2.7
			c-0.2,0.6-0.4,1.2-0.6,2.5c-0.3,2.1-0.2,3.3,0,4.3c0.1,0.7,0.2,1.4,0.1,2.1c0.6-1.2,1.4-2.3,2-2.7c0,0,0.1-0.1,0.1-0.1
			c0.5-0.3,1.4-0.9,2.7-0.9c0.4,0,0.8,0.1,1.2,0.2l0.1,0.1c1.5,0.6,2.5,3,2.5,5.6c0,1.8-0.4,2.9-0.8,4.1c-0.3,1-0.6,1.9-0.7,3.3
			c0,0.3,0,0.6-0.1,1c0.2-0.3,0.5-0.5,0.7-1c0.5-0.7,1-1.4,1.2-3.3c0.6-6.2,0.9-9.3,3-11.2c1-0.8,1.9-0.8,3.2-0.9
			c1,0,2.6-0.1,5.1-0.5c0.6-0.1,1.3-0.1,1.9-0.2c0.3,0,0.6,0,0.8-0.1c-0.1-0.5-0.3-1-0.4-1.6c-0.8-3-2.3-7.9-0.1-12.1v-0.1
			c1-1.8,2.8-2.9,5.3-4.4c0.4-0.2,0.7-0.5,1.1-0.7c1.8-1.2,4-1.8,5.7-2.2c0.1,0,0.2-0.1,0.3-0.1c-2.8-3.8-10.5-11.2-28.3-11.9
			C469,6.5,468.7,6.5,468.2,6.5z M458.3,52.8c0.3,0.1,0.7,0.3,1.2,0.3c0.2,0,0.3,0,0.5-0.1h0.1c0.4-0.1,1-0.1,1.1-0.3
			c0,0,0,0,0.1-0.1l0.1-0.2l0.1-0.1c0.1-0.1,0.1-0.6,0.1-1.2c0-0.5,0-1,0.1-1.7c-0.8,1.4-1.9,2.2-2.7,2.9
			C458.7,52.4,458.5,52.6,458.3,52.8z"/>
	</g>
	<g>
		<path class="st2" d="M327.1,6.5c-0.3,0.7-0.3,1.4-0.3,2.3c0,4.8,3.2,8.6,4.5,10c2.4,2.5,7.6,4.5,8.5,4.9l0.3,0.1h0.3
			c0.1,0,13.2,3,20,11.9c6.8,8.9,6.5,24.1,6.5,24.2l-0.3,4.7l4.5-1.1c0,0,0.1,0,0.3,0c0.8,0,1.1,0,1.1,1.2c0,0.7-0.7,3.4-1.8,4.8
			c-1.2,1.6-2,2.3-2.5,2.5l-3.8-4l-1.9,5.8c-0.1,0.3-7,20-26,20c-0.3,0-0.5,0-0.8,0C316,93.2,308.3,75,308.1,74.2l-1.9-4.8l-3.4,3.1
			l0,0l0,0c-0.7-0.3-2.3-2-3.2-3.5c-0.6-0.8-0.9-2.6-0.9-3.4l0,0c0-1.1,0.1-1.6,0.3-1.7c0.1-0.1,0.3-0.3,0.9-0.3c0.1,0,0.3,0,0.3,0
			l5.1,1.1l-0.9-5.3c-0.3-0.1-1.9-10.4,4.5-20.9c6.5-10.4,15.8-13.2,15.8-13.2l5-1.4l-3-4.2c0,0-1.8-2.6-1.9-6.1
			C324.7,10.4,326.1,7.9,327.1,6.5 M334.5-0.1C334.5-0.1,334.5-0.1,334.5-0.1c-6.2,0-9.1,4.4-9.1,4.4s-4,4-4,10.4
			c0.1,4.7,2.5,7.9,2.5,7.9s-10.4,2.8-17.5,14.3c-7.1,11.7-5,22.8-5,22.8s-0.3-0.1-0.8-0.1c-1.6,0-4.9,0.6-4.7,5.4
			c0,0.3,0.3,3.2,1.5,5c1,1.8,3.7,4.8,5.4,5c0.3,0,0.3,0,0.6,0c1.4,0,1.9-0.5,1.9-0.5s8.3,20.6,30,21.3c0.3,0,0.6,0,0.9,0
			c21.1,0,28.7-21.8,28.7-21.8s1,1,2.5,1h0.1c1.4,0,3.1-1.5,5-4c1.9-2.5,2.5-6,2.5-7c-0.3-4-3-4.5-4.5-4.5c-0.6,0-0.9,0.1-0.9,0.1
			s0.5-16-7-25.8c-7.5-9.9-21.7-13-21.7-13s-5.1-1.9-7-4c-1.9-2-3.5-4.8-3.5-7.5c0-2.5,2.1-4,3.6-4c0.1,0,0.3,0,0.3,0
			c1.6,0.3,2.5,0.8,3,1.9c0.5,1-0.5,2.5-0.5,2.5s0.8,2.5,3.2,2.5c0.1,0,0.3,0,0.3,0c2.5-0.3,3-4.4,3-4.4s-0.5-3-2.5-5.4
			C339.5,1.2,337-0.1,334.5-0.1L334.5-0.1z"/>
	</g>
	<g>
		<path class="st2" d="M207.2,90.1h-13.9c-5.6,0-10.2-4.5-10.2-10.2V65.3h3v14.6c0,4,3.2,7.1,7.1,7.1h13.9c4,0,7.1-3.2,7.1-7.1V65.3
			h3v14.6C217.4,85.5,212.8,90.1,207.2,90.1z M186.2,35.6h-3V19.4c0-5.6,4.5-10.2,10.2-10.2h13.9c5.6,0,10.2,4.5,10.2,10.2v16.1h-3
			V19.4c0-4-3.2-7.1-7.1-7.1h-13.9c-4,0-7.1,3.2-7.1,7.1v16.2H186.2z"/>
		<path class="st2" d="M230.6,66.8h-16.2v-3h16.2c4,0,7.1-3.2,7.1-7.1V42.8c0-4-3.2-7.1-7.1-7.1h-14.7v-3h14.7
			c5.6,0,10.2,4.5,10.2,10.2v13.9C240.7,62.1,236.2,66.8,230.6,66.8z M186,66.8H170c-5.6,0-10.2-4.5-10.2-10.2V42.8
			c0-5.6,4.5-10.2,10.2-10.2h14.7v3H170c-4,0-7.1,3.2-7.1,7.1v13.9c0,4,3.2,7.1,7.1,7.1H186V66.8L186,66.8z"/>
	</g>
	<g>
		<g>
			<path class="st2" d="M71,51.2l-0.3-2.3c11.2-1.8,19.4-11.5,19.4-23.2c0-12.9-10.5-23.5-23.5-23.5c-12.9,0-23.5,10.5-23.5,23.5
				c0,11.7,8.2,21.5,19.5,23.2l-0.3,2.3c-12.4-1.9-21.5-12.6-21.5-25.5c0-14.2,11.5-25.8,25.8-25.8c14.2,0,25.8,11.5,25.8,25.8
				c0,6.3-2.1,12.3-6,16.9C82.6,47.3,77.1,50.3,71,51.2z"/>
		</g>
		<g>
			<path class="st2" d="M67.2,95.8H66c-2.5,0-6-1.9-6-4.8V73.1h2.3V91c0,1.2,2.1,2.5,3.6,2.5h1.2c1.6,0,3.6-1.2,3.6-2.5V73.1h2.3V91
				C73.2,93.9,69.7,95.8,67.2,95.8z"/>
		</g>
		<g>
			<path class="st2" d="M73.2,64.6h-2.3v-15h2.3c0,0,0,3.5,0,6.4C73.2,58.8,73.2,64.6,73.2,64.6z M62.4,64.6h-2.3c0,0,0-5.2,0-7.8
				c0-2.6,0-7.2,0-7.2h2.3V64.6z"/>
		</g>
		<g>
			<path class="st2" d="M61.2,75.5H44.5c-2.9,0-4.8-3.6-4.8-6v-1.2c0-2.5,1.9-6,4.8-6h16.8v2.3H44.5c-1.2,0-2.5,2.1-2.5,3.6v1.2
				c0,1.6,1.2,3.6,2.5,3.6h16.8V75.5z"/>
		</g>
		<g>
			<path class="st2" d="M88.9,75.5H72v-2.3h16.8c1.2,0,2.5-2.1,2.5-3.6v-1.2c0-1.6-1.2-3.6-2.5-3.6H72v-2.3h16.8
				c2.9,0,4.8,3.6,4.8,6v1.2C93.6,72,91.8,75.5,88.9,75.5z"/>
		</g>
		<g>
			<path class="st2" d="M66.7,40.7c-4,0-7.8-1.6-10.6-4.4c-2.9-2.9-4.4-6.6-4.4-10.6c0-4,1.6-7.7,4.4-10.6c2.9-2.9,6.6-4.4,10.6-4.4
				c4,0,7.8,1.6,10.6,4.4c2.9,2.9,4.4,6.6,4.4,10.6c0,4-1.6,7.8-4.4,10.6C74.5,39.2,70.6,40.7,66.7,40.7z M66.7,13.1
				c-6.9,0-12.6,5.6-12.6,12.6c0,7.1,5.6,12.6,12.6,12.6c7.1,0,12.6-5.6,12.6-12.6C79.3,18.6,73.7,13.1,66.7,13.1z"/>
		</g>
	</g>
	<g>
		<path class="st2" d="M769.6,231.8c1.4,0,3,0.1,4.6,0.5c2.7,0.5,4.9,2.9,5,5.4c0.1,6.9,0.1,18.3,0.1,27.6c0,2.1,0,4.1,0,5.9h-19.1
			v-22.4V244l-4.5,2c-0.3,0.1-0.5,0.2-0.6,0.3c-0.5,0.2-1,0.5-1.6,0.9c-4.3,3.5-9.7,5.6-16.9,6.5c-0.1,0-0.1,0-0.2,0
			c-0.8,0-1.5-0.6-1.6-1.3c-0.1-0.6,0.1-0.9,0.3-1c0.3-0.4,0.9-0.6,1.6-0.8c3.6-0.8,7.1-1.6,10.5-3c5.1-2.1,8.4-6.2,10.7-9.5
			C760.8,233.7,764.5,231.8,769.6,231.8L769.6,231.8 M769.6,228.6c-5.6,0-10.5,2.1-14.3,7.5c-2.5,3.5-5.3,6.7-9.3,8.4
			c-3.2,1.3-6.7,2.1-10,2.9c-2.9,0.6-4.7,2.6-4.3,5.3c0.3,2.3,2.3,4.1,4.7,4.1c0.2,0,0.4,0,0.6-0.1c6.7-0.9,13.1-2.9,18.5-7.2
			c0.3-0.3,0.8-0.4,1.6-0.7c0,6.1,0,19.8,0,25.5c8.6,0,16.8,0,25.2,0c0.1-0.5,0.3-0.6,0.3-0.9c0-9.3,0.1-26.6-0.1-35.8
			c-0.1-4.1-3.4-7.7-7.6-8.5C772.9,228.8,771.2,228.6,769.6,228.6L769.6,228.6z"/>
		<path class="st2" d="M699.1,231.7c2.7,0,5,0.5,7,1.6c2.1,1,3.9,2.7,5.5,5c3.7,5.2,8.4,8.8,14.2,10.7c-0.3,1-0.5,2-0.5,3
			c-3.8-1.2-7.3-3-11-6l-5.1-4v6.5v22.6H690c0-2.1,0-4.7,0-7.4c0.1-8.4,0.1-18.7-0.1-24.8c-0.1-1.6,0.5-3.2,1.7-4.5
			c1.3-1.4,3.1-2.3,5.2-2.5C697.6,231.8,698.4,231.7,699.1,231.7 M699.1,228.6c-0.8,0-1.6,0.1-2.5,0.1c-6,0.5-10,5.4-9.7,10.3
			c0.4,8.2,0.1,24.4,0.1,32.7c0,0.8,0,1.7,0,2.5c8.6,0,16.9,0,25.5,0c0-5.8,0-19.5,0-25.8c5.3,4.2,10.6,6.7,17.1,7.6
			c-1.7-3.4-1.2-6.3,0.9-9.2c-6.9-1.3-12.3-4.9-16.2-10.5C710.3,231,705.3,228.6,699.1,228.6L699.1,228.6z"/>
		<path class="st2" d="M699.6,207.4L699.6,207.4L699.6,207.4c2.1,0,4,0.8,5.4,2.3c1.4,1.5,2.2,3.4,2.2,5.5s-0.8,4-2.2,5.5
			c-1.4,1.5-3.3,2.3-5.4,2.3h-0.1c-2.1,0-4-0.8-5.4-2.3c-1.5-1.5-2.3-3.4-2.3-5.5s0.8-4.1,2.3-5.6
			C695.6,208.2,697.6,207.4,699.6,207.4 M699.6,204.2c-6,0-10.8,4.9-10.8,11c0,6,4.9,10.9,10.8,10.9c0.1,0,0.1,0,0.1,0
			c5.9-0.1,10.7-4.9,10.7-11c0-6-4.7-10.8-10.7-11C699.6,204.2,699.6,204.2,699.6,204.2L699.6,204.2z"/>
		<path class="st2" d="M769.6,207.4c2.1,0,4,0.8,5.4,2.3c1.5,1.5,2.3,3.5,2.3,5.6c0,2.1-0.8,4-2.3,5.5c-1.4,1.4-3.4,2.3-5.4,2.3
			c-0.1,0-0.1,0-0.1,0c-2,0-4-0.8-5.3-2.3c-1.4-1.5-2.2-3.4-2.2-5.5s0.8-4,2.3-5.4C765.6,208.2,767.6,207.4,769.6,207.4L769.6,207.4
			L769.6,207.4 M769.6,204.2L769.6,204.2c-6,0-10.8,4.9-10.8,10.9c0,6,4.7,10.9,10.6,11c0.1,0,0.1,0,0.2,0c6,0,10.8-4.9,10.8-10.9
			C780.5,209.2,775.7,204.2,769.6,204.2L769.6,204.2z"/>
	</g>
	<path class="st2" d="M617.3,195.1c0.8,0,1.6,0,2.3,0.1c3.6,0.3,6.8,1.4,9.7,3.2c2.3,1.5,4.5,3.5,6.4,6c0.1,0.2,0.3,0.3,0.4,0.5
		c-2.2-1-4.7-1.8-7-1.9c-0.5,0-1-0.1-1.5-0.1c-6.4,0-11.5,2.5-11.7,2.7c-1,0.5-1.6,1.6-1.6,2.7c0.1,1.2,0.9,2.1,2,2.4
		c0,0,3.4,1,6.9,3.4c4.3,3,6.7,6.7,7.1,11c0.5,4.5-0.6,9.3-1.9,13.2c-1.6-6.8-3.8-11.6-6.7-14.3c-6-5.4-13.1-6.9-13.4-6.9
		c-0.2-0.1-0.4-0.1-0.5-0.1c-0.8,0-1.6,0.4-2.1,1c-0.6,0.8-0.8,1.9-0.4,2.9c0.1,0.1,6.4,14.7,6.4,24.5c0,10.2-2.7,27-2.7,27.1
		c-0.1,0.8,0.1,1.6,0.5,2.1c0.5,0.6,1.2,1,1.9,1c0,0,3.3,0.3,6.8,1c3.5,0.6,5.4,1.3,6.4,1.8c-1.2,0.7-3.7,1.8-7.9,2.9
		c-5.8,1.4-12.6,2.1-19.4,2.1c-1.3,0-2.6,0-3.8-0.1c-8.6-0.4-16.1-1.1-21.9-2.1c-5.8-1-8.3-2-9.3-2.6c0.8-0.5,2.2-1.1,5.1-1.8
		c3.1-0.8,6.4-1.2,7.9-1.4h0.1c1.9-0.3,6.7-0.6,10.6-0.8c-0.6,1.4-0.8,2.5-0.6,3.6c0.5,3,3.2,4.8,5.6,4.8c1.9,0,3.4-1.2,4-2.9
		c0.1-0.3,0.5-1,0.9-1.8c2.8-5.1,9.3-17.2,9.2-31.9c-0.1-17.4-3.2-26.2-3.4-26.6c-0.3-0.9-1.2-1.6-2.1-1.8c-0.1,0-0.3-0.1-0.5-0.1
		c-0.8,0-1.6,0.4-2.1,1c-0.4,0.5-9.2,11-11,21.1c-0.7,4.2-0.5,8.8,0,12.8c-3.4-4.3-6.9-10.2-6.5-16.3c0.3-4.1,1.3-7.7,3.1-10.4
		c1.3-1.9,2.5-2.8,2.7-2.9c1.2-0.7,1.6-2.1,1.1-3.4c-0.5-1-1.5-1.7-2.6-1.7c-0.3,0-0.5,0-0.7,0.1c-0.3,0.1-8.2,2.3-14.3,9.3
		c-1.8,2-3.2,4.3-4.4,6.6c0.1-1.9,0.4-3.8,0.8-5.4c0.8-2.8,1.9-5.2,3.6-7.1c5.8-6.7,14.8-9.5,14.8-9.5c1.2-0.4,2-1.4,1.9-2.7
		c0-1.2-0.8-2.3-2.1-2.7c-0.3-0.1-2.5-0.6-5.7-0.6c-2.7,0-5.3,0.4-7.7,1.2c-0.6,0.2-1.2,0.5-1.9,0.6c2.7-3,6.2-5.6,10.2-6.3
		c1.4-0.3,2.9-0.3,4.2-0.3c3.2,0,6.2,0.6,9,1.8c2,0.8,3.1,1.8,3.2,1.8c0.5,0.5,1.2,0.6,1.8,0.6c0.1,0,0.3,0,0.5-0.1
		c0.8-0.1,1.5-0.6,1.9-1.4c0.1-0.1,1.5-2.4,4.3-4.5C607.2,196.6,611.9,195.1,617.3,195.1 M617.3,192.3c-14.7,0-20.8,10.4-20.8,10.4
		s-5.1-4.3-14-4.3c-1.4,0-3,0.1-4.7,0.4c-11.7,1.9-18.5,17.2-18.5,17.2s5.3-4.1,11.4-6.2c2.5-0.8,4.9-1,6.8-1c3,0,5,0.5,5,0.5
		s-9.7,2.9-16.1,10.4c-8.5,9.8-4,26.3-4,26.3s2.7-10.4,8.2-16.7c5.6-6.4,13-8.4,13-8.4s-6.4,4-7.1,15.6
		c-0.8,13.3,13.9,25.2,13.9,25.2s-3.6-11.7-1.9-21.1c1.6-9.4,10.3-19.8,10.3-19.8s3.1,8.5,3.2,25.6c0.1,17.2-9.4,30.8-10,32.8
		c-0.2,0.7-0.8,1-1.4,1c-1.2,0-2.7-1-2.9-2.4c-0.3-2.1,3.2-6.3,3.2-6.3s-12.8,0.6-16.3,1.1c-3.5,0.5-16.5,2.3-16.1,6.3
		c0.5,4,16.3,6.4,34.5,7.2c1.4,0.1,2.7,0.1,4,0.1c16.6,0,31.1-4.5,30.9-8c-0.2-3.8-16.5-5.4-16.5-5.4s2.7-17,2.7-27.6
		c0-10.5-6.5-25.6-6.5-25.6s6.5,1.3,12.1,6.3c6.2,5.6,7.3,22.1,7.3,22.1s7.1-12,6-23.3c-1.2-12.5-15.9-16.7-15.9-16.7
		s4.7-2.3,10.5-2.3c0.5,0,0.8,0,1.3,0.1c6.4,0.4,14,6.5,14,6.5s-5.3-18.3-23-19.6C619,192.4,618.1,192.3,617.3,192.3L617.3,192.3z"
		/>
	<g>
		<path class="st2" d="M426.5,203.3l8.8,5.7c0.5,0.4,1.2,1,1.4,1.4c0.1,0.3,0.2,1.3,0.1,2.1v0.1v0.1l-0.2,17.6l-10.1-8.4
			L426.5,203.3 M423.6,198.1v25.2l11.4,9.4c0,0,1.6,1.2,2.7,1.2c0.3,0,0.5-0.1,0.6-0.2c1.3-1,1.1-3,1.1-3l0.2-18.1
			c0,0,0.2-2.4-0.5-3.6c-0.6-1.2-2.3-2.4-2.3-2.4L423.6,198.1L423.6,198.1z"/>
		<g>
			<path class="st2" d="M442.1,224.5h-2.9v-2.6h2.5c0.4-0.1,0.9-0.4,1.1-0.6c0.2-0.2,0.5-0.9,0.6-1.6v-16.3c0-0.5-0.2-1.5-0.6-1.8
				c-0.9-0.5-1.8-0.6-2-0.7h-17.1v-2.6h17.3c0.1,0,1.6,0.2,3,1c1.9,1.1,1.9,3.7,1.9,4V220l-0.1,0.1c-0.1,0.5-0.6,2.1-1.4,3
				C443.7,223.9,442.4,224.4,442.1,224.5L442.1,224.5z"/>
		</g>
		<path class="st2" d="M492.7,196v3.1h-15h-6.5L469,196H492.7 M495.5,193.2h-32l6.2,8.8c0,0,1.6,0,7.9,0c6.4,0,17.8,0,17.8,0V193.2
			L495.5,193.2z"/>
		<path class="st2" d="M492.7,207.6v4.7c-0.1,0.5-0.4,2.5-1.6,4.5c-0.8,1.2-1.7,2.1-2.9,2.8c-1.5,0.8-3.3,1.3-5.4,1.3
			c-3.7,0-6.3-1.4-7.8-4.5c-1.2-2.4-1.4-4.9-1.4-5.1c0-1.6-1.3-2.8-2.9-2.8h-0.1l0.7-1L492.7,207.6 M495.5,204.7h-25.5l-5.1,6.6h6
			c0,0,0.2,12.3,12,12.3c11.8,0,12.6-11.2,12.6-11.2V204.7L495.5,204.7z"/>
		<path class="st2" d="M464,230.7c0.3,0,0.4,0,0.5,0c0.2,0.1,0.3,0.1,0.5,0.1h23.6l-20.8,27.4v-18.2c0-1.2-0.8-2.3-1.9-2.7
			c-0.3-0.1-0.6-0.1-0.9-0.1c-0.9,0-1.8,0.4-2.3,1.2l-12.5,16.9c-0.5,0.5-1.5,1.2-2.1,1.2c0,0,0,0-0.1,0c-0.7,0-1.9-0.6-2.4-1
			l-18.6-14.5c-0.1-0.2-0.5-0.6-0.6-1.1c-0.1-0.5-0.2-1.3,0.8-2.5c1-1.2,1.9-1.2,2.3-1.2l0,0c0.7,0,1.3,0.3,1.5,0.4l13.9,10.9
			c0.5,0.4,1.1,0.6,1.8,0.6c0.1,0,0.3,0,0.3,0c0.8-0.1,1.4-0.5,1.9-1.1l9.5-12.3c0.1-0.1,0.1-0.2,0.3-0.3c0.1-0.1,1-1.5,2.7-2.6
			C462.3,230.8,463.3,230.7,464,230.7L464,230.7 M464,227.9c-1,0-2.5,0.2-4.2,1.2c-2.6,1.6-3.7,3.6-3.7,3.6l-9.5,12.3l-14.1-11
			c0,0-1.4-0.9-3.1-0.9c-1.4,0-2.9,0.5-4.4,2.3c-3.5,4.1,0,7.5,0,7.5l18.8,14.7c0,0,2.1,1.6,4.1,1.6c0.1,0,0.1,0,0.2,0
			c2.1-0.1,4.1-2.1,4.1-2.1l12.6-17v26.6l29.4-38.7h-29.4C464.9,227.9,464.5,227.9,464,227.9L464,227.9z"/>
		<path class="st2" d="M502.6,230.9c1,0.3,2.2,0.7,2.9,1.6c1.4,1.7,1.5,3.7,1.5,3.8v48.6h-39.2v-8h29.9c1.6,0,2.9-1.3,2.9-2.9v-6.2
			c0-1.6-1.3-2.9-2.9-2.9h-20.2L502.6,230.9 M501.3,227.9l-29.5,40.1h25.9v6.2h-32.7v13.7h44.8v-51.5c0,0,0-3-2.1-5.6
			C505.7,228.1,501.3,227.9,501.3,227.9L501.3,227.9z"/>
	</g>
	<g>
		<path class="st2" d="M317.8,286.6c-3,0-5.6-2.1-6.2-5l-15.9-67.7c-0.4-1.7-0.1-3.4,0.8-4.8c0.9-1.4,2.3-2.5,4-2.8l52.3-11.7
			c0.5-0.1,0.9-0.2,1.4-0.2c3,0,5.6,2.1,6.2,5l15.9,67.7c0.4,1.7,0.1,3.4-0.8,4.8c-0.9,1.4-2.3,2.5-4,2.8l-52.3,11.7
			C318.7,286.6,318.3,286.6,317.8,286.6z M354.1,197c-0.3,0-0.5,0-0.8,0.1L301,208.8c-1,0.2-1.8,0.8-2.3,1.6
			c-0.5,0.8-0.7,1.8-0.5,2.8l15.9,67.7c0.4,1.7,1.9,2.9,3.6,2.9c0.3,0,0.5,0,0.8-0.1l52.3-11.7c1-0.2,1.8-0.8,2.3-1.6
			c0.5-0.8,0.7-1.8,0.5-2.8l-15.9-67.7C357.3,198.3,355.8,197,354.1,197z"/>
		<path class="st2" d="M312,236.6l-0.2-1.6c0-0.1-0.3-3,0-6.4c0.2-2,0.8-3.6,1.4-4.7c-1.9-1.1-4.1-3.4-3.6-7.1
			c0.5-4.3,4.5-6.6,7.9-6.6c1.8,0,3.4,0.6,4.6,1.7c2.8,2.6,2.9,5.4,2.3,7.2c-0.2,0.6-0.4,1.2-0.6,1.7c1.3,0.5,3,1.4,4.3,2.9
			c1.6,1.9,3.2,6,3.4,6.4l0.6,1.4L312,236.6z M317.5,213c-2.3,0-4.9,1.5-5.2,4.2c-0.2,1.6,0.3,2.8,1.4,3.8c0.9,0.8,1.9,1,1.9,1
			l1.9,0.6l-1.2,1.6c0,0-1.5,1.9-1.8,4.7c-0.2,1.7-0.1,3.2-0.1,4.3l14-3.5c-0.6-1.4-1.6-3.2-2.3-4.2c-1.6-1.8-4.5-2.5-4.6-2.5
			l-2.3-0.5l1.5-1.7c0.3-0.3,2.9-3.6-0.5-6.7C319.6,213.4,318.6,213,317.5,213z"/>
		<path class="st2" d="M346.9,214.7c-1.9,0-2.9-0.4-3.4-0.7c-2.7-1.9-3.7-9-3.9-10.4c-0.1-0.7,0.5-1.4,1.2-1.5
			c0.7-0.1,1.4,0.5,1.5,1.2l0,0c0.5,3.5,1.6,7.8,2.7,8.6c0.1,0.1,1.2,0.6,6.2-0.2c2.8-0.5,5.3-1.2,5.3-1.2c0.7-0.2,1.5,0.3,1.6,1
			c0.2,0.7-0.3,1.5-1,1.6c-0.1,0-2.7,0.7-5.5,1.2C349.7,214.5,348.1,214.7,346.9,214.7z"/>
	</g>
	<g>
		<path class="st2" d="M176,258.4c-4.1,0-7.5-3.4-7.5-7.5c0-4.2,3.4-7.5,7.5-7.5c4.1,0,7.5,3.4,7.5,7.5
			C183.5,255.1,180.1,258.4,176,258.4z M176,246.2c-2.6,0-4.7,2.1-4.7,4.7c0,2.6,2.1,4.7,4.7,4.7c2.6,0,4.7-2.1,4.7-4.7
			C180.7,248.3,178.6,246.2,176,246.2z"/>
		<path class="st2" d="M176,281.2c-0.4,0-0.8-0.2-1-0.5c-0.1-0.1-4.3-5.1-8.4-11.1c-5.7-8.3-8.6-14.6-8.6-18.7
			c0-10,8.1-18.1,18.1-18.1c10,0,18.1,8.1,18.1,18.1c0,4.2-2.9,10.4-8.6,18.7c-4.1,6.1-8.4,11.1-8.4,11.1
			C176.8,281,176.4,281.2,176,281.2z M176,235.6c-8.4,0-15.3,6.9-15.3,15.3c0,6.6,10.2,20.5,15.3,26.7c5.1-6.2,15.3-20.1,15.3-26.7
			C191.3,242.4,184.5,235.6,176,235.6z"/>
		<path class="st2" d="M226.7,221.7c-3.8,0-6.8-3-6.8-6.8c0-3.8,3-6.8,6.8-6.8c3.8,0,6.8,3,6.8,6.8
			C233.5,218.6,230.4,221.7,226.7,221.7z M226.7,210.9c-2.2,0-4,1.8-4,4c0,2.2,1.8,4,4,4c2.2,0,4-1.8,4-4
			C230.6,212.7,228.9,210.9,226.7,210.9z"/>
		<path class="st2" d="M226.7,241.5c-0.4,0-0.7-0.2-1-0.5c-0.1-0.1-3.8-4.4-7.4-9.7c-5-7.3-7.5-12.8-7.5-16.5
			c0-8.8,7.1-15.9,15.9-15.9c8.8,0,15.9,7.1,15.9,15.9c0,3.6-2.5,9.1-7.5,16.5c-3.6,5.3-7.4,9.7-7.4,9.7
			C227.4,241.4,227.1,241.5,226.7,241.5z M226.7,201.5c-7.4,0-13.4,6-13.4,13.4c0,5.8,8.9,17.9,13.4,23.4
			c4.5-5.5,13.4-17.6,13.4-23.4C240.1,207.6,234.1,201.5,226.7,201.5z"/>
		<path class="st2" d="M179.9,281.3c-2.4,0-3.8-0.1-4-0.1c-0.8-0.1-1.4-0.8-1.2-1.6c0.1-0.8,0.8-1.4,1.6-1.2l0,0
			c0.1,0,10,0.9,23.9-2.3c4.5-1,9.1-3.3,12.8-6.1c3.7-2.9,4.9-5.1,4.7-5.9c-0.1-0.5-1.3-1-4.4-0.6c-7.2,0.8-12.5-2.8-14.9-6.2
			c-1.8-2.6-2.3-5.4-1.2-7.7c0.8-1.8,3-4,8.6-4.3c14.1-0.8,19.7-5.7,19.8-5.8c0.6-0.5,1.4-0.5,1.9,0.1c0.5,0.6,0.5,1.4-0.1,1.9
			c-0.3,0.2-6.3,5.6-21.5,6.5c-3.2,0.2-5.4,1.2-6.2,2.7c-0.6,1.3-0.3,3,1,4.8c2.1,2.9,6.7,5.6,12.3,5c2.1-0.3,3.7-0.1,4.9,0.3
			c1.9,0.6,2.4,1.9,2.5,2.7c0.6,3.3-3.8,7.1-5.8,8.6c-4,3-9,5.4-13.9,6.6C191.5,280.9,184.2,281.3,179.9,281.3z"/>
	</g>
	<g>
		<path class="st2" d="M24.7,207.5c5.7,2,18.3,5.8,34.9,6.8c4.1,0.3,7.3,0.4,9.5,0.4c0.6,0,1,0,1.4,0c0.6,0.6,1.3,1.1,2.3,1.2
			c0.2,0,0.3,0.1,0.4,0.1c0.3,0.1,0.6,0.2,1.2,0.2h0.1c0.1,0,0.3,0,0.4,0s0.3-0.1,0.5-0.1h0.1c-0.5,0.9-0.8,1.8-0.8,2.3
			c-0.1,1,0.4,1.9,1.2,2.5c0.4,0.3,0.9,0.4,1.4,0.4c0.4,0,0.7-0.1,1.2-0.3c0.4,0.3,0.9,0.4,1.6,0.4c1,0,2.1-0.5,3.2-1.2
			c0.3,0.1,0.6,0.1,0.8,0.1c0.1,0,0.1,0,0.2,0c-0.5,0.9-0.8,1.8-0.9,2.5c-0.2,1.2,0.2,2,0.6,2.5c-0.1,0.6-0.3,1.4-0.3,2.2
			c0.1,4.2,2,7.1,4.7,7.1h0.1c0.1,0,0.1,0,0.1,0c0.7-0.1,2.1-0.4,3-2.1c0.6-1.1,1-3.2,0.7-4.9c0.5,0.4,1,0.6,1.6,0.6
			c0.1,0,0.2,0,0.3,0c-0.1,0.1-0.1,0.1-0.2,0.2c-0.3,0.4-0.8,1-0.8,1.9c0,1.8,1.8,2.9,2.9,3.4h0.1c0.5,0.2,0.9,0.3,1.4,0.3
			c1.9,0,4-1.4,4.9-2.6c0.2-0.3,1-0.9,1.5-1.4c1.5-1.2,2.5-2.2,2.9-3.2c0.1,0,0.1,0,0.2,0c1.6,0,3-1.2,3.8-2.1
			c0.8-1,1.1-2.1,0.8-3.1c0-0.2,0.1-0.6,0.4-1.2c0.5-0.2,1.7-0.7,5.1-1.4c0.3-0.1,0.5-0.1,0.7-0.1c-0.4,1.4-0.3,3,0.2,4.3
			c-0.3,0.4-0.5,0.8-0.5,1.2c-0.3,0.1-0.6,0.2-0.9,0.3c-0.7,0.3-1.3,1-2.3,1.9c-0.3,0.3-0.5,0.5-0.6,0.6c-1,0.9-1.1,1.9-1,2.4
			c0,0.3,0.1,0.6,0.2,0.8c-0.2,0.1-0.4,0.1-0.6,0.2h-0.1c-0.6,0-1.2,0.2-1.6,0.6c-0.6,0.5-1.1,1.4-1.4,2.5c-0.5,1.6,0.3,3.4,0.7,4.2
			c0.1,0.3,0.1,0.6,0.2,0.9v0.1c-0.5,0.6-0.6,1.4-0.5,2.1c0.2,0.7,0.6,1.3,1.2,1.7c-0.2,0.6-0.2,1.2,0.1,1.8c0,0.1-0.1,0.3-0.1,0.4
			c0,0.2,0,0.4,0,0.5c-0.8,0.6-1.3,1.4-1.6,2.1c-2.1,0.5-2.5,2.7-2.7,3.7c-1.1,1-3.4,3.2-4.3,6.2c-0.6,1.8-0.4,3.5,0.2,5
			c-0.1,0-0.1-0.1-0.1-0.1c-1.4-1-2.1-1.6-2.7-1.8c-0.3-0.1-0.7-0.2-1.1-0.2c-0.9,0-1.6,0.4-2.3,0.9c-0.3-0.2-0.5-0.4-0.8-0.6
			c-0.7-0.5-1.5-0.8-2.4-0.8c-0.7,0-1.4,0.1-1.9,0.4c-0.7-0.7-1.5-0.8-1.9-0.8c-1,0-1.8,0.5-2.4,1.4h-0.1c-0.6,0-1.2,0.1-1.8,0.5
			c-0.3-0.1-0.6-0.1-1-0.1c-0.7,0-1.4,0.3-1.9,0.6c-0.5,0.5-0.8,1.1-1,1.8c-0.1-0.1-0.2-0.1-0.3-0.1h-0.1c-0.4-0.1-0.7-0.3-1.2-0.3
			c-0.4,0-0.7,0.1-1,0.2c-0.1,0-0.2-0.1-0.3-0.1c-0.4-0.1-0.8-0.2-1.3-0.2c-1,0-1.9,0.3-2.9,0.6c-0.4-0.3-0.9-0.5-1.6-0.5h-0.1
			c-0.1,0-0.3,0-0.4,0c-0.9,0.1-2.4,1-2.3,3c-0.1,0-0.1,0.1-0.1,0.1c-2.8,1.2-3.6,2.1-4.8,3.5c-0.1,0.1-0.3,0.3-0.4,0.5
			c-0.3,0.3-0.5,0.6-0.6,0.9c-0.1-0.7-0.6-1.5-1.8-2.7c-0.6-1.3-2-4.1-4.1-5.3c-0.7-0.4-1.5-0.6-2.3-0.6c-1.6,0-2.9,0.8-3.9,1.6
			c-0.2-0.2-0.5-0.5-0.8-0.6c0.3-1.7-0.4-2.6-1-3c-0.4-0.5-1.5-1.8-2-2.4c-0.5-0.6-0.6-0.8-0.8-1c-0.6-0.7-1.3-1.2-6.5-1.4
			c-0.1,0-0.1,0-0.1,0c-0.6,0-1.3,0.3-1.8,0.7c-0.1,0.1-0.2,0.2-0.3,0.3c-1.3-0.2-2.9-0.5-3.8-0.8c-1.1-0.4-4.9-2.9-6.4-3.9
			c-0.1-0.3-0.2-0.5-0.3-0.7c-0.4-0.6-1-1-1.7-1c-1.3-0.2-2.7-0.5-3.8-0.7c-0.3-0.8-0.8-1.7-1.6-2.9c-0.2-0.3-0.5-0.6-0.6-0.8
			c-0.6-1-2-2-3.3-2.7c-0.1-1.1-0.6-2.3-1.3-3.6c-0.1-0.3-0.3-0.6-0.4-0.8c0.5-0.7,0.6-1.6,0.3-2.5c-0.1-0.2-0.2-0.5-0.7-1.2
			l0.3-0.9c0.3-0.8,0.1-1.6-0.4-2.3c-0.1-0.2-0.3-0.4-0.5-0.5c-0.1-0.5-0.4-0.9-0.6-1.2c0.5-0.6,1.1-1.3,1.1-2.4
			c0-0.4-0.1-0.9-0.5-1.8c0.6-0.9,0.8-1.4,0.8-1.9v-0.1c0.1-1,0.3-2.5,0.1-3.9c0.5-0.3,0.8-0.6,1-1c0.6-1.2,2.7-5.1,3.4-7.5
			c0.2,0.1,0.4,0.1,0.6,0.1c0.3,0,0.6-0.1,0.8-0.1c0.5-0.1,2-0.8,3.2-3.2C24.6,207.8,24.7,207.7,24.7,207.5 M22.5,203.8
			c0,0,0.5,1.6-0.3,3.2c-0.8,1.6-1.8,1.9-1.8,1.9l0.6-1.9c0,0-2.8-2.6-3-2.6l0,0c-0.1,0.1,0,3.6-0.4,5.5c-0.4,1.9-3.5,7.8-3.5,7.8
			s-1.6,0.8-1.4,2.3c0.3,1.6,0,3.5-0.1,3.7c0,0.3-1.5,2.1-1.5,2.1s1.1,1.5,1.1,1.9c0,0.4-1.4,1.5-1.4,2.3c0,0.8,1,1.7,1.1,2.2
			c0.1,0.5-0.1,1.2-0.1,1.2h0.9l-0.6,2.2c0,0,1.1,1.3,1.2,1.6c0.1,0.3-0.9,1.1-0.9,1.1s0.3,0.6,0.6,1.4c0.3,0.8,1.8,3.4,1.5,3.6
			c-0.3,0.3-1.1,1.1-0.3,1.3c0.8,0.2,3.6,1.7,4,2.5c0.5,0.8,1.9,2.8,2,3.4c0.1,0.6-0.3,0.9,0.2,1.1c0.5,0.2,5.5,1.1,5.5,1.1
			s-0.1,0.5,0.4,0.9c0.5,0.4,5.9,4.1,7.7,4.7c1.6,0.5,5.3,1.2,6.4,1.2c0.2,0,0.3,0,0.3-0.1c0-0.3,0-1.2,0-1.2s4.3,0.2,4.7,0.6
			c0.3,0.4,2.8,3.6,3.2,3.8c0.4,0.2-0.7,1.8,0.7,2.8c1.2,0.8,1.9,2,2.7,2c0.1,0,0.3-0.1,0.4-0.1c0.6-0.5,2-2.1,3.5-2.1
			c0.3,0,0.6,0.1,1,0.3c1.8,1,3.2,4.5,3.2,4.5s1.4,1.4,1.4,1.8c0,0.4-0.1,1.8,0.6,2.6c0.7,0.8,3,1.9,3.6,2.1
			c0.2,0.1,0.5,0.1,0.6,0.1c0.4,0,0.6-0.1,0.6-0.1s-1.8-3-0.5-4.5c1.2-1.4,1.6-2.1,4.3-3.2c2.7-1.2,1.3-2.9,1.9-3h0.1
			c0.5,0,0.7,0.8,1.2,0.8c0.1,0,0.1,0,0.2-0.1c0.5-0.2,2-1,3-1c0.2,0,0.3,0,0.5,0.1c1,0.3,2.5,0.6,2.7,0.6c0.1,0-0.7-0.5-0.5-0.5
			c0.1,0,0.2,0.1,0.5,0.1c1,0.3,2.8,1.2,3.6,1.2c0.1,0,0.3-0.1,0.4-0.1c0.3-0.3,0.6-0.6,0.9-0.6c0.1,0,0.3,0.1,0.5,0.2
			c0.5,0.4,1.4,0.8,1.8,0.8c0.1,0,0.1-0.1,0.1-0.1c-0.1-0.4-1.2-1.1-1.5-1.5c-0.3-0.4,0.1-0.8,0.2-1.2c0-0.1,0.1-0.1,0.1-0.1
			s-0.2,0.2-0.9,0.2c-1.1,0-1.7-1-1.1-1c0.4,0,0.7,0.2,1.1,0.2c0.2,0,0.5-0.1,0.8-0.3c0.3-0.2,0.6-0.3,0.8-0.3
			c0.4,0,0.8,0.2,1.3,0.2c0.7,0,0.8-1.6,1.2-1.6c0.1,0,0.1,0.1,0.3,0.2c0.6,0.9,0.3,1.2,0.7,1.2c0.3,0,1.8-1,2.9-1
			c0.3,0,0.6,0.1,0.9,0.3c1.3,0.9,1.9,1.6,2.2,1.6l0,0c0.3,0,1.8-1.5,2.4-1.5c0.1,0,0.1,0,0.1,0c0.5,0.2,2.6,1.9,2.9,2.1
			c0.3,0.2,1.4,0.1,1.3,1.2c-0.1,1-0.5,2.9-0.3,3c0,0,0,0,0.1,0c0.2,0,0.6-1,0.8-1c0,0,0.1,0,0.1,0.1c0.1,0.4,0,2.1,0.6,2.8
			c0.6,0.6,1.2,0.7,1.4,1c0.3,0.3,0,0.6,0.5,1c0.5,0.4,2,1.5,2.2,2c0.1,0.1,0.2,0.2,0.3,0.2c0.5,0,1.1-0.5,1.2-1.1
			c0.1-0.8,0.8-3.5-0.5-4.9c-1.2-1.4-1-2.5-1.8-3.8c-0.8-1.4-3.6-4.3-2.7-7.3c1-3,4-5.3,4.3-5.7c0.3-0.4,0.2-2.3,0.9-2.5
			c0.7-0.1,1.2-0.1,1.4-0.3c0.2-0.1,0.3-1.9,1.4-2.4c1.1-0.5,2.1-0.7,1.9-1.2c-0.1-0.5-1.6-1-1-1.3c0.6-0.3,1.8,0,1.6-0.8
			c-0.2-0.8-0.8-1-0.8-1l-1.1,0.4c0,0,1.3-1.2,1.4-1.4c0.1-0.1-0.7-1.5-0.7-1.5l-1.8-0.3l0.9-0.6c0,0-0.4-0.8-0.5-1.4
			c-0.1-0.6-0.3-1.5-0.3-1.5s-0.9-1.5-0.6-2.5c0.3-1,0.6-1.2,0.6-1.2s-0.5,2.1,0.3,2.8c0.8,0.6,1.4,0.8,1.4,1.3c0,0.6,0,2.3,0.1,2.5
			l0,0c0.1,0,0.3-1.7,0.5-2.1c0.3-0.5,1.4-1.9,0.6-2.6c-0.8-0.6-1.7-2.1-1.7-2.1s1.5,0.8,1.6,0.8c0.1,0,1.6-2.9,1.1-3.4
			c-0.5-0.6-1.4-0.7-0.8-1.2c0.6-0.5,1.8-1.9,2.3-2.1c0.5-0.2,2.5-0.5,2.4-1.2c-0.1-0.7-0.1-1,0-1.1c0,0,0,0,0.1,0
			c0.1,0,0.3,0.2,0.5,0.2c0.1,0,0.1,0,0.2-0.1c0.4-0.1,1.5-0.1,1.6-0.7c0.1-0.6,0.1-0.6,0.1-0.6s-0.2,0.6-0.7,0.6
			c-0.2,0-0.5-0.1-0.7-0.5c-0.9-1.1-1.3-3.6-0.6-4.7c0.6-1.1,2.7-2.6,2.3-2.9c-0.3-0.4,0.3-0.3,0.8-0.8c0.6-0.6,2.1-0.8,1.8-1.6
			c-0.3-0.8-1.3-0.8-1.8-1.5c-0.5-0.6-0.8-4.3-1.6-4.3l0,0c-0.8,0.1-1.9,1.2-2.1,1.2h-0.1c-0.1-0.1-0.2-1-0.4-1
			c-0.1,0-0.1,0.1-0.2,0.3c-0.3,1-0.4,2-0.5,2.5c-0.1,0.4,0.1,3.2-0.1,3.6c-0.3,0.5-1.8,1-1.6,1.2c0.1,0.2,0.4,0.6,0.2,0.6
			c-0.2,0.1-6.4,1.2-7.2,2.4c-0.8,1.2-1.1,2.7-0.9,3.4c0.2,0.8-1.3,2.1-2.1,2.1c-0.1,0-0.1,0-0.1,0c-0.1,0-0.3-0.1-0.5-0.1
			c-1,0-2.5,0.3-2.7,0.6c-0.3,0.4,0.4,1,0.5,1.3c0.1,0.3-3.5,3-4,3.7c-0.4,0.6-1.9,1.6-2.9,1.6c-0.1,0-0.3,0-0.5-0.1
			c-0.9-0.5-1.4-0.9-1.4-1.1c0-0.1,1.8-1.8,1.4-3.4c-0.3-1.6-0.8-2.8-1-2.8s-2,1.5-2.3,1.5h-0.1c-0.1-0.3,1.5-1.5,1.1-2.9
			c-0.4-1.4-1.9-2.7-1.9-2.7l-1.8-0.3c0,0-0.5,1-1.1,2.5c-0.6,1.5-1.3,4.3-0.6,5.3c0.6,1,0.1,4.4-1.1,4.5h-0.1
			c-1.1,0-2.1-1.8-2.1-4.5c-0.1-2.7,1.8-4.9,1.2-4.9c-0.5,0-0.8,1.2-1.3,1.2c-0.1,0-0.1,0-0.2-0.1c-0.6-0.5,0.9-3.3,1.8-3.6
			c0.8-0.3,2.5-0.9,2.5-1.1c0.1-0.1,0.1-0.1,0.3-0.1c0.1,0,0.3,0,0.5,0c0.5,0,2.1-0.3,2.1-0.3s0.6-0.8-0.5-0.8
			c-1.1-0.1-1.7-0.1-1.9-0.5c-0.1-0.1-0.3-0.2-0.5-0.2c-0.4,0-0.9,0.2-1.4,0.5c-0.6,0.4-1.6,1-2.1,1c-0.1,0-0.3-0.1-0.4-0.1
			c-0.4-0.4-0.6-1.1-1-1.1c-0.1,0-0.1,0-0.2,0.1c-0.6,0.3-1,0.3-1,0.3l1.2-1.9c0,0-2.5,1.4-3.4,2.1c-0.6,0.5-1.4,0.8-1.8,0.8
			c-0.2,0-0.3-0.1-0.4-0.1c-0.3-0.3-0.2-1.2-0.2-1.2s-1.9,1.2-2.2,1.2l0,0c-0.1-0.1,0.9-2.3,1.6-2.6c0.7-0.3,2.8-1.2,2.8-1.2
			s-2.1,0-2.3-0.1c-0.3-0.1-0.3-0.1-0.3-0.1s-0.8,0.2-1.1,0.2c-0.1,0-0.1,0-0.1,0c-0.2-0.1-0.5-0.8-1-0.9c-0.5-0.1-1-0.8-1-0.8
			s-0.8,0.6-1.2,0.6c-0.1,0-0.1,0-0.1,0c-0.3,0-0.5-0.2-1.4-0.3c-0.9-0.1-1.5-1.7-1.6-1.8l0,0c-0.1,0-0.1,0.5-0.3,0.5
			c0,0-0.2,0.1-2.1,0.1c-1.6,0-4.4-0.1-9.3-0.4C37.6,210.2,22.5,203.8,22.5,203.8L22.5,203.8z"/>
	</g>
	<g>
		<path class="st2" d="M763.5,185.1h-56.5c-7.1,0-13-5.9-13-13v-45.3c0-7.1,5.9-13,13-13h56.5c7.1,0,13,5.8,13,13v45.3
			C776.5,179.2,770.6,185.1,763.5,185.1z M707,117.3c-5.3,0-9.6,4.3-9.6,9.6v45.3c0,5.3,4.3,9.6,9.6,9.6h56.5c5.3,0,9.6-4.3,9.6-9.6
			v-45.3c0-5.3-4.3-9.6-9.6-9.6H707L707,117.3z"/>
		<path class="st2" d="M759.6,115.6h-3.4v-2.3c0-5.3-4.3-9.6-9.6-9.6H724c-5.3,0-9.6,4.3-9.6,9.6v2.3H711v-2.3c0-7.1,5.9-13,13-13
			h22.6c7.1,0,13,5.8,13,13V115.6L759.6,115.6z"/>
		<path class="st2" d="M737.1,157.7c-0.5,0.5-1.4,0.8-2.3,0.8c-1,0-1.9-0.4-2.6-0.9c-0.6-0.6-1-1.7-1-3.2h-4.7v0.1
			c0,2.4,0.5,4.3,1.9,5.5c1.4,1.2,3,2,5.1,2.1v3.3h2.6v-3.3c2-0.3,3.6-0.9,4.9-2c1.2-1.2,1.8-2.7,1.8-4.6c0-1.9-0.5-3.5-1.8-4.6
			c-1.2-1.2-2.9-2.1-5.4-3c-1.4-0.5-2.3-1-2.7-1.6c-0.5-0.5-0.8-1.2-0.8-2.1c0-0.9,0.3-1.6,0.6-2.1c0.5-0.5,1.2-0.8,2.1-0.8
			c0.9,0,1.7,0.4,2.1,1c0.5,0.6,0.8,1.7,0.8,3h4.9v-0.1c0-2.1-0.5-3.8-1.6-5.2c-1.2-1.4-2.6-2.1-4.6-2.5V134h-2.6v3.5
			c-2,0.3-3.6,0.9-4.7,2.1c-1.2,1.2-1.8,2.7-1.8,4.5c0,2,0.5,3.5,1.8,4.6c1.2,1.2,3,2.1,5.4,2.9c1.2,0.5,2.1,1,2.6,1.6
			c0.5,0.5,0.8,1.2,0.8,2.1C737.8,156.5,737.6,157.2,737.1,157.7z"/>
	</g>
	<g>
		<g>
			<path class="st2" d="M564.9,165.3c-6,0-10.9-5-10.9-11.1c0-6.2,4.9-11.2,10.9-11.2c6,0,10.9,5,10.9,11.2
				C575.8,160.3,570.9,165.3,564.9,165.3z M564.9,145.8c-4.5,0-8.2,3.8-8.2,8.5c0,4.7,3.7,8.4,8.2,8.4c4.5,0,8.2-3.8,8.2-8.4
				C573.1,149.5,569.5,145.8,564.9,145.8z"/>
		</g>
		<g>
			<path class="st2" d="M641.4,165.3c-6,0-10.9-5-10.9-11.1c0-6.2,4.9-11.2,10.9-11.2c6,0,10.9,5,10.9,11.2
				C652.4,160.3,647.5,165.3,641.4,165.3z M641.4,145.8c-4.5,0-8.2,3.8-8.2,8.5c0,4.7,3.7,8.4,8.2,8.4c4.5,0,8.2-3.8,8.2-8.4
				C649.7,149.5,646,145.8,641.4,145.8z"/>
		</g>
		<g>
			<path class="st2" d="M658.3,160h-6.5l0.7-1.8c0,0,1.5-4-0.4-8.6c-1.6-4-6.2-7-10.8-7h-0.2c-4.8,0.1-8.6,2.7-10.4,7.4
				c-1.8,4.2-0.5,8.2-0.5,8.2l0.6,1.8h-1.9h-53l0.4-1.6c0-0.1,1.4-6.9-3-12.1c-1.8-2.1-5.2-3.5-8.7-3.5c-3.5,0-6.5,1.4-8.3,3.7
				c-4.8,6.4-2.3,11.7-2.3,11.7l1,1.9h-14.8l-0.4-0.5c-1-1.2-4-5.6-3.8-8c0.1-2.1,1.9-5.4,2.5-6.5v-3.4c-0.2-0.5-0.4-1.2-0.5-2.7
				V139c-0.1-2.7,2.1-5.7,4.5-8.6c1.6-1.9,3.4-4,4.1-4.7V122l1.1-0.2c0.4-0.1,10.4-1.9,43.2-1.7v1.2l0.1-1.2h0.2
				c5.4,0.3,23.9,1.5,32.1,5.5c3.1,1.4,14.2,8,15.8,8.9c0.2,0,0.4,0.1,0.7,0.2c2.1,0.5,7.1,1.4,11.5,3c4.4,1.6,8,4,9,4.7
				c1.5,1.4,2.4,3.7,2.8,4.9c0.5,0.3,1.2,0.8,1.4,1.6c0.1,0.5,0.3,1.8,0.3,2.1c0.5,2.7,0.3,3.3,0.2,3.5c-0.3,0.7-0.8,1.1-1.2,1.4
				l0,0c0,0.1,0,0.1,0,0.2l0.5,0.1v1c0,0.6-0.2,1.2-0.7,1.6C661.9,159.8,659.1,160,658.3,160L658.3,160z M655.5,157.3h2.8
				c0.9,0,1.8-0.2,2.4-0.4c-0.1-0.2-0.1-0.4-0.1-0.5v-0.2V156c0.1-0.4,0.2-1.2,0.4-1.6c0.2-0.5,0.6-0.9,0.9-1.1
				c0.1,0,0.1-0.1,0.2-0.1c0-0.5-0.2-1.2-0.3-2.1v-0.1c0-0.4-0.2-1.2-0.2-1.6c-0.1,0-0.2-0.1-0.2-0.1l-0.7-0.2l-0.2-0.8
				c-0.2-0.8-0.9-3.1-2.1-4.1c-0.8-0.6-4.1-2.9-8.2-4.3c-4.3-1.5-9.1-2.6-11.2-2.9c-1.1-0.2-1.2-0.3-1.5-0.5
				c-1.2-0.7-12.5-7.5-15.6-8.8c-6.2-3-20.1-4.7-31.1-5.3h-0.1l0,0c-26.6-0.2-38.2,1.1-41.6,1.5v2.5l-0.4,0.4c0,0-2.4,2.7-4.4,5.1
				c-1.2,1.4-3.8,4.7-3.8,6.7c0.2,1.5,0.5,2.1,0.5,2.1l0.2,0.4v0.3v4.3l-0.2,0.3c-0.9,1.5-2.2,4.4-2.3,5.6c-0.1,0.9,1.4,3.5,2.9,5.7
				h9.3c-0.6-2.5-0.8-7.3,3.2-12.6c2.2-2.9,6.1-4.7,10.4-4.7c4.4,0,8.5,1.7,10.7,4.5c3.8,4.7,4,10.2,3.8,12.8h48.2
				c-0.3-1.9-0.5-5,0.9-8.3c2.3-5.6,7.1-8.9,12.8-9h0.3c5.7,0,11.3,3.7,13.3,8.7C656.1,152.1,655.9,155.4,655.5,157.3z"/>
		</g>
		<g>
			<path class="st2" d="M575.4,135.8l-29-1l2.1-2.1c0.1-0.1,2.3-2.4,4.9-4.4c2.5-1.9,5.4-3.5,5.4-3.5l0.2-0.1h0.2
				c0.2,0,4.8-1,6.5-1.2c1.8-0.2,7.3-0.3,7.6-0.3h1.2L575.4,135.8z M552.7,132.3l19.8,0.7l-0.4-7.1c-1.8,0.1-5,0.2-6.2,0.3
				c-1.4,0.1-5.2,0.9-6.1,1.1c-0.6,0.4-2.9,1.6-4.9,3.2C554.2,131,553.4,131.8,552.7,132.3z"/>
		</g>
		<g>
			<path class="st2" d="M600.7,137l-23.6-1.2v-1.2c0,0-0.1-2.6-0.3-5c-0.2-2.5-0.5-5-0.5-5l-0.3-1.4l1.4-0.2c0.2,0,5.1-0.5,10.2-0.5
				c5.4,0,10.7,0.5,11,0.5l1.2,0.1L600.7,137z M579.7,133.2l18.2,1l-0.6-8.7c-1.9-0.2-5.8-0.5-9.5-0.5c-3.4,0-6.7,0.3-8.5,0.5
				c0.1,1,0.3,2.4,0.4,3.8C579.6,130.8,579.7,132.2,579.7,133.2z"/>
		</g>
		<g>
			<path class="st2" d="M625.4,139.1l-21.5-1.9l-2.1-14.1l1.7,0.2c0.5,0,10,1.1,13.7,2.7c3.7,1.5,7,3.4,7.1,3.5l0.6,0.4L625.4,139.1
				z M606.3,134.7l16.3,1.4l-0.2-4.8c-1.2-0.6-3.6-1.9-6.2-2.9c-2.5-1.1-8.3-1.9-11.3-2.2L606.3,134.7z"/>
		</g>
	</g>
	<g>
		<path class="st2" d="M439.1,184c-0.6,0-1.9-0.1-3-1c-1.2-1.2-1.4-2.7-1.4-2.9v-0.1v-30.5h-8c-0.3-0.1-2.3-0.6-3-2.1
			c-0.9-1.8,0.6-3.8,0.9-4l40.1-40.2c0.5-0.6,2.3-2.6,5.3-2.5c2.6,0.1,4.3,1.5,4.9,2.5l12.2,12v-12.8h13v25.9l15.3,15.7l0.1,0.2
			c0.3,0.6,1,2.3,0.3,3.4c-0.6,0.9-1.8,1.6-2.1,1.8l-0.3,0.2h-8.4V180c-0.1,1.6-0.6,2.7-1.4,3c-0.6,0.3-1.8,0.6-2.3,0.8h-0.5h-22.4
			v-30.7h-17.1v30.7h-21.8C439.4,184,439.3,184,439.1,184z M437.8,179.8c0,0.1,0.1,0.6,0.5,1c0.1,0.1,0.5,0.2,0.9,0.2
			c0.1,0,0.1,0,0.1,0h0.2h18.8v-30.8h23.1v30.7h19.3c0.5-0.1,0.8-0.2,1-0.3c0.1-0.2,0.1-0.6,0.1-0.8v-33.5h10.7
			c0.2-0.1,0.5-0.3,0.6-0.5c0-0.1-0.1-0.2-0.1-0.3L497,129.2v-23.9h-6.7v17.1l-17.7-17.5c0,0-0.9-1.2-2.6-1.2h-0.2
			c-1.6,0-2.6,1.2-2.6,1.2l-0.1,0.2L427,145.3c-0.1,0.2-0.3,0.5-0.3,0.6c0.1,0.1,0.5,0.2,0.6,0.3h10.6L437.8,179.8L437.8,179.8z"/>
	</g>
	<g>
		<g>
			<path class="st2" d="M363.1,175.8h-48.2c-2.5,0-4.7-2.2-4.7-4.7V107c0-2.5,2.1-4.7,4.7-4.7h36.8l16.2,14.6v54.3
				C367.8,173.6,365.8,175.8,363.1,175.8z M314.9,105c-1.1,0-1.8,0.8-1.8,1.8v64.1c0,1.1,0.8,1.8,1.8,1.8h48.4
				c1.1,0,1.8-0.8,1.8-1.8v-53l-14.5-13L314.9,105L314.9,105z"/>
		</g>
		<g>
			<path class="st2" d="M352.1,186.8h-48.4c-2.5,0-4.7-2.2-4.7-4.7V118c0-2.5,2.1-4.7,4.7-4.7h7.6v2.9h-7.6c-1.1,0-1.8,0.8-1.8,1.8
				V182c0,1.1,0.8,1.8,1.8,1.8h48.4c1.1,0,1.8-0.8,1.8-1.8v-7.8h2.9v7.8C356.9,184.6,354.7,186.8,352.1,186.8z"/>
		</g>
		<path class="st2" d="M322.6,120.2v-3.4h20.9v3.4c0,0-6.2,0-9.9,0C329.8,120.2,322.6,120.2,322.6,120.2z"/>
		<path class="st2" d="M321.5,136.7v-3.4h35.1v3.4c0,0-22.8,0-18.5,0S321.5,136.7,321.5,136.7z"/>
		<path class="st2" d="M321.5,145.6v-3.4h35.1v3.4c0,0-23.5,0-18.8,0C342.5,145.6,321.5,145.6,321.5,145.6z"/>
		<path class="st2" d="M321.5,156.7v-3.4h35.1v3.4c0,0-14.9,0-19.4,0C332.7,156.7,321.5,156.7,321.5,156.7z"/>
		<g>
			<path class="st2" d="M367.6,119.4c0,0-3.4,0-9.5-0.1c-6.2-0.1-8.4-0.1-8.4-0.1v-15.8h2.9v13h15V119.4L367.6,119.4z"/>
		</g>
	</g>
	<g>
		<path class="st2" d="M201.8,191.7h-20.7l-0.3-0.1c-0.2-0.1-6.3-2.9-10.4-6.7c-4.3-4.2-6.6-9.3-6.7-9.5v-0.4v-9.7l0.1-0.2
			c0.1-0.4,3.2-8.9,7.6-16.9c4.4-8.1,9.9-15.3,10.1-15.5l0.4-0.7h13.2c-7.4-2.3-12.8-9.3-12.8-17.6c0-10,8-18.2,17.8-18.2
			c9.8,0,17.8,8.2,17.8,18.2c0,8.3-5.4,15.3-12.8,17.6h11.4l0.3,0.1c0.8,0.4,15.8,7.5,19.7,33.2c2.3,8.1-14.8,18-18.2,19.7
			c-0.1,0.1-2.3,1.4-4.9,1.4l0,0c-1.7,0-3.1-0.5-4.3-1.5c-0.4-0.4-0.8-0.7-1.1-1c0,4.2-5.3,7.3-5.8,7.6L201.8,191.7z M181.8,188.4
			h19.1c1.5-0.9,4-3,3.8-4.7c-0.1-2.1-2-4.1-2.8-4.9l-21.6-1.5l9.1-9.3l-3.2-5.6c0-0.1-1.1-3.5,1.6-6.7c1.1-1.5,2.3-1.7,3.1-1.7
			c1.9,0,3.1,1.7,3.2,1.8c0,0,6.1,8.4,8.7,11.3c0.7,0.8,2.3,1.5,4.2,1.8c-4.2-1.8-7.1-6-7.1-11c0-6.5,5.3-11.9,11.5-11.9
			c6.3,0,11.5,5.4,11.5,11.9c0,5.2-3.2,9.7-7.8,11.2l-7.1,7.3c0.2,1.4,1,4.2,3,5.8c0.7,0.6,1.5,0.8,2.5,0.8c1.7,0,3.2-0.9,3.2-0.9
			c7.8-4.2,18-11.9,16.7-16l-0.1-0.2c-3.4-22.2-15.5-29.6-17.4-30.6h-32.4c-1.5,1.9-5.8,8.1-9.3,14.5c-3.8,6.9-6.7,14.7-7.2,16.1
			v8.3c0.4,1,2.5,5,5.7,8.2C175.7,185.4,180.6,187.8,181.8,188.4z M187.6,174.6l15.7,1l0.4,0.4c0.1,0.1,0.7,0.6,1.2,1.2
			c-0.1-0.7-0.1-1-0.2-1.2l-0.1-0.8l2.9-2.9c-2.8-0.2-5.8-1-7.5-3c-2.5-3-8.6-11.2-8.8-11.6c-0.2-0.2-0.4-0.5-0.6-0.5
			c0,0-0.3,0.1-0.7,0.6c-1.2,1.5-1.1,2.9-1,3.4l4.2,7.3L187.6,174.6z M211.3,149.5c-4.5,0-8.4,3.9-8.4,8.6c0,4.8,3.8,8.6,8.4,8.6
			c4.6,0,8.4-3.9,8.4-8.6C219.7,153.4,216.1,149.5,211.3,149.5z M200.1,99.6c-8,0-14.6,6.7-14.6,14.9c0,8.2,6.6,14.9,14.6,14.9
			c8,0,14.7-6.7,14.7-14.9C214.8,106.3,208.3,99.6,200.1,99.6z"/>
	</g>
	<g>
		<path class="st4" d="M95.4,102.5c-17.4,0-34.8,0-52.3,0c-4,1.2-3.8,6.2-3.8,10.4c0.2,21.1,0.2,42.2,0,63.3c0,4.1-0.3,9.1,3.8,10.4
			c17.4,0,34.8,0,52.3,0c2.5-0.5,4.1-2.1,4.7-4.7c0-25,0-49.8,0-74.6C99.5,104.6,97.9,103.2,95.4,102.5z M97.3,144.5
			c0,11-0.1,22,0.1,33.1c0.1,4.3-1.4,6.2-5.9,6.2c-14.5-0.2-28.8-0.2-43.3,0c-4.6,0.1-6-1.9-5.9-6.2c0.1-22,0.1-44.1,0-66.2
			c0-4.3,1.4-6.2,5.9-6.2c14.5,0.2,28.8,0.2,43.3,0c4.5-0.1,6,1.9,5.9,6.2C97.2,122.5,97.3,133.5,97.3,144.5z"/>
		<path class="st5" d="M11.4,120.2c5.8-5.5,13.6-6.2,20.6-9.1c0.9-0.4,1.9-0.1,2.1,1c0.2,1.2-0.9,1.5-1.8,1.8
			c-4.7,1.7-9.3,3.6-14,5.1c-3.8,1.2-4.7,3.2-3.3,7c5.4,15,10.5,30.1,15.8,45.3c1.4,3.6,2.4,7.4,1.2,11.7c-1.6-4.3-3.2-8.6-4.7-13
			c-5-14-9.8-28.1-14.7-42.2c0,0-1.2-2.8-1.5-4.6C10.6,121.3,11.4,120.2,11.4,120.2z"/>
		<path class="st4" d="M69.8,176.2c-3.4,0-6.8,0-10.3,0c-0.9,0-2.1,0.1-2.1-1.2c-0.2-1.7,1.2-1.6,2.3-1.6c6.8,0,13.6,0,20.5,0
			c0.9,0,2.1-0.1,2.1,1.2c0.2,1.7-1.2,1.6-2.3,1.6C76.5,176.2,73.2,176.2,69.8,176.2z"/>
		<path class="st6" d="M73.3,135.5c-4.1,2.4-10,5.8-13.7,1.4c-0.6-0.7-2.8-2.1-2.1-3.6c0.5-1.2,2.3-0.9,3.6-0.6
			C64.7,133.4,69.6,134.6,73.3,135.5z"/>
		<path class="st4" d="M50,112.8c-1.2-0.2-3,0.5-2.9-1.4c0-2.1,2.1-1.4,3.2-1.4c1.2-0.1,2.9-0.5,2.9,1.4
			C53.2,113.5,51.2,112.5,50,112.8z"/>
		<path class="st4" d="M59.3,112.8c-1.2-0.2-3,0.5-2.9-1.4c0-2.1,2.1-1.4,3.2-1.4c1.2-0.1,2.9-0.5,2.9,1.4
			C62.5,113.5,60.5,112.5,59.3,112.8z"/>
		<path class="st4" d="M69.6,112.8c-1.2-0.3-2.9,0.5-3-1.4c0-2.3,1.9-1.4,3.2-1.4c1.2-0.1,2.9-0.5,2.9,1.2
			C72.8,113.5,70.7,112.5,69.6,112.8z"/>
		<path class="st4" d="M80.1,112.8c-1.2-0.4-3.2,0.7-3.1-1.6c0.1-1.8,1.9-1.2,3-1.2c1.2,0,3.2-0.7,3.1,1.5
			C83,113.4,81.1,112.6,80.1,112.8z"/>
		<path class="st4" d="M90.5,112.9c-1.4-0.5-3.3,0.6-3.2-1.7c0.1-1.8,1.9-1.2,3-1.2c1.2,0.1,3.2-0.8,3.1,1.5
			C93.2,113.4,91.4,112.4,90.5,112.9z"/>
		<path class="st6" d="M92.5,133.7c-0.8-1.5-2.1,0.7-3,1.2c-0.6,0.4-1.4,0.6-1.9-0.2c-0.5-0.7,2.5-1.8,2.3-2.1
			c-0.8-1-4.9-0.3-7.1,0.6c-6.4,2.8-12.8,5.6-19,8.7c-4,1.9-7.8,4.9-12.3,1.2c-0.7-0.6-1.8-0.5-2.5,0.3c-1,1,0.4,1.7,0.9,2.3
			c1,1,2.5,1.7,2.3,3.2c-0.5,3.2,0.8,3.4,2.7,3c3.4-0.7,6.9-1.8,11-2.8c1.2-0.5,2,0.2,1.9,2.1c-0.2,1.9-0.2,3.8-0.3,5.6
			c-0.1,1.2-0.4,3.3,0.2,3.3c1.8-0.2,2.9-0.6,3.6-2.1c1.6-3.2,3.4-6.4,4.6-9.7c1.2-3.2,3.1-5.1,6.2-6.4c3-1.2,5.9-2.7,8.8-4.3
			C91.7,137,93.4,135.1,92.5,133.7z M74.1,145.6c-0.5,2.3-4.3,11.5-4.5,11.1c-0.3-1,1.9-10.3,0.4-11.3c-1.2,0.3-2.3,0.6-3.6,0.9
			c-0.8,0.4-12.1,4-12.3,2.8c0.1-0.2,23.3-12.4,30.1-14.1c-0.7,1.7,2.1,2.7,2.1,2.7S76.3,140.4,74.1,145.6z"/>
	</g>
</g>
</svg>
