<?xml version="1.0" encoding="utf-8"?>
<!-- Generator: Adobe Illustrator 18.1.1, SVG Export Plug-In . SVG Version: 6.00 Build 0)  -->
<svg version="1.1" id="Layer_1" xmlns="http://www.w3.org/2000/svg" xmlns:xlink="http://www.w3.org/1999/xlink" x="0px" y="0px"
	 viewBox="0 0 92 82.6" enable-background="new 0 0 92 82.6" xml:space="preserve">
<path fill="#62C5DC" d="M43.8,47.8L23.5,35.7L23.9,12L44.5,0.5l20.3,12.1l-0.4,23.7L43.8,47.8z M26.5,34l17.4,10.4l17.7-9.9
	c0,0,0.1-7.8,0.2-12.1s0.1-8.2,0.1-8.2L44.5,3.8l-17.7,9.9L26.5,34z"/>
<path fill="#62C5DC" d="M24.6,81.2L4.3,69l0.4-23.7l20.6-11.5L45.6,46l-0.4,23.7L24.6,81.2z M7.2,67.4l17.4,10.4l17.7-9.9l0.3-20.3
	L25.2,37.2c0,0-7.6,4.2-10.7,6s-7,3.9-7,3.9L7.2,67.4z"/>
<path fill="#62C5DC" d="M62.5,81.2L42.2,69l0.4-23.7l20.6-11.5L83.4,46l-0.4,23.7L62.5,81.2z M45.1,67.4c0,0,8.3,5,10.6,6.3
	c2.2,1.3,6.8,4.1,6.8,4.1l17.7-9.9l0.3-20.3L63.1,37.2l-17.7,9.9L45.1,67.4z"/>
<path fill-rule="evenodd" clip-rule="evenodd" fill="#62C5DC" d="M62.8,14.4l-0.9-1.6c0,0,5.2-3,7.4-4.2c2.1-1.2,6.9-3.9,6.9-3.9
	l0.9,1.6L62.8,14.4z"/>
<path fill-rule="evenodd" clip-rule="evenodd" fill="#62C5DC" d="M81.1,69.8l0.9-1.6c0,0,3.4,1.9,5.2,2.9c1.8,1,4.7,2.7,4.7,2.7
	l-0.1,2L81.1,69.8z"/>
<path fill-rule="evenodd" clip-rule="evenodd" fill="#62C5DC" d="M6.7,69.2l-0.9-1.6L0,70.9l0,2.2c0,0,0.6-0.3,2.7-1.5
	S6.7,69.2,6.7,69.2z"/>
<path fill-rule="evenodd" clip-rule="evenodd" fill="#62C5DC" d="M72,52.2h1.8c0,0,0,1.7,0,4.3c0,2.6,0,4.8,0,4.8H72V52.2z"/>
<path fill-rule="evenodd" clip-rule="evenodd" fill="#62C5DC" d="M25.8,46.3l0.9,1.6c0,0-1.5,0.9-3.5,2.1c-2,1.2-4.3,2.6-4.3,2.6
	L18,51L25.8,46.3z"/>
<path fill-rule="evenodd" clip-rule="evenodd" fill="#62C5DC" d="M43.9,13.5l1-1.6c0,0,2.1,1.3,3.5,2.2s4.2,2.6,4.2,2.6l-1,1.6
	L43.9,13.5z"/>
<path fill-rule="evenodd" clip-rule="evenodd" fill="#62C5DC" d="M81.1,47.1l0.9,1.6L92,43l0-2.1c0,0-3,1.7-5.2,3
	C84.6,45.1,81.1,47.1,81.1,47.1z"/>
<path fill-rule="evenodd" clip-rule="evenodd" fill="#62C5DC" d="M25.2,13.8l0.9-1.6c0,0-3.5-2-6.7-3.8S11.9,4,11.9,4L11,5.6
	L25.2,13.8z"/>
</svg>
