<?xml version="1.0" encoding="utf-8"?>
<!-- Generator: Adobe Illustrator 18.1.1, SVG Export Plug-In . SVG Version: 6.00 Build 0)  -->
<svg version="1.1" id="Layer_1" xmlns="http://www.w3.org/2000/svg" xmlns:xlink="http://www.w3.org/1999/xlink" x="0px" y="0px"
	 viewBox="0 0 612 792" enable-background="new 0 0 612 792" xml:space="preserve">
<g>
	<path fill="#63C5DC" d="M580,107.9c-119.7,0-238.8,0-358.5,0c-26.9,8.3-26.2,42.3-26.2,71.1c1.3,144.7,1.3,289.4,0,434
		c0,28.8-1.9,62.7,26.2,71.1c119.7,0,238.8,0,358.5,0c17.3-3.8,28.2-14.7,32-32c0-170.9,0-341.2,0-512.1
		C608.2,122.6,597.3,112.4,580,107.9z M592.8,396c0,75.5-0.6,151.1,0.6,226.6c0.6,29.4-9.6,42.9-40.3,42.3
		c-99.2-1.3-197.8-1.3-297,0c-31.4,0.6-41-12.8-40.3-42.3c0.6-151.1,0.6-302.8,0-453.9c0-29.4,9.6-42.9,40.3-42.3
		c99.2,1.3,197.8,1.3,297,0c30.7-0.6,41,12.8,40.3,42.3C592.2,244.9,592.8,320.5,592.8,396z"/>
	<path fill="#66C6DC" d="M3.8,229.6c39.7-37.8,93.5-42.3,140.8-62.7c6.4-2.6,13.4-0.6,14.7,7c1.3,8.3-6.4,10.2-12.2,12.2
		c-32,11.5-64,24.3-96,34.6c-26.2,8.3-32,22.4-23,48c37.1,103.1,72.3,206.8,108.2,310.5c9,25,16.6,50.6,8.3,80
		c-10.9-29.4-22.4-58.9-32.6-89c-33.9-96-67.2-192.7-101.1-289.4c0,0-7.7-19.2-10.2-31.4S3.8,229.6,3.8,229.6z"/>
	<path fill="#65C6DC" d="M376.4,426.7c-28.2,7-51.9,14.1-75.5,19.2c-12.8,2.6-22.4,1.9-18.6-20.5c1.9-10.2-8.3-14.7-15.4-21.8
		c-3.8-3.8-13.4-8.3-6.4-15.4c5.1-5.1,12.2-6.4,17.3-1.9c31.4,25,57,5.1,84.5-8.3c42.9-21.1,87.1-40.3,130.6-59.5
		c15.4-6.4,42.9-11.5,48.7-4.5c1.9,2.6-19.2,9.6-15.4,14.7c3.8,5.8,9,3.8,13.4,1.3c6.4-3.2,14.7-18.6,20.5-8.3
		c5.8,10.2-5.8,23-12.2,26.9c-19.8,10.9-39.7,21.1-60.2,29.4c-21.1,8.3-34.6,21.8-42.3,43.5c-8.3,23-20.5,44.8-31.4,66.6
		c-5.1,9.6-12.8,12.8-25,14.1c-3.8,0-1.9-14.7-1.3-23c0.6-12.8,0.6-25.6,1.9-38.4C389.9,428,384.7,423.5,376.4,426.7z"/>
	<path fill="#63C5DC" d="M404,613.7c-23.7,0-46.7,0-70.4,0c-6.4,0-14.1,0.6-14.7-8.3c-1.3-11.5,7.7-10.9,15.4-10.9
		c46.7,0,93.5,0,140.2,0c6.4,0,14.1-0.6,14.7,8.3c1.3,11.5-7.7,10.9-15.4,10.9C450.7,613.7,427.6,613.7,404,613.7z"/>
	<path fill="#6BC7DD" d="M428.3,333.9c-28.2,16.6-69.1,39.7-94.1,9c-4.5-5.1-19.2-14.7-14.7-24.3c3.8-7.7,15.4-6.4,25-4.5
		C369.4,319.8,402.7,328.1,428.3,333.9z"/>
	<path fill="#63C5DC" d="M268.9,179c-7.7-1.3-20.5,3.2-19.8-9.6c0-14.7,14.1-9,22.4-9.6c7.7-0.6,19.8-3.8,19.8,9
		C290.6,183.5,276.6,176.4,268.9,179z"/>
	<path fill="#63C5DC" d="M332.9,179c-7.7-1.3-20.5,3.2-19.8-9.6c0-14.7,14.1-9,22.4-9.6c7.7-0.6,19.8-3.8,19.8,9
		C354.7,183.5,340.6,176.4,332.9,179z"/>
	<path fill="#63C5DC" d="M403.3,179c-7.7-1.9-19.8,3.2-20.5-9c0-15.4,13.4-9.6,21.8-9.6c7.7-0.6,19.8-3.8,19.8,8.3
		C425.1,183.5,411,176.4,403.3,179z"/>
	<path fill="#63C5DC" d="M475,179c-7.7-2.6-21.8,5.1-21.1-10.9c0.6-12.2,12.8-8.3,20.5-7.7c8.3,0,22.4-5.1,21.1,10.2
		C494.9,182.8,482.1,177.1,475,179z"/>
	<path fill="#63C5DC" d="M546.7,179.6c-9-3.2-23,4.5-22.4-11.5c0.6-12.2,12.8-8.3,20.5-8.3c8.3,0.6,21.8-5.8,21.1,10.2
		C565.3,182.8,552.5,175.8,546.7,179.6z"/>
	<path fill="#F7FCFD" d="M503.8,331.3c-5.1,11.5,14.1,18.6,14.1,18.6s-68.5,17.9-83.9,54.4c-3.8,16-30.1,78.7-30.7,76.2
		c-1.9-7,13.4-70.4,2.6-77.5c-8.3,1.9-16,4.5-24.3,6.4c-5.8,2.6-83.2,26.9-84.5,19.2C297.7,427.4,456.4,342.9,503.8,331.3z"/>
</g>
</svg>
