<?xml version="1.0" encoding="utf-8"?>
<!-- Generator: Adobe Illustrator 18.1.1, SVG Export Plug-In . SVG Version: 6.00 Build 0)  -->
<svg version="1.1" xmlns="http://www.w3.org/2000/svg" xmlns:xlink="http://www.w3.org/1999/xlink" x="0px" y="0px"
	 viewBox="-3552.8 -1195.7 2677.3 537.3" enable-background="new -3552.8 -1195.7 2677.3 537.3" xml:space="preserve">
<g id="Layer_2">
	<g>
		<g>
			<path fill="#FFFFFF" d="M-3368-966.3l-19.4-18.5c13.2-14.1,21.1-32.6,21.1-51.9c0.9-39.6-32.6-73-72.2-73s-73,33.4-73,73.9
				c0,19.4,7,37,20.2,51l-19.4,18.5c-17.6-18.5-27.3-43.1-27.3-68.6c0-56.3,44-101.2,99.5-101.2s99.5,44.9,99.5,100.3
				C-3339-1009.4-3349.5-984.7-3368-966.3z"/>
		</g>
		<g>
			<path fill="#FFFFFF" d="M-3335.5-731.3h-206.8l-1.8-10.6c-1.8-7.9-36.1-191.9,44.9-252.6l15.8,21.1
				c-52.8,39.6-45.8,160.2-37,215.6h162.8c6.2-38.7,22-171.6-37-216.5l15.8-21.1c81.8,61.6,46.6,245.5,44.9,252.6L-3335.5-731.3z"/>
		</g>
		<g>
			<path fill="#FFFFFF" d="M-3059.1-966.3l-19.4-18.5c13.2-14.1,21.1-32.6,21.1-51.9c0-39.6-33.4-73-73-73c-39.6,0-73,33.4-73,73.9
				c0,19.4,7,37,20.2,51l-19.4,18.5c-17.6-18.5-27.3-43.1-27.3-68.6c0-56.3,44-101.2,99.5-101.2c55.4,0,99.5,44.9,99.5,100.3
				C-3030.9-1009.4-3041.5-984.7-3059.1-966.3z"/>
		</g>
		<g>
			<path fill="#FFFFFF" d="M-3027.4-731.3h-206.8l-1.8-10.6c-1.8-7.9-36.1-191.9,44.9-252.6l15.8,21.1
				c-52.8,39.6-45.8,161.1-37,216.5h162.8c6.2-38.7,22-171.6-37-216.5l15.8-21.1c81.8,61.6,46.6,245.5,44.9,252.6L-3027.4-731.3z"/>
		</g>
		<g>
			<path fill="#FFFFFF" d="M-2751.1-966.3l-19.4-18.5c13.2-14.1,21.1-32.6,21.1-51.9c0-39.6-32.6-73-73-73c-40.5,0-73,33.4-73,73.9
				c0,19.4,7,37,20.2,51l-19.4,18.5c-17.6-18.5-27.3-43.1-27.3-68.6c0-56.3,44.9-101.2,99.5-101.2c54.6,0,99.5,44.9,99.5,100.3
				C-2722.9-1009.4-2732.6-984.7-2751.1-966.3z"/>
		</g>
		<g>
			<path fill="#FFFFFF" d="M-2719.4-731.3h-206.8l-1.8-10.6c-1.8-7.9-36.1-191.9,44.9-252.6l15.8,21.1
				c-52.8,39.6-45.8,161.1-37,216.5h162.8c6.2-38.7,22-171.6-37-216.5l15.8-21.1c81.8,61.6,46.6,245.5,44.9,252.6L-2719.4-731.3z"/>
		</g>
		<path fill="#FFFFFF" d="M-2997.5-1122.9l22,15l-296.6,389.9l-22-15c0,0,85.4-110.9,124.1-164.6
			C-3132.2-948.7-2997.5-1122.9-2997.5-1122.9z"/>
		<path fill="#FFFFFF" d="M-3303.8-1100.9l20.2-16.7c0,0,121.5,145.2,152.3,181.3c31.7,37,164.6,196.3,164.6,196.3l-20.2,16.7
			L-3303.8-1100.9z"/>
	</g>
</g>
<g id="Layer_3">
	<g>
		<path fill="#FFFFFF" d="M-2340.7-1110.7c0,0,10.7-21.4,47.4-19.9c36.7,1.5,49.7,34.4,50.5,39.8c11.5,36-45.9,115.5-98.7,131.6
			c-55.1-18.4-114-94.9-100.2-131.6c-0.8-7.6,16.8-39,48.2-39.8C-2356.8-1129.8-2340.7-1110.7-2340.7-1110.7z"/>
		<path fill="#FFFFFF" d="M-2048.5-741.9c0,0-46.7-46.7-92.6-51.3c-46.7-4.6-148.4,17.6-157.6,19.9c-9.2,2.3-16.8,7.6-39,8.4
			c-44.4,1.5-139.2-79.6-161.4-97.9c-63.5-52-75.7-78-88-101c1.5,2.3-2.3-7.7,1.5-9.2c10.7-9.2,29.8,2.3,39.8,3.8
			c9.9,1.5,21.4-0.8,21.4-0.8l65,51.3c0,0-39,13-25.2,45.9c3.8,13.8,17.6,22.2,25.2,26c7.7,3.8,55.8-3.1,81.9-3.1
			c45.9,2.3,81.9,14.5,81.9,14.5h25.2c0,0,14.5,0.8,19.9-8.4s-5.4-14.5-5.4-14.5s-94.9-11.5-118.6-12.2c-23.7-0.8-73.4,5.4-73.4,5.4
			s-16.1-0.8-19.9-16.8c-3.1-16.8,11.5-19.9,11.5-19.9s-3.8-7.6,162.9-11.5c13.8-3.1,34.4-17.6,75.7-19.9
			c78-3.1,123.9,58.1,129.3,62.7c6.1,4.6,84.1,45.9,84.1,45.9l8.4-16.8c0,0-66.6-33.7-78.8-42.8c-13.8-6.9-39-61.2-138.5-64.3
			c-44.4,2.3-75.7,15.3-95.6,17.6s-113.2,9.9-123.9,6.9c-9.9-3.1-11.5-10.7-16.8-14.5s-9.2-2.3-19.9-11.5
			c-9.9-9.2-39-28.3-42.1-31.4c-3.1-3.8-34.4-7.6-28.3-5.4s-16.8-7.7-42.1-8.4c-25.2-0.8-27.5,19.1-26.8,22.9
			c31.4,73.4,84.2,114,100.2,128.5c16.1,14.5,120.1,87.2,134.6,94.1c15.3,6.9,14.5,5.4,30.6,6.9c14.5,1.5,22.2,0.8,42.8-9.2
			c20.7-9.9,125.5-28.3,153.8-21.4c38.3,1.5,85.7,49.7,85.7,49.7L-2048.5-741.9z"/>
	</g>
</g>
<g id="Layer_4">
	<g>
		<path fill="#FFFFFF" d="M-1683.8-878.7c22.1,0,25.8,24.9,25.8,40.5c0,17.5-14.7,43.3-25.8,43.3c-10.1,0-25.8-25.8-25.8-43.3
			C-1709.6-852.9-1705.9-878.7-1683.8-878.7 M-1683.8-896.2c-35,0-43.3,34.1-43.3,58.1c0,24,19.4,60.8,43.3,60.8
			c24,0,43.3-36.9,43.3-60.8C-1640.5-862.1-1648.8-896.2-1683.8-896.2L-1683.8-896.2z"/>
		<path fill="#FFFFFF" d="M-1678.2-739.6c-0.9,0-1.8,0-2.8,0h-4.6c-21.2,0-48.8,0-62.7-13.8c-4.6-4.6-7.4-11.1-7.4-18.4
			c0-22.1,24-37.8,46.1-45.2l5.5,16.6c-16.6,5.5-34.1,15.7-34.1,27.6c0,2.8,0.9,4.6,2.8,6.5c8.3,8.3,35,8.3,49.8,8.3h4.6
			c15.7,0,44.2,0,53.4-8.3c1.8-1.8,1.8-3.7,1.8-5.5c0-12-18.4-23-36.9-28.6l4.6-17.5c24,7.4,49.8,23,49.8,45.2
			c0,7.4-2.8,12.9-7.4,18.4C-1629.4-739.6-1657-739.6-1678.2-739.6z"/>
		<path fill="#FFFFFF" d="M-1518.8-1001.3h-17.5v-66.4c0-60.8-48.8-109.7-109.7-109.7h-77.4c-60.8,0-109.7,48.8-109.7,109.7v66.4
			h-18.4v-66.4c0-71,57.1-128.1,128.1-128.1h76.5c70,0,127.2,57.1,127.2,127.2v67.3H-1518.8z"/>
		<path fill="#FFFFFF" d="M-1557.5-967.2c39.6,0,71,32.3,71,71v148.4c0,39.6-32.3,71-71,71h-248.8c-39.6,0-71-32.3-71-71v-148.4
			c0-39.6,32.3-71,71-71H-1557.5 M-1557.5-985.6h-248.8c-48.8,0-89.4,39.6-89.4,89.4v148.4c0,48.8,39.6,89.4,89.4,89.4h248.8
			c48.8,0,89.4-39.6,89.4-89.4v-148.4C-1469.1-945.1-1508.7-985.6-1557.5-985.6L-1557.5-985.6z"/>
	</g>
</g>
<g id="Layer_1">
	<g>
		<path fill="#FFFFFF" d="M-875.8-1105c-3.5-19.1-12.2-37.4-25.2-52.2l0,0c-7-7.8-18.3-18.3-33.1-25.2l0,0
			c-14.8-7-29.6-10.4-46.1-10.4c-23.5,0-46.1,7.8-65.2,22.6l0,0c-16.5,13-27,30.4-27.8,33.1l0,0l0,0c-8.7,15.7-13,33.1-13,51.3
			c0,3.5,0,7.8,0.9,11.3c0,3.5,2.6,6.1,5.2,7.8c1.7,0.9,4.3,1.7,6.1,2.6c8.7,25.2,26.1,46.1,49.6,57.4c-9.6,5.2-19.1,12.2-26.1,20
			c-3.5,4.3-3.5,10.4,0.9,14.8c4.3,3.5,10.4,3.5,14.8-0.9c3.5-4.3,7.8-7.8,12.2-10.4c6.1,17.4,22.6,30.4,40.9,30.4h-0.9
			c18.3,0,34.8-13.9,40-33.1c21.7,13.9,35.7,38.3,35.7,64.4v107l-93.9,60.9c-5.2,3.5-6.1,9.6-3.5,13.9c1.7,3.5,5.2,4.3,8.7,4.3
			c1.7,0,3.5-0.9,5.2-1.7l99.2-64.4c2.6-1.7,4.3-5.2,4.3-8.7v-113.1c0-36.5-20.9-69.6-53.1-86.1c30.4-15.7,52.2-46.1,54.8-81.8
			c2.6-2.6,5.2-6.1,7.8-9.6C-875.8-1100.6-874.9-1103.2-875.8-1105z M-982.8-973.6h-1.7c-12.2,0-22.6-12.2-22.6-26.1c0,0,0,0,0-0.9
			c7.8,1.7,16.5,3.5,25.2,3.5c7,0,14.8-0.9,21.7-2.6C-961.9-984.9-971.5-973.6-982.8-973.6z M-982.8-1017.1
			c-31.3,0-59.1-18.3-71.3-46.1c14.8-4.3,25.2-16.5,27.8-31.3c6.1,0.9,12.2,0.9,19.1,0.9c20.9,0,40.9-4.3,59.1-13
			c4.3,15.7,19.1,27.8,37.4,27.8c0.9,0,2.6,0,3.5,0C-914.1-1044.1-945.4-1017.1-982.8-1017.1z M-910.6-1099.8
			c-9.6,0-18.3-7.8-18.3-18.3v-5.2c0-3.5-1.7-7-5.2-8.7c-3.5-1.7-7-1.7-10.4,0c-18.3,11.3-40,17.4-62.6,17.4
			c-8.7,0-17.4-0.9-26.1-2.6c-3.5-0.9-6.1,0-8.7,1.7c-2.6,1.7-3.5,5.2-3.5,7.8v6.1c0,9.6-7.8,18.3-18.3,18.3c-0.9,0-1.7,0-1.7,0
			s0,0-0.9,0h-0.9c0-0.9,0-1.7,0-2.6c0-13.9,3.5-28.7,10.4-40.9l0,0c0,0,9.6-16.5,22.6-27l0,0c14.8-12.2,33.1-18.3,53.1-18.3
			c13,0,25.2,2.6,37.4,8.7h0.9c11.3,5.2,20,13,26.1,19.1l0,0c9.6,10.4,16.5,23.5,20,38.3C-900.2-1101.5-905.4-1099.8-910.6-1099.8z
			 M-1070.7-835.3c23.5-13.9,39.1-39.1,39.1-68.7c0-13-3.5-25.2-8.7-36.5c0-0.9,0-0.9-0.9-0.9c-13-24.4-40-41.8-69.6-41.8
			c-30.4,0-56.5,16.5-69.6,41.8l-0.9,0.9c-6.1,11.3-8.7,23.5-8.7,36.5c0,28.7,15.7,54.8,39.1,68.7c-28.7,14.8-47,44.4-47,77.4v37.4
			c0,3.5,1.7,7,5.2,8.7l77.4,48.7c1.7,0.9,3.5,1.7,5.2,1.7s3.5-0.9,5.2-1.7l77.4-48.7c2.6-1.7,5.2-5.2,5.2-8.7v-38.3
			C-1023.7-790.1-1041.9-819.7-1070.7-835.3z M-1110.7-962.3c18.3,0,33.9,7.8,45.2,20.9c-13.9,4.3-29.6,6.1-45.2,6.1
			s-31.3-1.7-45.2-6.1C-1144.6-953.6-1128.9-962.3-1110.7-962.3z M-1168.9-903.2c0-7,0.9-13,3.5-19.1c17.4,5.2,35.7,8.7,55.7,8.7
			c19.1,0,38.3-2.6,55.7-8.7c1.7,6.1,3.5,12.2,3.5,19.1c0,32.2-26.1,58.3-58.3,58.3C-1141.1-844.9-1168.9-871-1168.9-903.2z
			 M-1092.4-826.6c-0.9,9.6-9.6,16.5-17.4,16.5h-0.9c-7.8,0-17.4-7-18.3-16.5c6.1,1.7,12.2,2.6,19.1,2.6
			C-1104.6-824-1098.5-824.9-1092.4-826.6z M-1110.7-683.1l-67-42.6v-32.2c0-22.6,11.3-43.5,30.4-55.7c6.1,14.8,21.7,23.5,36.5,23.5
			h0.9c15.7,0,29.6-10.4,35.7-24.4c19.1,12.2,30.4,33.1,30.4,56.5v32.2L-1110.7-683.1z M-1184.6-960.6c2.6-5.2,1.7-11.3-3.5-13.9
			c-3.5-1.7-6.1-3.5-9.6-5.2c13-7,24.4-15.7,33.1-27.8c3.5,0.9,7.8,1.7,12.2,1.7c20,0,35.7-16.5,35.7-35.7v-26.1
			c0-33.1-12.2-63.5-34.8-87c-22.6-23.5-53.1-37.4-85.2-38.3l0,0c-2.6,0-5.2,0-7.8,0c-33.1,0.9-64.4,13.9-87,36.5
			c-23.5,23.5-36.5,54.8-36.5,88.7v26.1c0,20,16.5,35.7,35.7,35.7c4.3,0,7.8-0.9,12.2-1.7c9.6,13,22.6,22.6,37.4,29.6
			c-32.2,16.5-51.3,49.6-51.3,85.2v84.4c0,3.5,1.7,7,4.3,8.7l93.9,60.9c1.7,0.9,3.5,1.7,5.2,1.7c3.5,0,7-1.7,8.7-4.3
			c3.5-5.2,1.7-11.3-3.5-13.9l-88.7-58.3v-79.2c0-24.4,11.3-46.1,29.6-60c6.1,18.3,22.6,32.2,40.9,32.2h1.7
			c20,0,35.7-18.3,40.9-37.4c0.9,0,0.9,0.9,1.7,0.9C-1194.2-953.6-1188.1-955.4-1184.6-960.6z M-1306.4-1105
			c-7,11.3-10.4,24.4-10.4,37.4v26.1c0,5.2-2.6,9.6-6.1,12.2c0,0-0.9,0-0.9,0.9c-2.6,1.7-5.2,2.6-8.7,2.6c-8.7,0-15.7-7-15.7-15.7
			v-26.1c0.9-57.4,45.2-103.5,102.6-104.4c1.7,0,4.3,0,7,0c56.5,2.6,100.9,47.8,100.9,104.4v26.1c0,8.7-7,15.7-15.7,15.7
			c-3.5,0-6.1-0.9-8.7-2.6l-0.9-0.9c-3.5-2.6-6.1-7-6.1-12.2v-26.1c0-36.5-27-67.8-63.5-73.1c-2.6,0-6.1,0-7.8,1.7
			c-1.7,2.6-3.5,5.2-3.5,7.8c0,7-1.7,13.9-3.5,20.9h-50.4C-1301.2-1110.2-1304.6-1107.6-1306.4-1105z M-1242-940.6h-1.7
			c-11.3,0-23.5-13.9-23.5-28.7c0-0.9,0-1.7,0-2.6c7.8,1.7,15.7,2.6,24.4,2.6c7.8,0,15.7-0.9,23.5-2.6
			C-1220.3-957.1-1231.6-940.6-1242-940.6z M-1242.9-990.2c-24.4,0-46.1-11.3-60.9-29.6c4.3-6.1,7.8-13.9,7.8-21.7v-26.1
			c0-7.8,1.7-14.8,4.3-21.7h51.3c4.3,0,7.8-2.6,9.6-7c2.6-7,4.3-13.9,6.1-21.7c20.9,7.8,35.7,27.8,35.7,50.4v26.1
			c0,7.8,2.6,15.7,7.8,21.7C-1195.9-1000.6-1218.5-990.2-1242.9-990.2z"/>
	</g>
</g>
</svg>
