<?xml version="1.0" encoding="utf-8"?>
<!-- Generator: Adobe Illustrator 18.1.1, SVG Export Plug-In . SVG Version: 6.00 Build 0)  -->
<svg version="1.1" id="Layer_1" xmlns="http://www.w3.org/2000/svg" xmlns:xlink="http://www.w3.org/1999/xlink" x="0px" y="0px"
	 viewBox="0 0 49.3 82.6" enable-background="new 0 0 49.3 82.6" xml:space="preserve">
<g>
	<path fill="#62C5DC" d="M22.3,3c0.2,0,0.5,0.1,0.7,0.2l1.4,1l1.7-0.9c0,0,0.6-0.2,1-0.2c0.1,0,0.1,0,0.1,0c0,0,0,0,0,0
		c0.5,0.4,0.7,0.9,0.7,1.1l0,1l0.9,0.9c0,0,2,2,4.6,4.4c0.8,0.8,1.7,1.6,2.6,2.4c5,4.4,10.1,9,9.1,16.4C43.9,38.4,34,42.6,33.9,42.6
		l-3.3,1.3l1.9,3c1.2,2,4.8,8.4,4.7,12c0,5.5,0.6,8.6,2.2,10.2c0.8,0.8,1.7,1.2,2.7,1.2c0.1,0,0.1,0,0.2,0c0.7,0.1,3,0.5,3,2.3
		c0,2.2-3,4.1-4.2,4.6c-0.8,0.2-3.9,1-6.9,1.4c-2.8,0.4-5.6,0.5-6.6,0.5c-0.1,0-0.2-0.1-0.3-0.1c-0.1,0-0.2-0.2-0.3-0.2l-2.4-3
		l-2.3,3c0,0-0.1,0.1-0.1,0.1c0,0-0.1,0-0.2,0l0,0c0,0-0.9,0.1-2.1,0.1c-1.5,0-2.9-0.1-4.1-0.2c-3.1-0.4-6.4-1.3-6.5-1.3l-0.2,0
		l-0.2,0c0,0-2-0.4-3.4-1.6c-0.9-0.7-1.6-2.5-1.8-3.5c-0.1-0.7,1.5-1.6,2.7-2.1c2-0.2,5.7-1.8,5.8-11.3c0-3.8,3.2-10,4.4-12.1
		l1.8-3.1l-3.3-1.3c-0.5-0.2-12-4.7-11.3-15l0-0.1l0-0.1C4.5,20.7,10,15.9,14,12.4c3.8-3.4,6.5-6.2,6.6-6.3l1.2-0.7L21.4,4
		c0.1-0.2,0.2-0.5,0.7-0.9C22.2,3,22.3,3,22.3,3 M22.3,0c-0.6,0-1.3,0.2-2,0.7c-2,1.6-1.9,3.3-1.9,3.3s-2.7,2.8-6.4,6.1
		C7.4,14.2,1.5,19.5,1.2,27.4c-0.9,12.7,13.2,18,13.2,18S9.6,53.5,9.6,59c-0.1,8-2.7,8.4-3.2,8.4c-0.1,0-0.1,0-0.1,0
		s-5.7,1.6-5.2,5.4c0.2,1.6,1.2,4.1,2.8,5.4C6,80,8.7,80.5,8.7,80.5s3.5,1,6.9,1.4c1.6,0.2,3.2,0.2,4.5,0.2c1.4,0,2.3-0.1,2.3-0.1
		s0.8,0,1.4-0.3c0.6-0.3,1-0.9,1-0.9s0.5,0.5,1,0.9c0.6,0.4,1.4,0.5,1.4,0.5s0,0,0,0c0.1,0,3.7,0,7.5-0.5c3.7-0.5,7.5-1.6,7.5-1.6
		s6.3-2.6,6.2-7.5c-0.1-5-6.1-5.2-6.1-5.2s0,0-0.1,0c-0.5,0-2-0.6-2-8.4c0-5.3-5.2-13.6-5.2-13.6s11.5-4.6,13-15.7
		c1.4-10.5-7.3-16.2-12.7-21.3C32.8,5.9,30.9,4,30.9,4S30.8,2.1,29,0.7c-0.6-0.5-1.3-0.6-1.9-0.6c-1.3,0-2.4,0.6-2.4,0.6
		S23.6,0,22.3,0L22.3,0z"/>
</g>
<g>
	<path fill="#62C5DC" d="M24.7,11.5c1.1,1.1,2.6,2.5,4.3,4c0.4,0.5,1,0.9,1.8,1.5c2.8,2.1,8.5,6.5,8.2,12.2l0,0.1l0,0.1
		c0,3.9-6.3,7.1-8.7,8c-0.7,0.2-2.8,0.8-4.7,2.3c-0.3,0.2-0.6,0.5-0.9,0.7c-0.3-0.3-0.7-0.6-1.1-0.9c-1.7-1.3-3.9-2-4.4-2.1
		c-0.2-0.1-2.1-0.7-4.1-1.9c-2-1.2-4.1-2.9-4.8-6.4c-0.7-3.8,2.5-6.9,7.4-11.2c0.7-0.7,1.5-1.3,2.2-1.9
		C21.9,14.3,23.5,12.7,24.7,11.5 M24.6,7.3c0,0-2.7,2.9-6.6,6.4C13,18.3,6.3,23,7.5,29.6c0.8,4.6,3.7,6.9,6.2,8.4
		c2.6,1.5,4.8,2.2,4.8,2.2s1.9,0.5,3.4,1.6c1.7,1.3,3,3.2,3,3.2s1.1-1.9,2.6-3c1.7-1.3,3.8-1.8,3.8-1.8S42.1,36.4,42,29.4
		c0.5-9.1-10.3-14.9-10.8-15.9C27.5,10.2,24.6,7.3,24.6,7.3L24.6,7.3z"/>
</g>
<g>
	<path fill="#62C5DC" d="M24.5,18.5c3.9,0,7,3.5,7,7.7c0,4.3-3.2,7.7-7,7.7c-3.9,0-7-3.5-7-7.7C17.4,22,20.6,18.5,24.5,18.5
		 M24.5,15.5c-5.5,0-10,4.8-10,10.7S18.9,37,24.5,37c5.5,0,10-4.8,10-10.7S30,15.5,24.5,15.5L24.5,15.5z"/>
</g>
</svg>
